<svg enable-background="new 0 0 428.5 178.9" viewBox="0 0 428.5 178.9" xmlns="http://www.w3.org/2000/svg"><path d="m412 106.9c-1-7.5-4.4-14-8.8-20-6-8.2-13.6-14.9-21.8-20.9-19.4-14-40.8-23.8-63.8-30.3-24.3-6.8-49.1-9.6-74.2-10-10.4-.2-20.8 0-31.2.5-5.7.3-11.5.7-17.2 1.1-1.9.1-2.8 1.4-2.6 3.1.2 1.5 1 2 3 1.9 9.3-.6 18.5-1.1 27.8-1.4 16.7-.4 33.4 0 50 1.7 13.2 1.4 26.3 3.6 39.1 6.9 22.4 5.8 43.4 14.8 62.4 28.1 7.5 5.2 14.7 10.7 20.7 17.6 4.7 5.3 8.5 11.1 10.5 18 2.7 9.4.4 17.3-7.2 23.5-2.4 2-5.1 3.7-7.8 5.2-17.6 9.9-36.3 16.8-55.8 21.8-22.9 5.8-46.3 8.7-69.9 10-12.8.7-25.6.8-38.5.6-15.7-.3-31.4-.9-47.1-2.4-14.7-1.3-29.3-3.3-43.8-6-20.2-3.8-40-9-59.3-16.2-11.7-4.3-23.2-8.9-34.1-15.1-4.9-2.8-9.7-5.8-13.6-10.1-5.3-5.9-8.2-12.6-7.4-20.6.6-6.2 3.3-11.5 7-16.4 4.5-5.9 10.4-10.3 16.7-14.2 11.1-6.7 22.6-12.5 34.4-17.8 26.3-11.4 53.5-19.8 81.5-25.1 9-1.7 18.1-3 27.2-4 7.2-.8 14.4-1.4 21.7-1.7 10.1-.5 20.1-.6 30.2-.3 5.3.2 10.5.5 15.7.8 1.9.1 2.8-1.1 2.5-3-.3-1.3-1.2-2-2.9-2.1-4.8-.3-9.5-.5-14.3-.8 0-.1 0-.1 0-.2-.4 0-.8 0-1.2 0s-.8 0-1.2 0c-.5 0-1 0-1.5 0s-1 0-1.5 0c-.6 0-1.1 0-1.7 0-.8 0-1.6 0-2.4 0-2.2 0-4.4 0-6.6 0-.8 0-1.6 0-2.4 0-.6 0-1.1 0-1.7 0s-1.1 0-1.7 0c-.2 0-.3 0-.5 0-.6 0-1.1 0-1.7 0s-1.1 0-1.7 0c-1.4.3-2.7.2-4.1.2-6 .1-11.9.6-17.9 1.1-8.1.7-16.2 1.8-24.2 3.1-12.1 2-24.1 4.5-36 7.7-14.2 3.8-28.2 8.4-41.9 13.8-14.6 5.8-28.8 12.6-42.6 20.1-8 4.4-15.5 9.5-21.7 16.3-3 3.3-5.4 6.9-7.3 10.9-1.7 3.7-2.9 7.5-3.3 11.5v7.1c.3.1.2.4.3.6.8 5.5 3.2 10.4 6.7 14.7 4.4 5.3 10 9.1 15.9 12.3 17 9.2 34.9 16.3 53.3 22 29.5 9.2 59.8 14.2 90.5 16.8 10.1.9 20.3 1.4 30.5 1.8 21.5.8 42.9.5 64.4-1.2 12.8-1 25.6-2.6 38.3-4.9 23.8-4.3 46.7-11.3 68.6-21.9 5.4-2.6 10.7-5.3 15.5-8.9 5.6-4.2 9.8-9.4 11.4-16.4.2-.8.1-1.6.6-2.3 0-2.2 0-4.4 0-6.6-.1.2-.3.1-.3 0z"/></svg>