<?xml version="1.0" encoding="utf-8"?>
<!-- Generator: Adobe Illustrator 19.2.1, SVG Export Plug-In . SVG Version: 6.00 Build 0)  -->
<svg version="1.1" id="Calque_1" xmlns="http://www.w3.org/2000/svg" xmlns:xlink="http://www.w3.org/1999/xlink" x="0px" y="0px"
	 viewBox="0 0 257.3 179" style="enable-background:new 0 0 257.3 179;" xml:space="preserve">
<path d="M248.7,90.5c-0.9-7.3-3-14.3-6.5-20.8c-8.4-15.7-21.3-26.3-38.1-32.1c-3.1-1.1-6.2-1.9-9.4-2.4c-1.2-0.2-2.1,0.5-2.2,1.6
	c-0.2,1,0.3,1.6,1.6,1.9c8.9,1.7,17.3,5,24.8,10.3c19.9,14.1,28.8,33.2,26.2,57.5c-1.1,9.7-4.7,18.6-10.5,26.4
	c-5.9,7.9-13.3,13.8-21.7,18.8c-8.5,4.9-17.5,8.5-26.8,11.4c-21,6.6-42.7,9.8-64.7,10.4c-13.2,0.3-26.3-0.5-39.2-3
	c-10-2-19.8-4.9-29-9.4c-12.1-5.9-22.2-14.1-30-25.2c-9.1-13.1-12.8-27.5-10.6-43.3c1.4-9.9,5-19.1,10.3-27.5
	c6.1-9.7,14.1-17.8,23.2-24.8c11.8-9,24.9-15.8,38.6-21.3c19-7.6,38.6-12,59-13.1c10.4-0.5,20.9-0.3,31.2,1.2
	c5.5,0.8,10.9,2,16.1,4.2c4,1.7,7.6,3.9,10.8,6.8c0.8,0.7,1.6,0.8,2.3,0.4c1.2-0.7,1.2-2,0.1-3c-5.1-4.6-11-7.6-17.5-9.5
	c-7.5-2.2-15.2-3.1-22.9-3.6c-1.1-0.1-2.2,0-3.3-0.3c-0.1,0-0.1,0-0.2,0c-0.4,0-0.8,0-1.2,0c-0.3,0-0.7,0-1,0c-0.4,0-0.8,0-1.2,0
	c-0.6,0-1.3,0-1.9,0c-1.4,0-2.9,0-4.3,0c-0.5,0-0.9,0-1.4,0c-0.5,0-1,0-1.5,0c-0.3,0-0.7,0-1,0s-0.7,0-1,0c0,0,0,0.1,0,0.1
	c-6.4,0.3-12.7,0.8-19.1,1.8c-12.1,1.8-23.9,4.7-35.4,8.7C76,18,61.3,24.9,47.9,34.2c-10.6,7.4-19.8,16.1-27,26.9
	c-6.6,9.9-10.9,20.7-12.3,32.6c-1.2,10.2-0.1,20.1,3.7,29.6c4.9,12.3,12.8,22.3,23,30.5c10.6,8.6,22.8,14.2,35.9,17.8
	c10.8,3,21.8,4.4,32.9,5c12.1,0.6,24.2,0.3,36.3-1c7.9-0.8,15.7-2,23.4-3.5c11.5-2.4,22.9-5.4,33.9-9.6c10.2-3.9,19.7-8.9,28.2-15.8
	c13.9-11.5,21.7-26.2,23.1-44.2l0.1,0l0.1,0c0-0.3,0-0.6,0-0.9c0-0.3,0-0.6,0-0.9c0-0.4,0-0.8,0-1.2c0-1.2,0-2.4,0-3.6
	c0-0.4,0-0.8,0-1.2c0-0.2,0-0.5,0-0.7C248.8,93,248.8,91.7,248.7,90.5z"/>
</svg>
