<?xml version="1.0" encoding="utf-8"?>
<!-- Generator: Adobe Illustrator 19.2.1, SVG Export Plug-In . SVG Version: 6.00 Build 0)  -->
<svg version="1.1" id="Calque_1" xmlns="http://www.w3.org/2000/svg" xmlns:xlink="http://www.w3.org/1999/xlink" x="0px" y="0px"
	 viewBox="0 0 428.5 178.9" style="enable-background:new 0 0 428.5 178.9;" xml:space="preserve">
<path d="M412,106.9c-1-7.5-4.4-14-8.8-20c-6-8.2-13.6-14.9-21.8-20.9c-19.4-14-40.8-23.8-63.8-30.3c-24.3-6.8-49.1-9.6-74.2-10
	c-10.4-0.2-20.8,0-31.2,0.5c-5.7,0.3-11.5,0.7-17.2,1.1c-1.9,0.1-2.8,1.4-2.6,3.1c0.2,1.5,1,2,3,1.9c9.3-0.6,18.5-1.1,27.8-1.4
	c16.7-0.4,33.4,0,50,1.7c13.2,1.4,26.3,3.6,39.1,6.9c22.4,5.8,43.4,14.8,62.4,28.1c7.5,5.2,14.7,10.7,20.7,17.6
	c4.7,5.3,8.5,11.1,10.5,18c2.7,9.4,0.4,17.3-7.2,23.5c-2.4,2-5.1,3.7-7.8,5.2c-17.6,9.9-36.3,16.8-55.8,21.8
	c-22.9,5.8-46.3,8.7-69.9,10c-12.8,0.7-25.6,0.8-38.5,0.6c-15.7-0.3-31.4-0.9-47.1-2.4c-14.7-1.3-29.3-3.3-43.8-6
	c-20.2-3.8-40-9-59.3-16.2c-11.7-4.3-23.2-8.9-34.1-15.1c-4.9-2.8-9.7-5.8-13.6-10.1c-5.3-5.9-8.2-12.6-7.4-20.6
	c0.6-6.2,3.3-11.5,7-16.4c4.5-5.9,10.4-10.3,16.7-14.2c11.1-6.7,22.6-12.5,34.4-17.8C105.8,34.1,133,25.7,161,20.4
	c9-1.7,18.1-3,27.2-4c7.2-0.8,14.4-1.4,21.7-1.7c10.1-0.5,20.1-0.6,30.2-0.3c5.3,0.2,10.5,0.5,15.7,0.8c1.9,0.1,2.8-1.1,2.5-3
	c-0.3-1.3-1.2-2-2.9-2.1c-4.8-0.3-9.5-0.5-14.3-0.8c0,0,0,0,0,0c0-0.1,0-0.1,0-0.2c-0.4,0-0.8,0-1.2,0s-0.8,0-1.2,0
	c-0.5,0-1,0-1.5,0c-0.5,0-1,0-1.5,0c-0.6,0-1.1,0-1.7,0c-0.8,0-1.6,0-2.4,0c-2.2,0-4.4,0-6.6,0c-0.8,0-1.6,0-2.4,0
	c-0.6,0-1.1,0-1.7,0s-1.1,0-1.7,0c-0.2,0-0.3,0-0.5,0c-0.6,0-1.1,0-1.7,0c-0.6,0-1.1,0-1.7,0c-1.4,0.3-2.7,0.2-4.1,0.2
	c-6,0.1-11.9,0.6-17.9,1.1c-8.1,0.7-16.2,1.8-24.2,3.1c-12.1,2-24.1,4.5-36,7.7c-14.2,3.8-28.2,8.4-41.9,13.8
	c-14.6,5.8-28.8,12.6-42.6,20.1c-8,4.4-15.5,9.5-21.7,16.3c-3,3.3-5.4,6.9-7.3,10.9c-1.7,3.7-2.9,7.5-3.3,11.5c0,2.4,0,4.7,0,7.1
	c0.3,0.1,0.2,0.4,0.3,0.6c0.8,5.5,3.2,10.4,6.7,14.7c4.4,5.3,10,9.1,15.9,12.3c17,9.2,34.9,16.3,53.3,22
	c29.5,9.2,59.8,14.2,90.5,16.8c10.1,0.9,20.3,1.4,30.5,1.8c21.5,0.8,42.9,0.5,64.4-1.2c12.8-1,25.6-2.6,38.3-4.9
	c23.8-4.3,46.7-11.3,68.6-21.9c5.4-2.6,10.7-5.3,15.5-8.9c5.6-4.2,9.8-9.4,11.4-16.4c0.2-0.8,0.1-1.6,0.6-2.3c0-2.2,0-4.4,0-6.6
	C412.2,107.1,412,107,412,106.9z"/>
</svg>
