<?xml version="1.0" encoding="utf-8"?>
<!-- Generator: Adobe Illustrator 19.2.1, SVG Export Plug-In . SVG Version: 6.00 Build 0)  -->
<svg version="1.1" id="Calque_1" xmlns="http://www.w3.org/2000/svg" xmlns:xlink="http://www.w3.org/1999/xlink" x="0px" y="0px"
	 viewBox="0 0 328.7 178.9" style="enable-background:new 0 0 328.7 178.9;" xml:space="preserve">
<path d="M314.7,91.4c-1.6-10.9-6.5-20.3-14.4-28c-6.2-6.1-13.5-10.1-22-11.8c-1.3-0.3-2.4,0.5-2.7,1.8c-0.3,1.2,0.3,2.1,1.7,2.4
	c1.5,0.3,2.9,0.7,4.3,1.2c12.2,4.3,20.6,12.6,25.7,24.3c3.5,8.1,4.5,16.4,2.4,25.1c-1.9,7.7-5.9,14.3-11.2,20.2
	c-7.1,7.8-15.9,13.3-25.5,17.5c-8.7,3.7-17.8,6.3-26.9,8.6c-18.3,4.7-36.7,8.6-55.4,11.5c-12.9,2-25.8,3.4-38.8,4.2
	c-13.4,0.8-26.7,0.8-40-0.1c-11.7-0.8-23.2-2.3-34.7-4.9c-9.7-2.1-19.1-4.8-28.1-9c-8.2-3.8-15.6-8.6-21.5-15.6
	c-8.2-9.6-11.3-20.6-9.1-33.1c1.4-7.7,4.5-14.7,8.5-21.3c5.9-9.6,13.6-17.7,22.1-25c12.6-10.9,26.6-19.6,41.5-27
	c18.8-9.3,38.5-15.6,59.2-19.1c7.2-1.2,14.5-2,21.9-2.5c8.4-0.5,16.8-0.5,25.2,0c7.7,0.5,15.4,1.4,23,2.7c1.3,0.2,2.4-0.7,2.6-2
	c0.2-1.3-0.4-2-1.9-2.2c-7.9-1.3-15.9-2.3-23.9-2.7c-14.1-0.8-28.1-0.2-42.1,1.8c-14.2,2-28.1,5.3-41.7,10.1
	c-24.1,8.6-46.4,20.6-65.9,37.2c-8.9,7.6-17,16.1-23.3,26c-4.6,7.2-8,14.8-9.6,23.3c-0.2,1.3-0.2,2.6-0.7,3.8c0,0.5,0,1,0,1.4
	c0,0.4,0,0.8,0,1.2c0,1.2,0,2.3,0,3.5c0,0.4,0,0.8,0,1.2c0,0.3,0,0.7,0,1c0.5,0.8,0.4,1.7,0.5,2.5c1.6,9.9,6.3,18.2,13.5,25.1
	c6.4,6.2,13.9,10.8,22,14.3c14,6.2,28.8,9.6,43.9,11.6c11.1,1.5,22.2,2.2,33.4,2.4c8.5,0.2,17,0,25.5-0.5c9.1-0.5,18.2-1.4,27.2-2.5
	c10.4-1.3,20.7-3,31-5c15.6-3,31.1-6.6,46.5-10.9c9.4-2.6,18.6-5.9,27.1-10.7c9.3-5.3,17.4-12.1,23.4-21.1
	C313.6,112.8,316.4,102.6,314.7,91.4z"/>
</svg>
