<svg enable-background="new 0 0 257.3 179" viewBox="0 0 257.3 179" xmlns="http://www.w3.org/2000/svg"><path d="m248.7 90.5c-.9-7.3-3-14.3-6.5-20.8-8.4-15.7-21.3-26.3-38.1-32.1-3.1-1.1-6.2-1.9-9.4-2.4-1.2-.2-2.1.5-2.2 1.6-.2 1 .3 1.6 1.6 1.9 8.9 1.7 17.3 5 24.8 10.3 19.9 14.1 28.8 33.2 26.2 57.5-1.1 9.7-4.7 18.6-10.5 26.4-5.9 7.9-13.3 13.8-21.7 18.8-8.5 4.9-17.5 8.5-26.8 11.4-21 6.6-42.7 9.8-64.7 10.4-13.2.3-26.3-.5-39.2-3-10-2-19.8-4.9-29-9.4-12.1-5.9-22.2-14.1-30-25.2-9.1-13.1-12.8-27.5-10.6-43.3 1.4-9.9 5-19.1 10.3-27.5 6.1-9.7 14.1-17.8 23.2-24.8 11.8-9 24.9-15.8 38.6-21.3 19-7.6 38.6-12 59-13.1 10.4-.5 20.9-.3 31.2 1.2 5.5.8 10.9 2 16.1 4.2 4 1.7 7.6 3.9 10.8 6.8.8.7 1.6.8 2.3.4 1.2-.7 1.2-2 .1-3-5.1-4.6-11-7.6-17.5-9.5-7.5-2.2-15.2-3.1-22.9-3.6-1.1-.1-2.2 0-3.3-.3-.1 0-.1 0-.2 0-.4 0-.8 0-1.2 0-.3 0-.7 0-1 0-.4 0-.8 0-1.2 0-.6 0-1.3 0-1.9 0-1.4 0-2.9 0-4.3 0-.5 0-.9 0-1.4 0s-1 0-1.5 0c-.3 0-.7 0-1 0s-.7 0-1 0v.1c-6.4.3-12.7.8-19.1 1.8-12.1 1.8-23.9 4.7-35.4 8.7-15.3 5.3-30 12.2-43.4 21.5-10.6 7.4-19.8 16.1-27 26.9-6.6 9.9-10.9 20.7-12.3 32.6-1.2 10.2-.1 20.1 3.7 29.6 4.9 12.3 12.8 22.3 23 30.5 10.6 8.6 22.8 14.2 35.9 17.8 10.8 3 21.8 4.4 32.9 5 12.1.6 24.2.3 36.3-1 7.9-.8 15.7-2 23.4-3.5 11.5-2.4 22.9-5.4 33.9-9.6 10.2-3.9 19.7-8.9 28.2-15.8 13.9-11.5 21.7-26.2 23.1-44.2h.1.1c0-.3 0-.6 0-.9s0-.6 0-.9c0-.4 0-.8 0-1.2 0-1.2 0-2.4 0-3.6 0-.4 0-.8 0-1.2 0-.2 0-.5 0-.7-.4-1-.4-2.3-.5-3.5z"/></svg>