<?xml version="1.0" encoding="utf-8"?>
<!-- Generator: Adobe Illustrator 19.2.1, SVG Export Plug-In . SVG Version: 6.00 Build 0)  -->
<svg version="1.1" id="Calque_1" xmlns="http://www.w3.org/2000/svg" xmlns:xlink="http://www.w3.org/1999/xlink" x="0px" y="0px"
	 viewBox="0 0 85 85" style="enable-background:new 0 0 85 85;" xml:space="preserve">
<style type="text/css">
	.st0{opacity:0.95;fill:#FFFFFF;}
</style>
<g>
	<rect class="st0" width="85" height="85"/>
	<g>
		<g>
			<path d="M30.7,22.7v37.5h-6.8V22.7H30.7z"/>
		</g>
	</g>
	<g>
		<g>
			<path d="M60.5,20.7v31.9c0,2.8,0.1,5.8,0.2,7.6h-5.6L54.9,56h-0.1c-1.5,3-4.5,4.9-8.1,4.9c-5.9,0-10.6-5.5-10.6-13.9
				c-0.1-9.1,5.1-14.5,11.1-14.5c3.4,0,5.9,1.6,7,3.6h0.1V20.7H60.5z M54.3,44.4c0-0.6-0.1-1.2-0.2-1.8c-0.6-2.7-2.5-4.8-5.4-4.8
				c-4,0-6.3,3.9-6.3,9c0,5,2.2,8.6,6.2,8.6c2.5,0,4.8-1.9,5.4-4.8c0.2-0.6,0.2-1.3,0.2-2V44.4z"/>
		</g>
	</g>
</g>
</svg>
