<?xml version="1.0" encoding="utf-8"?>
<!-- Generator: Adobe Illustrator 19.2.1, SVG Export Plug-In . SVG Version: 6.00 Build 0)  -->
<svg version="1.1" id="Calque_1" xmlns="http://www.w3.org/2000/svg" xmlns:xlink="http://www.w3.org/1999/xlink" x="0px" y="0px"
	 viewBox="0 0 141.7 141.7" style="enable-background:new 0 0 141.7 141.7;" xml:space="preserve">
<style type="text/css">
	.st0{fill:transparent;}
</style>
<polygon class="st0" points="66.6,54.6 73.6,54.6 73.6,54.6 73.6,40.7 73.6,40.7 73.6,27.1 73.6,26.8 87.5,26.8 87.5,27.1
	87.5,40.7 87.5,40.7 87.5,40.8 87.5,40.8 87.5,40.7 101.4,40.7 101.4,40.8 101.4,54.6 101.4,54.6 115.5,54.6 115.5,68.5 129.4,68.5
	129.4,82.5 115.5,82.5 115.5,82.5 115.5,96.2 115.5,96.4 101.5,96.4 101.5,96.2 101.4,96.2 101.4,96.4 101.4,110.3 87.5,110.3
	87.5,124.2 73.6,124.2 73.6,110.3 73.6,96.4 73.6,96.4 73.6,96.2 66.6,96.2 17.6,96.2 17.6,54.6 "/>
<path d="M124.1,67.5v-8.3h-7.7v-5.6l-6.3,0v-8.3h-7.8v-5.6h-6.3v-8.2v-0.1h-7.7v-5.6h-6.3v-8v-0.3H68.3v0.3v13.6v0v13.9v0h-7h-49
	v41.6h4.3v10.3h51.7v3.8V115h4.3v10.3h15.9v-13.9h13.9V97.4h14V83.5h13.9V67.5H124.1z M114.5,55.6v3.6h-4.3v-3.6H114.5z M100.4,41.7
	v3.6h-4.3v0v-3.6H100.4z M86.5,27.8l0,3.6h-4.3v0.1h0v-0.1v0v-3.6H86.5z M18.6,95.2v-8.3h42.7h7v0.2v0v8.1H18.6z M128.4,81.5
	l-13.9,0v13.9h-11.9v-0.2h-2.1v14.1H86.5v13.9H74.6V115h7.7V101h13.9V87.1v-0.2h0.1v0.2h13.9v-0.2V73.2v0h13.9v-3.6h4.3V81.5z"/>
</svg>
