<?xml version="1.0" encoding="utf-8"?>
<!-- Generator: Adobe Illustrator 19.2.1, SVG Export Plug-In . SVG Version: 6.00 Build 0)  -->
<svg version="1.1" id="Calque_1" xmlns="http://www.w3.org/2000/svg" xmlns:xlink="http://www.w3.org/1999/xlink" x="0px" y="0px"
	 viewBox="0 0 1600 1200" style="enable-background:new 0 0 1600 1200;" xml:space="preserve">
<g>
	<g>
		<path d="M207.4,579l-15.1-9.5l15.8-8.3L207.4,579z M196.3,569.6l9.3,5.8l0.4-10.9L196.3,569.6z"/>
	</g>
	<g>
		<path d="M341.5,644.1l2.9-17.6l13.8,11.3L341.5,644.1z M345.8,630.2L344,641l10.2-3.9L345.8,630.2z"/>
	</g>
	<g>
		<path d="M248.8,674l-16.2-7.6l14.7-10.2L248.8,674z M236.6,666.1l9.9,4.6l-0.9-10.9L236.6,666.1z"/>
	</g>
	<g>
		<path d="M61.5,630.9l4.3-17.4L78.7,626L61.5,630.9z M66.9,617.4L64.3,628l10.5-3.1L66.9,617.4z"/>
	</g>
	<g>
		<path d="M484.5,709.9l-15.1-9.5l15.8-8.4L484.5,709.9z M473.4,700.5l9.3,5.8l0.4-10.9L473.4,700.5z"/>
	</g>
	<g>
		<path d="M-7.6,576.9l3.8-17.5l13.2,12L-7.6,576.9z M-2.6,563.3L-4.9,574l10.4-3.3L-2.6,563.3z"/>
	</g>
	<g>
		<path d="M491.3,593.3l-7.4-16.3l17.8,1.8L491.3,593.3z M487.2,579.3l4.5,10l6.4-8.9L487.2,579.3z"/>
	</g>
	<g>
		<path d="M646.4,530l-16.5-6.9l14.2-10.9L646.4,530z M633.8,522.6l10.1,4.2l-1.4-10.9L633.8,522.6z"/>
	</g>
	<g>
		<path d="M532.5,617l4.9-17.2l12.5,12.8L532.5,617z M538.3,603.6l-3,10.5l10.6-2.7L538.3,603.6z"/>
	</g>
	<g>
		<path d="M506.4,505.5L492,495l16.4-7.2L506.4,505.5z M495.9,495.4l8.8,6.5L506,491L495.9,495.4z"/>
	</g>
	<g>
		<path d="M651.3,694.7l1.8-17.8l14.5,10.5L651.3,694.7z M654.7,680.5l-1.1,10.9l10-4.5L654.7,680.5z"/>
	</g>
	<g>
		<path d="M774.2,610.5l-17.1-5.1l13-12.3L774.2,610.5z M760.9,604.4l10.5,3.1l-2.5-10.7L760.9,604.4z"/>
	</g>
	<g>
		<path d="M922,536.2l-13.5-11.8l16.9-5.8L922,536.2z M912.5,525.2l8.2,7.2l2.1-10.7L912.5,525.2z"/>
	</g>
	<g>
		<path d="M826.7,495.7l4.1-17.4l13,12.3L826.7,495.7z M832,482.2l-2.5,10.7l10.5-3.1L832,482.2z"/>
	</g>
	<g>
		<path d="M937.4,680l-12.3-13l17.4-4.2L937.4,680z M928.9,668.2l7.5,7.9l3.1-10.5L928.9,668.2z"/>
	</g>
	<g>
		<path d="M780.6,693.2l4.7-17.2l12.6,12.7L780.6,693.2z M786.3,679.9l-2.9,10.6l10.6-2.8L786.3,679.9z"/>
	</g>
	<g>
		<path d="M1131.4,577.6l-17.2-4.7l12.7-12.6L1131.4,577.6z M1118,571.9l10.6,2.9l-2.8-10.6L1118,571.9z"/>
	</g>
	<g>
		<path d="M1074.2,717.7l-2.8-17.7l16.7,6.4L1074.2,717.7z M1073.9,703.2l1.7,10.8l8.5-6.9L1073.9,703.2z"/>
	</g>
	<g>
		<path d="M1066.2,655.7l-17.1-5.1l13-12.3L1066.2,655.7z M1052.9,649.6l10.5,3.1l-2.6-10.6L1052.9,649.6z"/>
	</g>
	<g>
		<path d="M1174.1,485.8l-15.3-9.2l15.7-8.6L1174.1,485.8z M1162.8,476.6l9.4,5.7l0.2-10.9L1162.8,476.6z"/>
	</g>
	<g>
		<path d="M860.3,771l-5.1-17.1l17.4,4.1L860.3,771z M858.1,756.6l3.1,10.5l7.5-8L858.1,756.6z"/>
	</g>
	<g>
		<path d="M1014.8,476.8l-17.6-3l11.4-13.8L1014.8,476.8z M1000.9,472.4l10.8,1.8l-3.8-10.3L1000.9,472.4z"/>
	</g>
	<g>
		<path d="M1275.5,589.1l-6.1-16.8l17.6,3.1L1275.5,589.1z M1272.5,574.8l3.7,10.3l7-8.4L1272.5,574.8z"/>
	</g>
	<g>
		<path d="M1320,552.6l-16.1-7.7l14.8-10.1L1320,552.6z M1307.9,544.6l9.9,4.7l-0.8-10.9L1307.9,544.6z"/>
	</g>
	<g>
		<path d="M1190.6,670.6l5.4-17l12.1,13.2L1190.6,670.6z M1196.8,657.4l-3.3,10.4l10.7-2.4L1196.8,657.4z"/>
	</g>
	<g>
		<path d="M1402.4,655l-15.3-9.2l15.6-8.7L1402.4,655z M1391,645.9l9.4,5.6l0.2-10.9L1391,645.9z"/>
	</g>
	<g>
		<path d="M1527.7,525.8l-16-7.9l14.9-9.9L1527.7,525.8z M1515.7,517.6l9.8,4.9l-0.7-10.9L1515.7,517.6z"/>
	</g>
	<g>
		<path d="M1374.1,471.9l6.2-16.8l11.4,13.8L1374.1,471.9z M1381,459.1l-3.8,10.3l10.8-1.8L1381,459.1z"/>
	</g>
	<g>
		<path d="M1305.7,748.5l-14.8-10.1l16.1-7.8L1305.7,748.5z M1294.9,738.7l9.1,6.2l0.8-10.9L1294.9,738.7z"/>
	</g>
	<g>
		<path d="M1482.8,690.1l-13.5-11.7l16.9-5.9L1482.8,690.1z M1473.2,679.1l8.3,7.2l2.1-10.8L1473.2,679.1z"/>
	</g>
	<g>
		<path d="M1590.1,627.9l8.6-15.7l9.2,15.3L1590.1,627.9z M1598.8,616.3l-5.3,9.6l10.9-0.2L1598.8,616.3z"/>
	</g>
	<g>
		<path d="M271.2,445.3l7.3-16.3l10.5,14.5L271.2,445.3z M278.9,433l-4.5,10l10.9-1.1L278.9,433z"/>
	</g>
	<g>
		<path d="M86.5,745l-4.5-17.3l17.2,4.8L86.5,745z M84.9,730.6l2.7,10.6l7.8-7.7L84.9,730.6z"/>
	</g>
	<g>
		<path d="M339.7,525.1l-15.4-9.1l15.6-8.8L339.7,525.1z M328.3,516l9.4,5.6l0.1-10.9L328.3,516z"/>
	</g>
	<g>
		<path d="M255.3,553.2l0.3-17.9l15.3,9.2L255.3,553.2z M257.6,538.8l-0.2,10.9l9.6-5.3L257.6,538.8z"/>
	</g>
	<g>
		<path d="M117.5,512.5l-13.6-11.6l16.9-5.9L117.5,512.5z M107.8,501.6l8.3,7.1l2-10.8L107.8,501.6z"/>
	</g>
</g>
<g>
	<g>
		<path d="M207.4,891.4l-15.1-9.5l15.8-8.3L207.4,891.4z M196.3,882l9.3,5.8l0.4-10.9L196.3,882z"/>
	</g>
	<g>
		<path d="M341.5,956.5l2.9-17.6l13.8,11.3L341.5,956.5z M345.8,942.6l-1.8,10.8l10.2-3.9L345.8,942.6z"/>
	</g>
	<g>
		<path d="M248.8,986.4l-16.2-7.6l14.7-10.2L248.8,986.4z M236.6,978.5l9.9,4.6l-0.9-10.9L236.6,978.5z"/>
	</g>
	<g>
		<path d="M61.5,943.3l4.3-17.4l12.9,12.4L61.5,943.3z M66.9,929.8l-2.6,10.6l10.5-3.1L66.9,929.8z"/>
	</g>
	<g>
		<path d="M484.5,1022.3l-15.1-9.5l15.8-8.4L484.5,1022.3z M473.4,1012.9l9.3,5.8l0.4-10.9L473.4,1012.9z"/>
	</g>
	<g>
		<path d="M-7.6,889.4l3.8-17.5l13.2,12L-7.6,889.4z M-2.6,875.7l-2.3,10.7L5.5,883L-2.6,875.7z"/>
	</g>
	<g>
		<path d="M491.3,905.7l-7.4-16.3l17.8,1.8L491.3,905.7z M487.2,891.7l4.5,10l6.4-8.9L487.2,891.7z"/>
	</g>
	<g>
		<path d="M646.4,842.4l-16.5-6.9l14.2-10.9L646.4,842.4z M633.8,835l10.1,4.2l-1.4-10.9L633.8,835z"/>
	</g>
	<g>
		<path d="M532.5,929.4l4.9-17.2l12.5,12.8L532.5,929.4z M538.3,916l-3,10.5l10.6-2.7L538.3,916z"/>
	</g>
	<g>
		<path d="M506.4,817.9L492,807.4l16.4-7.2L506.4,817.9z M495.9,807.8l8.8,6.5l1.2-10.9L495.9,807.8z"/>
	</g>
	<g>
		<path d="M651.3,1007.1l1.8-17.8l14.5,10.5L651.3,1007.1z M654.7,992.9l-1.1,10.9l10-4.5L654.7,992.9z"/>
	</g>
	<g>
		<path d="M774.2,922.9l-17.1-5.1l13-12.3L774.2,922.9z M760.9,916.9l10.5,3.1l-2.5-10.7L760.9,916.9z"/>
	</g>
	<g>
		<path d="M922,848.6l-13.5-11.8l16.9-5.8L922,848.6z M912.5,837.6l8.2,7.2l2.1-10.7L912.5,837.6z"/>
	</g>
	<g>
		<path d="M826.7,808.1l4.1-17.4l13,12.3L826.7,808.1z M832,794.6l-2.5,10.7l10.5-3.1L832,794.6z"/>
	</g>
	<g>
		<path d="M937.4,992.4l-12.3-13l17.4-4.2L937.4,992.4z M928.9,980.6l7.5,7.9l3.1-10.5L928.9,980.6z"/>
	</g>
	<g>
		<path d="M780.6,1005.6l4.7-17.2l12.6,12.7L780.6,1005.6z M786.3,992.3l-2.9,10.6l10.6-2.8L786.3,992.3z"/>
	</g>
	<g>
		<path d="M1131.4,890l-17.2-4.7l12.7-12.6L1131.4,890z M1118,884.3l10.6,2.9l-2.8-10.6L1118,884.3z"/>
	</g>
	<g>
		<path d="M1074.2,1030.2l-2.8-17.7l16.7,6.4L1074.2,1030.2z M1073.9,1015.6l1.7,10.8l8.5-6.9L1073.9,1015.6z"/>
	</g>
	<g>
		<path d="M1066.2,968.1L1049,963l13-12.3L1066.2,968.1z M1052.9,962.1l10.5,3.1l-2.6-10.6L1052.9,962.1z"/>
	</g>
	<g>
		<path d="M1174.1,798.2l-15.3-9.2l15.7-8.6L1174.1,798.2z M1162.8,789l9.4,5.7l0.2-10.9L1162.8,789z"/>
	</g>
	<g>
		<path d="M860.3,1083.4l-5.1-17.1l17.4,4.1L860.3,1083.4z M858.1,1069l3.1,10.5l7.5-8L858.1,1069z"/>
	</g>
	<g>
		<path d="M1014.8,789.2l-17.6-3l11.4-13.8L1014.8,789.2z M1000.9,784.8l10.8,1.8l-3.8-10.3L1000.9,784.8z"/>
	</g>
	<g>
		<path d="M1275.5,901.5l-6.1-16.8l17.6,3.1L1275.5,901.5z M1272.5,887.3l3.7,10.3l7-8.4L1272.5,887.3z"/>
	</g>
	<g>
		<path d="M1320,865l-16.1-7.7l14.8-10.1L1320,865z M1307.9,857l9.9,4.7l-0.8-10.9L1307.9,857z"/>
	</g>
	<g>
		<path d="M1190.6,983l5.4-17l12.1,13.2L1190.6,983z M1196.8,969.8l-3.3,10.4l10.7-2.4L1196.8,969.8z"/>
	</g>
	<g>
		<path d="M1402.4,967.5l-15.3-9.2l15.6-8.7L1402.4,967.5z M1391,958.3l9.4,5.6l0.2-10.9L1391,958.3z"/>
	</g>
	<g>
		<path d="M1527.7,838.3l-16-7.9l14.9-9.9L1527.7,838.3z M1515.7,830.1l9.8,4.9l-0.7-10.9L1515.7,830.1z"/>
	</g>
	<g>
		<path d="M1374.1,784.3l6.2-16.8l11.4,13.8L1374.1,784.3z M1381,771.5l-3.8,10.3l10.8-1.8L1381,771.5z"/>
	</g>
	<g>
		<path d="M1305.7,1060.9l-14.8-10.1l16.1-7.8L1305.7,1060.9z M1294.9,1051.1l9.1,6.2l0.8-10.9L1294.9,1051.1z"/>
	</g>
	<g>
		<path d="M1482.8,1002.5l-13.5-11.7l16.9-5.9L1482.8,1002.5z M1473.2,991.6l8.3,7.2l2.1-10.8L1473.2,991.6z"/>
	</g>
	<g>
		<path d="M1590.1,940.3l8.6-15.7l9.2,15.3L1590.1,940.3z M1598.8,928.7l-5.3,9.6l10.9-0.2L1598.8,928.7z"/>
	</g>
	<g>
		<path d="M271.2,757.7l7.3-16.3l10.5,14.5L271.2,757.7z M278.9,745.4l-4.5,10l10.9-1.1L278.9,745.4z"/>
	</g>
	<g>
		<path d="M86.5,1057.4l-4.5-17.3l17.2,4.8L86.5,1057.4z M84.9,1043l2.7,10.6l7.8-7.7L84.9,1043z"/>
	</g>
	<g>
		<path d="M339.7,837.5l-15.4-9.1l15.6-8.8L339.7,837.5z M328.3,828.4l9.4,5.6l0.1-10.9L328.3,828.4z"/>
	</g>
	<g>
		<path d="M255.3,865.6l0.3-17.9L271,857L255.3,865.6z M257.6,851.2l-0.2,10.9l9.6-5.3L257.6,851.2z"/>
	</g>
	<g>
		<path d="M117.5,824.9l-13.6-11.6l16.9-5.9L117.5,824.9z M107.8,814l8.3,7.1l2-10.8L107.8,814z"/>
	</g>
</g>
<g>
	<g>
		<path d="M35.7,270.9l-15.1-9.5l15.8-8.3L35.7,270.9z M24.5,261.5l9.3,5.8l0.4-10.9L24.5,261.5z"/>
	</g>
	<g>
		<path d="M169.7,335.9l2.9-17.6l13.8,11.3L169.7,335.9z M174,322l-1.8,10.8l10.2-3.9L174,322z"/>
	</g>
	<g>
		<path d="M77,365.9l-16.2-7.6l14.7-10.2L77,365.9z M64.8,358l9.9,4.6l-0.9-10.9L64.8,358z"/>
	</g>
	<g>
		<path d="M1540.8,322.8l4.3-17.4l12.9,12.4L1540.8,322.8z M1546.2,309.3l-2.6,10.6l10.5-3.1L1546.2,309.3z"/>
	</g>
	<g>
		<path d="M312.8,401.8l-15.1-9.5l15.8-8.4L312.8,401.8z M301.6,392.4l9.3,5.8l0.4-10.9L301.6,392.4z"/>
	</g>
	<g>
		<path d="M1471.7,268.8l3.8-17.5l13.2,12L1471.7,268.8z M1476.7,255.2l-2.3,10.7l10.4-3.3L1476.7,255.2z"/>
	</g>
	<g>
		<path d="M319.5,285.2l-7.4-16.3l17.8,1.8L319.5,285.2z M315.4,271.2l4.5,10l6.4-8.9L315.4,271.2z"/>
	</g>
	<g>
		<path d="M474.6,221.9l-16.5-6.9l14.2-10.9L474.6,221.9z M462.1,214.5l10.1,4.2l-1.4-10.9L462.1,214.5z"/>
	</g>
	<g>
		<path d="M360.7,308.8l4.9-17.2l12.5,12.8L360.7,308.8z M366.6,295.5l-3,10.5l10.6-2.7L366.6,295.5z"/>
	</g>
	<g>
		<path d="M334.7,197.4l-14.4-10.6l16.4-7.2L334.7,197.4z M324.2,187.3l8.8,6.5l1.2-10.9L324.2,187.3z"/>
	</g>
	<g>
		<path d="M479.5,386.5l1.8-17.8l14.5,10.5L479.5,386.5z M483,372.4l-1.1,10.9l10-4.5L483,372.4z"/>
	</g>
	<g>
		<path d="M602.4,302.3l-17.1-5.1l13-12.3L602.4,302.3z M589.2,296.3l10.5,3.1l-2.5-10.7L589.2,296.3z"/>
	</g>
	<g>
		<path d="M750.3,228l-13.5-11.8l16.9-5.8L750.3,228z M740.8,217l8.2,7.2l2.1-10.7L740.8,217z"/>
	</g>
	<g>
		<path d="M655,187.6l4.1-17.4l13,12.3L655,187.6z M660.3,174l-2.5,10.7l10.5-3.1L660.3,174z"/>
	</g>
	<g>
		<path d="M765.6,371.9l-12.3-13l17.4-4.2L765.6,371.9z M757.2,360l7.5,7.9l3.1-10.5L757.2,360z"/>
	</g>
	<g>
		<path d="M608.8,385.1l4.7-17.2l12.6,12.7L608.8,385.1z M614.6,371.7l-2.9,10.6l10.6-2.8L614.6,371.7z"/>
	</g>
	<g>
		<path d="M959.6,269.5l-17.2-4.7l12.7-12.6L959.6,269.5z M946.2,263.7l10.6,2.9L954,256L946.2,263.7z"/>
	</g>
	<g>
		<path d="M902.5,409.6l-2.8-17.7l16.7,6.4L902.5,409.6z M902.2,395.1l1.7,10.8l8.5-6.9L902.2,395.1z"/>
	</g>
	<g>
		<path d="M894.4,347.5l-17.1-5.1l13-12.3L894.4,347.5z M881.2,341.5l10.5,3.1l-2.6-10.6L881.2,341.5z"/>
	</g>
	<g>
		<path d="M1002.4,177.7l-15.3-9.2l15.7-8.6L1002.4,177.7z M991.1,168.5l9.4,5.7l0.2-10.9L991.1,168.5z"/>
	</g>
	<g>
		<path d="M688.5,462.8l-5.1-17.1l17.4,4.1L688.5,462.8z M686.4,448.5l3.1,10.5l7.5-8L686.4,448.5z"/>
	</g>
	<g>
		<path d="M843,168.7l-17.6-3l11.4-13.8L843,168.7z M829.2,164.3l10.8,1.8l-3.8-10.3L829.2,164.3z"/>
	</g>
	<g>
		<path d="M1103.8,280.9l-6.1-16.8l17.6,3.1L1103.8,280.9z M1100.7,266.7l3.7,10.3l7-8.4L1100.7,266.7z"/>
	</g>
	<g>
		<path d="M1148.3,244.5l-16.1-7.7l14.8-10.1L1148.3,244.5z M1136.1,236.5l9.9,4.7l-0.8-10.9L1136.1,236.5z"/>
	</g>
	<g>
		<path d="M1018.8,362.4l5.4-17l12.1,13.2L1018.8,362.4z M1025.1,349.3l-3.3,10.4l10.7-2.4L1025.1,349.3z"/>
	</g>
	<g>
		<path d="M1230.6,346.9l-15.3-9.2l15.6-8.7L1230.6,346.9z M1219.3,337.8l9.4,5.6l0.2-10.9L1219.3,337.8z"/>
	</g>
	<g>
		<path d="M1356,217.7l-16-7.9l14.9-9.9L1356,217.7z M1344,209.5l9.8,4.9l-0.7-10.9L1344,209.5z"/>
	</g>
	<g>
		<path d="M1202.4,163.8l6.2-16.8l11.4,13.8L1202.4,163.8z M1209.3,150.9l-3.8,10.3l10.8-1.8L1209.3,150.9z"/>
	</g>
	<g>
		<path d="M1134,440.3l-14.8-10.1l16.1-7.8L1134,440.3z M1123.2,430.6l9.1,6.2l0.8-10.9L1123.2,430.6z"/>
	</g>
	<g>
		<path d="M1311.1,382l-13.5-11.7l16.9-5.9L1311.1,382z M1301.5,371l8.3,7.2l2.1-10.8L1301.5,371z"/>
	</g>
	<g>
		<path d="M1418.4,319.8l8.6-15.7l9.2,15.3L1418.4,319.8z M1427.1,308.1l-5.3,9.6l10.9-0.2L1427.1,308.1z"/>
	</g>
	<g>
		<path d="M99.4,137.2l7.3-16.3l10.5,14.5L99.4,137.2z M107.1,124.8l-4.5,10l10.9-1.1L107.1,124.8z"/>
	</g>
	<g>
		<path d="M1565.8,436.9l-4.5-17.3l17.2,4.8L1565.8,436.9z M1564.1,422.4l2.7,10.6l7.8-7.7L1564.1,422.4z"/>
	</g>
	<g>
		<path d="M167.9,216.9l-15.4-9.1l15.6-8.8L167.9,216.9z M156.5,207.9l9.4,5.6l0.1-10.9L156.5,207.9z"/>
	</g>
	<g>
		<path d="M83.6,245.1l0.3-17.9l15.3,9.2L83.6,245.1z M85.8,230.7l-0.2,10.9l9.6-5.3L85.8,230.7z"/>
	</g>
	<g>
		<path d="M1596.7,204.4l-13.6-11.6l16.9-5.9L1596.7,204.4z M1587.1,193.5l8.3,7.1l2-10.8L1587.1,193.5z"/>
	</g>
</g>
</svg>
