<svg enable-background="new 0 0 1600 1200" viewBox="0 0 1600 1200" xmlns="http://www.w3.org/2000/svg"><g fill="none" stroke="#000" stroke-miterlimit="10" stroke-width="2"><path d="m224.7 501.9 15 15"/><path d="m365.9 605.2 16-14"/><path d="m328 537.8 20.9 3.9"/><path d="m206.4 610.9 12.5-17.1"/><path d="m598.1 556.5-9-19.2"/><path d="m545.6 446.4 15-15"/><path d="m505.1 592.6 21.1-1.5"/><path d="m-7.9 470.4h21.2"/><path d="m265 663.1 18.3 10.6"/><path d="m60 703 17.3-12.3"/><path d="m441 512 14.3 15.7"/><path d="m146.6 563.3 21.1-2.8"/><path d="m70.2 504.9 15 15"/><path d="m346.1 751.1-11.9 17.5"/><path d="m456.7 690.7 18.4 10.6"/><path d="m669.4 598-14 15.9"/><path d="m743.5 644.1-21.2 1.8"/><path d="m637.6 722.4-7.4-19.9"/><path d="m926.1 486.7-8.4 19.5"/><path d="m884.4 578-21.1 2"/><path d="m934.1 649.2-15.4-14.5"/><path d="m1109.6 602.7-18.4 10.6"/><path d="m1040 729.3-20.2 6.3"/><path d="m834.5 708.6v21.2"/><path d="m1032.8 532.7 15 15"/><path d="m1080 529.1 7.7-19.8"/><path d="m1165 685.3 19.8 7.6"/><path d="m1471.9 550.5 20-7.2"/><path d="m1028.1 471.8 21-3.1"/><path d="m1410.4 497.2 5-20.6"/><path d="m1513.6 679.7-18.4-10.6"/><path d="m1526.5 629.8 9.8-18.8"/><path d="m1586.9 536.1 21-2.4"/><path d="m1271.8 496.4 13.2-16.6"/><path d="m1270.9 588.7 21-3.2"/><path d="m1345.5 655 15.8 14.1"/><path d="m1308.8 748.1 7.5 19.9"/><path d="m794.4 515.9-21-2.8"/><path d="m224.7 171.9 15 15"/><path d="m365.9 275.2 16-14"/><path d="m328 207.8 20.9 3.9"/><path d="m206.4 280.9 12.5-17.1"/><path d="m598.1 226.5-9-19.2"/><path d="m545.6 116.4 15-15"/><path d="m505.1 262.6 21.1-1.5"/><path d="m-7.9 140.4h21.2"/><path d="m265 333.1 18.3 10.6"/><path d="m60 373 17.3-12.3"/><path d="m441 182 14.3 15.7"/><path d="m146.6 233.3 21.1-2.8"/><path d="m70.2 174.9 15 15"/><path d="m346.1 421.1-11.9 17.5"/><path d="m456.7 360.7 18.4 10.6"/><path d="m669.4 268-14 15.9"/><path d="m743.5 314.1-21.2 1.8"/><path d="m637.6 392.4-7.4-19.9"/><path d="m926.1 156.7-8.4 19.5"/><path d="m884.4 248-21.1 2"/><path d="m934.1 319.2-15.4-14.5"/><path d="m1109.6 272.7-18.4 10.6"/><path d="m1040 399.3-20.2 6.3"/><path d="m834.5 378.6v21.2"/><path d="m1032.8 202.7 15 15"/><path d="m1080 199.1 7.7-19.8"/><path d="m1165 355.3 19.8 7.6"/><path d="m1471.9 220.5 20-7.2"/><path d="m1028.1 141.8 21-3.1"/><path d="m1410.4 167.2 5-20.6"/><path d="m1513.6 349.7-18.4-10.6"/><path d="m1526.5 299.8 9.8-18.8"/><path d="m1586.9 206.1 21-2.4"/><path d="m1271.8 166.4 13.2-16.6"/><path d="m1270.9 258.7 21-3.2"/><path d="m1345.5 325 15.8 14.1"/><path d="m1308.8 418.1 7.5 19.9"/><path d="m794.4 185.9-21-2.8"/><path d="m224.7-158.1 15 15"/><path d="m365.9-54.8 16-14"/><path d="m328-122.2 20.9 3.9"/><path d="m206.4-49.1 12.5-17.1"/><path d="m598.1-103.5-9-19.2"/><path d="m545.6-213.6 15-15"/><path d="m505.1-67.4 21.1-1.5"/><path d="m-7.9-189.6h21.2"/><path d="m265 3.1 18.3 10.6"/><path d="m60 43 17.3-12.3"/><path d="m441-148 14.3 15.7"/><path d="m146.6-96.7 21.1-2.8"/><path d="m70.2-155.1 15 15"/><path d="m346.1 91.1-11.9 17.5"/><path d="m456.7 30.7 18.4 10.6"/><path d="m669.4-62-14 15.9"/><path d="m743.5-15.9-21.2 1.8"/><path d="m637.6 62.4-7.4-19.9"/><path d="m926.1-173.3-8.4 19.5"/><path d="m884.4-82-21.1 2"/><path d="m934.1-10.8-15.4-14.5"/><path d="m1109.6-57.3-18.4 10.6"/><path d="m1040 69.3-20.2 6.3"/><path d="m834.5 48.6v21.2"/><path d="m1032.8-127.3 15 15"/><path d="m1080-130.9 7.7-19.8"/><path d="m1165 25.3 19.8 7.6"/><path d="m1471.9-109.5 20-7.2"/><path d="m1028.1-188.2 21-3.1"/><path d="m1410.4-162.8 5-20.6"/><path d="m1513.6 19.7-18.4-10.6"/><path d="m1526.5-30.2 9.8-18.8"/><path d="m1586.9-123.9 21-2.4"/><path d="m1271.8-163.6 13.2-16.6"/><path d="m1270.9-71.3 21-3.2"/><path d="m1345.5-5 15.8 14.1"/><path d="m1308.8 88.1 7.5 19.9"/><path d="m794.4-144.1-21-2.8"/><path d="m224.7 788 15 15"/><path d="m365.9 891.3 16-14"/><path d="m328 823.9 20.9 3.9"/><path d="m206.4 897 12.5-17.1"/><path d="m598.1 842.6-9-19.2"/><path d="m545.6 732.5 15-15"/><path d="m505.1 878.7 21.1-1.5"/><path d="m-7.9 756.5h21.2"/><path d="m265 949.2 18.3 10.6"/><path d="m60 989.1 17.3-12.3"/><path d="m441 798.1 14.3 15.7"/><path d="m146.6 849.4 21.1-2.8"/><path d="m70.2 791 15 15"/><path d="m346.1 1037.2-11.9 17.5"/><path d="m456.7 976.8 18.4 10.6"/><path d="m669.4 884.1-14 15.9"/><path d="m743.5 930.2-21.2 1.8"/><path d="m637.6 1008.5-7.4-19.9"/><path d="m926.1 772.8-8.4 19.5"/><path d="m884.4 864.1-21.1 2"/><path d="m934.1 935.3-15.4-14.5"/><path d="m1109.6 888.8-18.4 10.6"/><path d="m1040 1015.4-20.2 6.3"/><path d="m834.5 994.7v21.2"/><path d="m1032.8 818.8 15 15"/><path d="m1080 815.2 7.7-19.8"/><path d="m1165 971.4 19.8 7.6"/><path d="m1471.9 836.6 20-7.2"/><path d="m1410.4 783.3 5-20.6"/><path d="m1513.6 965.8-18.4-10.6"/><path d="m1526.5 915.9 9.8-18.8"/><path d="m1586.9 822.2 21-2.4"/><path d="m1271.8 782.5 13.2-16.6"/><path d="m1270.9 874.8 21-3.2"/><path d="m1345.5 941.1 15.8 14.1"/><path d="m1308.8 1034.2 7.5 19.9"/><path d="m794.4 802-21-2.8"/><path d="m224.7 1068 15 15"/><path d="m365.9 1171.3 16-14"/><path d="m328 1103.9 20.9 3.9"/><path d="m206.4 1177 12.5-17.1"/><path d="m598.1 1122.6-9-19.2"/><path d="m545.6 1012.5 15-15"/><path d="m505.1 1158.7 21.1-1.5"/><path d="m-7.9 1036.5h21.2"/><path d="m265 1229.2 18.3 10.6"/><path d="m60 1269.1 17.3-12.3"/><path d="m441 1078.1 14.3 15.7"/><path d="m146.6 1129.4 21.1-2.8"/><path d="m70.2 1071 15 15"/><path d="m346.1 1317.2-11.9 17.5"/><path d="m456.7 1256.8 18.4 10.6"/><path d="m669.4 1164.1-14 15.9"/><path d="m743.5 1210.2-21.2 1.8"/><path d="m637.6 1288.5-7.4-19.9"/><path d="m926.1 1052.8-8.4 19.5"/><path d="m884.4 1144.1-21.1 2"/><path d="m934.1 1215.3-15.4-14.5"/><path d="m1109.6 1168.8-18.4 10.6"/><path d="m1040 1295.4-20.2 6.3"/><path d="m834.5 1274.7v21.2"/><path d="m1032.8 1098.8 15 15"/><path d="m1080 1095.2 7.7-19.8"/><path d="m1165 1251.4 19.8 7.6"/><path d="m1471.9 1116.6 20-7.2"/><path d="m1410.4 1063.3 5-20.6"/><path d="m1513.6 1245.8-18.4-10.6"/><path d="m1526.5 1195.9 9.8-18.8"/><path d="m1586.9 1102.2 21-2.4"/><path d="m1271.8 1062.5 13.2-16.6"/><path d="m1270.9 1154.8 21-3.2"/><path d="m1345.5 1221.1 15.8 14.1"/><path d="m1308.8 1314.2 7.5 19.9"/><path d="m794.4 1082-21-2.8"/></g></svg>