<?xml version="1.0" encoding="utf-8"?>
<!-- Generator: Adobe Illustrator 19.2.1, SVG Export Plug-In . SVG Version: 6.00 Build 0)  -->
<svg version="1.1" id="Calque_1" xmlns="http://www.w3.org/2000/svg" xmlns:xlink="http://www.w3.org/1999/xlink" x="0px" y="0px"
	 viewBox="0 0 1600 1200" style="enable-background:new 0 0 1600 1200;" xml:space="preserve">
<g>
	<rect x="521.7" y="530.6" transform="matrix(0.6156 -0.788 0.788 0.6156 -219.1491 619.5063)" width="7.7" height="7.7"/>
	
		<rect x="611.9" y="590.6" transform="matrix(0.9983 5.872202e-002 -5.872202e-002 0.9983 35.9675 -35.129)" width="7.7" height="7.7"/>
	<rect x="415.4" y="629.9" transform="matrix(0.3162 -0.9487 0.9487 0.3162 -314.5353 831.0184)" width="7.7" height="7.7"/>
	<rect x="439.3" y="600.4" transform="matrix(0.7071 -0.7071 0.7071 0.7071 -297.459 490.3419)" width="7.7" height="7.7"/>
	<rect x="294.7" y="569.1" transform="matrix(0.1104 -0.9939 0.9939 0.1104 -303.8162 806.4029)" width="7.7" height="7.7"/>
	<rect x="849.5" y="657.9" transform="matrix(0.7071 -0.7071 0.7071 0.7071 -217.9745 797.2083)" width="7.7" height="7.7"/>
	<rect x="902.8" y="591.6" transform="matrix(0.2747 -0.9615 0.9615 0.2747 85.1014 1303.6002)" width="7.7" height="7.7"/>
	<rect x="1092.9" y="590.2" transform="matrix(0.5661 -0.8243 0.8243 0.5661 -13.7963 1161.7665)" width="7.7" height="7.7"/>
	<rect x="919.5" y="619.6" transform="matrix(4.512752e-011 -1 1 4.512752e-011 299.9412 1546.7378)" width="7.7" height="7.7"/>
	<rect x="1135.7" y="499.1" transform="matrix(-0.9289 -0.3702 0.3702 -0.9289 2011.8298 1391.9371)" width="7.7" height="7.7"/>
	
		<rect x="929.5" y="456.9" transform="matrix(-0.9989 -4.756515e-002 4.756515e-002 -0.9989 1843.6858 965.3178)" width="7.7" height="7.7"/>
	<rect x="1055.6" y="755.5" transform="matrix(-0.583 0.8125 -0.8125 -0.583 2294.0955 341.3598)" width="7.7" height="7.7"/>
	<rect x="1225.2" y="609.8" transform="matrix(-0.8944 0.4472 -0.4472 -0.8944 2602.7319 612.7487)" width="7.7" height="7.7"/>
	<rect x="1210.2" y="635.8" transform="matrix(-0.1644 0.9864 -0.9864 -0.1644 2044.5109 -452.7901)" width="7.7" height="7.7"/>
	<rect x="1336.5" y="541.9" transform="matrix(-0.8838 0.4679 -0.4679 -0.8838 2780.2312 400.9026)" width="7.7" height="7.7"/>
	<rect x="1453.5" y="697.9" transform="matrix(-0.8838 0.4679 -0.4679 -0.8838 3073.6248 640.0307)" width="7.7" height="7.7"/>
	<rect x="1561.3" y="595.3" transform="matrix(-0.2467 0.9691 -0.9691 -0.2467 2531.8176 -769.8904)" width="7.7" height="7.7"/>
	<rect x="1397.5" y="488.9" transform="matrix(-0.7071 0.7071 -0.7071 -0.7071 2740.6245 -149.7585)" width="7.7" height="7.7"/>
	
		<rect x="665.5" y="691.9" transform="matrix(-9.480909e-002 0.9955 -0.9955 -9.480909e-002 1425.3755 95.3703)" width="7.7" height="7.7"/>
	<rect x="158.4" y="531.3" transform="matrix(0.4104 -0.9119 0.9119 0.4104 -392.3456 463.5314)" width="7.7" height="7.7"/>
	<rect x="215.5" y="628" transform="matrix(-0.6139 -0.7894 0.7894 -0.6139 -144.7099 1192.9537)" width="7.7" height="7.7"/>
	<rect x="349.1" y="511.1" transform="matrix(-0.9487 -0.3162 0.3162 -0.9487 524.8862 1114.9824)" width="7.7" height="7.7"/>
	
		<rect x="619.8" y="663" transform="matrix(-0.9986 -5.255883e-002 5.255883e-002 -0.9986 1211.436 1365.5798)" width="7.7" height="7.7"/>
	<rect x="236.7" y="483.4" transform="matrix(-0.866 0.5 -0.5 -0.866 692.5173 788.988)" width="7.7" height="7.7"/>
	<rect x="23.4" y="550.2" transform="matrix(-0.7793 0.6267 -0.6267 -0.7793 395.5711 968.7202)" width="7.7" height="7.7"/>
	
		<rect x="111.9" y="684.3" transform="matrix(-0.995 -9.961788e-002 9.961788e-002 -0.995 162.3645 1384.3203)" width="7.7" height="7.7"/>
	<rect x="60.5" y="431.9" transform="matrix(-0.3417 0.9398 -0.9398 -0.3417 495.8013 524.1726)" width="7.7" height="7.7"/>
	<rect x="358.5" y="714.9" transform="matrix(0.1104 0.9939 -0.9939 0.1104 1036.6426 279.2409)" width="7.7" height="7.7"/>
	<rect x="721.5" y="488.9" transform="matrix(0.6743 0.7385 -0.7385 0.6743 600.1302 -375.1495)" width="7.7" height="7.7"/>
	<rect x="-38.9" y="685.6" transform="matrix(0.6743 0.7385 -0.7385 0.6743 497.7415 250.4909)" width="7.7" height="7.7"/>
</g>
<g>
	<rect x="427.2" y="-81.6" transform="matrix(0.6156 -0.788 0.788 0.6156 226.9756 309.7166)" width="7.7" height="7.7"/>
	
		<rect x="475.6" y="37.1" transform="matrix(0.9983 5.872202e-002 -5.872202e-002 0.9983 3.2321 -28.0808)" width="7.7" height="7.7"/>
	<rect x="320.9" y="17.6" transform="matrix(0.3162 -0.9487 0.9487 0.3162 201.6513 322.7339)" width="7.7" height="7.7"/>
	<rect x="397.2" y="21.8" transform="matrix(0.7071 -0.7071 0.7071 0.7071 99.3591 291.0434)" width="7.7" height="7.7"/>
	<rect x="200.2" y="-43.1" transform="matrix(0.1104 -0.9939 0.9939 0.1104 220.5935 167.8524)" width="7.7" height="7.7"/>
	<rect x="730.6" y="83.2" transform="matrix(0.7071 -0.7071 0.7071 0.7071 153.587 544.7918)" width="7.7" height="7.7"/>
	<rect x="683.2" y="31.2" transform="matrix(0.2747 -0.9615 0.9615 0.2747 464.6133 685.9517)" width="7.7" height="7.7"/>
	<rect x="1014.5" y="48.2" transform="matrix(0.5661 -0.8243 0.8243 0.5661 398.9662 862.002)" width="7.7" height="7.7"/>
	<rect x="861.2" y="57.2" transform="matrix(4.512752e-011 -1 1 4.512752e-011 804 926)" width="7.7" height="7.7"/>
	<rect x="1041.2" y="-113.2" transform="matrix(-0.9289 -0.3702 0.3702 -0.9289 2056.1965 175.9978)" width="7.7" height="7.7"/>
	
		<rect x="835" y="-155.3" transform="matrix(-0.9989 -4.756515e-002 4.756515e-002 -0.9989 1683.8931 -262.9398)" width="7.7" height="7.7"/>
	<rect x="961.1" y="143.3" transform="matrix(-0.583 0.8125 -0.8125 -0.583 1647.0762 -551.0258)" width="7.7" height="7.7"/>
	<rect x="1130.7" y="-2.5" transform="matrix(-0.8944 0.4472 -0.4472 -0.8944 2149.8926 -504.8056)" width="7.7" height="7.7"/>
	<rect x="1155.2" y="79.2" transform="matrix(-0.1644 0.9864 -0.9864 -0.1644 1431.4092 -1046.5854)" width="7.7" height="7.7"/>
	<rect x="1242" y="-70.3" transform="matrix(-0.8838 0.4679 -0.4679 -0.8838 2315.7402 -708.1841)" width="7.7" height="7.7"/>
	<rect x="1359" y="85.7" transform="matrix(-0.8838 0.4679 -0.4679 -0.8838 2609.1338 -469.0561)" width="7.7" height="7.7"/>
	<rect x="1466.8" y="-16.9" transform="matrix(-0.2467 0.9691 -0.9691 -0.2467 1820.6838 -1441.5339)" width="7.7" height="7.7"/>
	<rect x="1303" y="-123.3" transform="matrix(-0.7071 0.7071 -0.7071 -0.7071 2146.3752 -1128.0675)" width="7.7" height="7.7"/>
	
		<rect x="573.2" y="131.2" transform="matrix(-9.480909e-002 0.9955 -0.9955 -9.480909e-002 766.0967 -426.6017)" width="7.7" height="7.7"/>
	<rect x="63.9" y="-80.9" transform="matrix(0.4104 -0.9119 0.9119 0.4104 110.2314 16.3544)" width="7.7" height="7.7"/>
	<rect x="121" y="15.8" transform="matrix(-0.6139 -0.7894 0.7894 -0.6139 186.0194 130.2529)" width="7.7" height="7.7"/>
	<rect x="254.6" y="-101.2" transform="matrix(-0.9487 -0.3162 0.3162 -0.9487 534.319 -107.942)" width="7.7" height="7.7"/>
	
		<rect x="535.5" y="91.1" transform="matrix(-0.9986 -5.255883e-002 5.255883e-002 -0.9986 1073.0173 218.1673)" width="7.7" height="7.7"/>
	<rect x="142.2" y="-128.8" transform="matrix(-0.866 0.5 -0.5 -0.866 210.045 -306.1891)" width="7.7" height="7.7"/>
	<rect x="-71.2" y="-62" transform="matrix(-0.7793 0.6267 -0.6267 -0.7793 -156.2632 -61.3704)" width="7.7" height="7.7"/>
	<rect x="17.4" y="72" transform="matrix(-0.995 -9.961788e-002 9.961788e-002 -0.995 34.803 153.4956)" width="7.7" height="7.7"/>
	<rect x="-34" y="-180.3" transform="matrix(-0.3417 0.9398 -0.9398 -0.3417 -206.3746 -208.4594)" width="7.7" height="7.7"/>
	<rect x="264" y="102.7" transform="matrix(0.1104 0.9939 -0.9939 0.1104 344.0862 -171.4453)" width="7.7" height="7.7"/>
	<rect x="627" y="-123.3" transform="matrix(0.6743 0.7385 -0.7385 0.6743 117.2241 -504.7764)" width="7.7" height="7.7"/>
	<rect x="-133.4" y="73.4" transform="matrix(0.6743 0.7385 -0.7385 0.6743 14.8354 120.8641)" width="7.7" height="7.7"/>
</g>
<g>
	<rect x="427.2" y="1081.7" transform="matrix(0.6156 -0.788 0.788 0.6156 -689.7799 756.8607)" width="7.7" height="7.7"/>
	
		<rect x="475.6" y="1200.5" transform="matrix(0.9983 5.872202e-002 -5.872202e-002 0.9983 71.5469 -26.0733)" width="7.7" height="7.7"/>
	<rect x="320.9" y="1181" transform="matrix(0.3162 -0.9487 0.9487 0.3162 -902.0082 1118.2067)" width="7.7" height="7.7"/>
	<rect x="397.2" y="1185.1" transform="matrix(0.7071 -0.7071 0.7071 0.7071 -723.2601 631.7834)" width="7.7" height="7.7"/>
	<rect x="200.2" y="1120.2" transform="matrix(0.1104 -0.9939 0.9939 0.1104 -935.6503 1202.7401)" width="7.7" height="7.7"/>
	<rect x="765.2" y="1156.6" transform="matrix(0.7071 -0.7071 0.7071 0.7071 -595.3027 883.6429)" width="7.7" height="7.7"/>
	<rect x="717.8" y="1104.6" transform="matrix(0.2747 -0.9615 0.9615 0.2747 -542.4178 1497.7312)" width="7.7" height="7.7"/>
	<rect x="1014.5" y="1211.5" transform="matrix(0.5661 -0.8243 0.8243 0.5661 -560.0253 1366.7717)" width="7.7" height="7.7"/>
	<rect x="895.8" y="1130.6" transform="matrix(4.512752e-011 -1 1 4.512752e-011 -234.8308 2034)" width="7.7" height="7.7"/>
	<rect x="1041.2" y="1050.2" transform="matrix(-0.9289 -0.3702 0.3702 -0.9289 1625.4747 2420.0437)" width="7.7" height="7.7"/>
	
		<rect x="835" y="1008" transform="matrix(-0.9989 -4.756515e-002 4.756515e-002 -0.9989 1628.5576 2062.4619)" width="7.7" height="7.7"/>
	<rect x="961.1" y="1306.7" transform="matrix(-0.583 0.8125 -0.8125 -0.583 2592.2532 1290.5997)" width="7.7" height="7.7"/>
	<rect x="1130.7" y="1160.9" transform="matrix(-0.8944 0.4472 -0.4472 -0.8944 2670.1628 1699.0939)" width="7.7" height="7.7"/>
	<rect x="1155.2" y="1242.5" transform="matrix(-0.1644 0.9864 -0.9864 -0.1644 2578.9397 308.0289)" width="7.7" height="7.7"/>
	<rect x="1242" y="1093" transform="matrix(-0.8838 0.4679 -0.4679 -0.8838 2860.0618 1483.338)" width="7.7" height="7.7"/>
	<rect x="1359" y="1249" transform="matrix(-0.8838 0.4679 -0.4679 -0.8838 3153.4553 1722.4661)" width="7.7" height="7.7"/>
	<rect x="1466.8" y="1146.4" transform="matrix(-0.2467 0.9691 -0.9691 -0.2467 2948.1006 8.7685)" width="7.7" height="7.7"/>
	<rect x="1303" y="1040" transform="matrix(-0.7071 0.7071 -0.7071 -0.7071 2968.9944 857.911)" width="7.7" height="7.7"/>
	
		<rect x="609.2" y="1143.2" transform="matrix(-9.480909e-002 0.9955 -0.9955 -9.480909e-002 1812.9513 645.5073)" width="7.7" height="7.7"/>
	<rect x="63.9" y="1082.5" transform="matrix(0.4104 -0.9119 0.9119 0.4104 -950.661 702.3121)" width="7.7" height="7.7"/>
	<rect x="121" y="1179.2" transform="matrix(-0.6139 -0.7894 0.7894 -0.6139 -732.2808 2007.8457)" width="7.7" height="7.7"/>
	<rect x="254.6" y="1062.2" transform="matrix(-0.9487 -0.3162 0.3162 -0.9487 166.4325 2159.0769)" width="7.7" height="7.7"/>
	
		<rect x="535.5" y="1254.5" transform="matrix(-0.9986 -5.255883e-002 5.255883e-002 -0.9986 1011.8725 2543.2778)" width="7.7" height="7.7"/>
	<rect x="142.2" y="1034.6" transform="matrix(-0.866 0.5 -0.5 -0.866 791.7247 1864.6689)" width="7.7" height="7.7"/>
	<rect x="-71.2" y="1101.3" transform="matrix(-0.7793 0.6267 -0.6267 -0.7793 572.7988 2008.5612)" width="7.7" height="7.7"/>
	
		<rect x="17.4" y="1235.4" transform="matrix(-0.995 -9.961788e-002 9.961788e-002 -0.995 -81.0884 2474.4272)" width="7.7" height="7.7"/>
	<rect x="-34" y="983" transform="matrix(-0.3417 0.9398 -0.9398 -0.3417 886.9428 1352.4698)" width="7.7" height="7.7"/>
	<rect x="264" y="1266" transform="matrix(0.1104 0.9939 -0.9939 0.1104 1500.3301 863.4424)" width="7.7" height="7.7"/>
	<rect x="627" y="1040" transform="matrix(0.6743 0.7385 -0.7385 0.6743 976.3481 -125.8346)" width="7.7" height="7.7"/>
	<rect x="-133.4" y="1236.8" transform="matrix(0.6743 0.7385 -0.7385 0.6743 873.9594 499.8058)" width="7.7" height="7.7"/>
</g>
<g>
	<rect x="604.8" y="228.3" transform="matrix(0.6156 -0.788 0.788 0.6156 51.0289 568.8115)" width="7.7" height="7.7"/>
	
		<rect x="695" y="288.3" transform="matrix(0.9983 5.872202e-002 -5.872202e-002 0.9983 18.3585 -40.5316)" width="7.7" height="7.7"/>
	<rect x="498.5" y="327.6" transform="matrix(0.3162 -0.9487 0.9487 0.3162 29.0997 703.1603)" width="7.7" height="7.7"/>
	<rect x="522.5" y="298.1" transform="matrix(0.7071 -0.7071 0.7071 0.7071 -59.3458 460.5716)" width="7.7" height="7.7"/>
	<rect x="377.9" y="266.8" transform="matrix(0.1104 -0.9939 0.9939 0.1104 70.5895 620.087)" width="7.7" height="7.7"/>
	<rect x="932.6" y="355.6" transform="matrix(0.7071 -0.7071 0.7071 0.7071 20.1386 767.438)" width="7.7" height="7.7"/>
	<rect x="986" y="289.2" transform="matrix(0.2747 -0.9615 0.9615 0.2747 436.0684 1164.2614)" width="7.7" height="7.7"/>
	<rect x="1176" y="287.8" transform="matrix(0.5661 -0.8243 0.8243 0.5661 271.4746 1099.1147)" width="7.7" height="7.7"/>
	<rect x="1002.6" y="317.3" transform="matrix(4.512752e-011 -1 1 4.512752e-011 685.375 1327.5454)" width="7.7" height="7.7"/>
	<rect x="1218.8" y="196.8" transform="matrix(-0.9289 -0.3702 0.3702 -0.9289 2284.0928 839.569)" width="7.7" height="7.7"/>
	
		<rect x="1012.6" y="154.6" transform="matrix(-0.9989 -4.756515e-002 4.756515e-002 -0.9989 2024.2126 364.9873)" width="7.7" height="7.7"/>
	<rect x="1138.7" y="453.2" transform="matrix(-0.583 0.8125 -0.8125 -0.583 2180.0618 -204.7409)" width="7.7" height="7.7"/>
	<rect x="1308.3" y="307.4" transform="matrix(-0.8944 0.4472 -0.4472 -0.8944 2624.9995 2.8658)" width="7.7" height="7.7"/>
	<rect x="1293.3" y="333.4" transform="matrix(-0.1644 0.9864 -0.9864 -0.1644 1843.0966 -886.7929)" width="7.7" height="7.7"/>
	<rect x="1419.6" y="239.6" transform="matrix(-0.8838 0.4679 -0.4679 -0.8838 2795.3643 -207.4823)" width="7.7" height="7.7"/>
	<rect x="1536.6" y="395.6" transform="matrix(-0.8838 0.4679 -0.4679 -0.8838 3088.7581 31.6457)" width="7.7" height="7.7"/>
	<rect x="1644.4" y="293" transform="matrix(-0.2467 0.9691 -0.9691 -0.2467 2342.467 -1227.3218)" width="7.7" height="7.7"/>
	<rect x="1480.6" y="186.6" transform="matrix(-0.7071 0.7071 -0.7071 -0.7071 2668.7527 -724.6145)" width="7.7" height="7.7"/>
	
		<rect x="748.6" y="389.6" transform="matrix(-9.480909e-002 0.9955 -0.9955 -9.480909e-002 1215.4254 -318.3512)" width="7.7" height="7.7"/>
	<rect x="241.6" y="229" transform="matrix(0.4104 -0.9119 0.9119 0.4104 -67.6488 361.0764)" width="7.7" height="7.7"/>
	<rect x="298.7" y="325.7" transform="matrix(-0.6139 -0.7894 0.7894 -0.6139 228.0735 770.6498)" width="7.7" height="7.7"/>
	<rect x="432.2" y="208.8" transform="matrix(-0.9487 -0.3162 0.3162 -0.9487 782.4619 552.1549)" width="7.7" height="7.7"/>
	
		<rect x="703" y="360.7" transform="matrix(-0.9986 -5.255883e-002 5.255883e-002 -0.9986 1393.4517 765.7401)" width="7.7" height="7.7"/>
	<rect x="319.8" y="181.1" transform="matrix(-0.866 0.5 -0.5 -0.866 696.4661 183.3037)" width="7.7" height="7.7"/>
	<rect x="106.5" y="247.9" transform="matrix(-0.7793 0.6267 -0.6267 -0.7793 354.0097 378.7325)" width="7.7" height="7.7"/>
	
		<rect x="195" y="382" transform="matrix(-0.995 -9.961788e-002 9.961788e-002 -0.995 358.3082 789.4781)" width="7.7" height="7.7"/>
	<rect x="143.6" y="129.6" transform="matrix(-0.3417 0.9398 -0.9398 -0.3417 323.216 40.4298)" width="7.7" height="7.7"/>
	<rect x="441.6" y="412.6" transform="matrix(0.1104 0.9939 -0.9939 0.1104 810.1201 -72.2997)" width="7.7" height="7.7"/>
	<rect x="804.6" y="186.6" transform="matrix(0.6743 0.7385 -0.7385 0.6743 403.9513 -535.0056)" width="7.7" height="7.7"/>
	<rect x="44.2" y="383.3" transform="matrix(0.6743 0.7385 -0.7385 0.6743 301.5626 90.6348)" width="7.7" height="7.7"/>
</g>
<g>
	<rect x="604.8" y="798.4" transform="matrix(0.6156 -0.788 0.788 0.6156 -398.2565 787.9489)" width="7.7" height="7.7"/>
	
		<rect x="695" y="858.4" transform="matrix(0.9983 5.872202e-002 -5.872202e-002 0.9983 51.8384 -39.5478)" width="7.7" height="7.7"/>
	<rect x="498.5" y="897.7" transform="matrix(0.3162 -0.9487 0.9487 0.3162 -511.784 1093.0072)" width="7.7" height="7.7"/>
	<rect x="522.5" y="868.2" transform="matrix(0.7071 -0.7071 0.7071 0.7071 -462.4967 627.5622)" width="7.7" height="7.7"/>
	<rect x="377.9" y="836.9" transform="matrix(0.1104 -0.9939 0.9939 0.1104 -496.0649 1127.2668)" width="7.7" height="7.7"/>
	<rect x="932.6" y="925.7" transform="matrix(0.7071 -0.7071 0.7071 0.7071 -383.0123 934.4286)" width="7.7" height="7.7"/>
	<rect x="986" y="859.4" transform="matrix(0.2747 -0.9615 0.9615 0.2747 -112.1363 1577.7729)" width="7.7" height="7.7"/>
	<rect x="1176" y="858" transform="matrix(0.5661 -0.8243 0.8243 0.5661 -198.5099 1346.4934)" width="7.7" height="7.7"/>
	<rect x="1002.6" y="887.4" transform="matrix(4.512752e-011 -1 1 4.512752e-011 115.2335 1897.6869)" width="7.7" height="7.7"/>
	<rect x="1218.8" y="766.9" transform="matrix(-0.9289 -0.3702 0.3702 -0.9289 2073.0037 1939.3356)" width="7.7" height="7.7"/>
	
		<rect x="1012.6" y="724.7" transform="matrix(-0.9989 -4.756515e-002 4.756515e-002 -0.9989 1997.0938 1504.625)" width="7.7" height="7.7"/>
	<rect x="1138.7" y="1023.4" transform="matrix(-0.583 0.8125 -0.8125 -0.583 2643.2761 697.8066)" width="7.7" height="7.7"/>
	<rect x="1308.3" y="877.6" transform="matrix(-0.8944 0.4472 -0.4472 -0.8944 2879.9744 1082.9574)" width="7.7" height="7.7"/>
	<rect x="1293.3" y="903.6" transform="matrix(-0.1644 0.9864 -0.9864 -0.1644 2405.4807 -222.9208)" width="7.7" height="7.7"/>
	<rect x="1419.6" y="809.7" transform="matrix(-0.8838 0.4679 -0.4679 -0.8838 3062.1265 866.5433)" width="7.7" height="7.7"/>
	<rect x="1536.6" y="965.7" transform="matrix(-0.8838 0.4679 -0.4679 -0.8838 3355.5203 1105.6714)" width="7.7" height="7.7"/>
	<rect x="1644.4" y="863.1" transform="matrix(-0.2467 0.9691 -0.9691 -0.2467 2894.9937 -516.5546)" width="7.7" height="7.7"/>
	<rect x="1480.6" y="756.7" transform="matrix(-0.7071 0.7071 -0.7071 -0.7071 3071.9036 248.6779)" width="7.7" height="7.7"/>
	
		<rect x="748.6" y="959.7" transform="matrix(-9.480909e-002 0.9955 -0.9955 -9.480909e-002 1782.9987 305.8449)" width="7.7" height="7.7"/>
	<rect x="241.6" y="799.2" transform="matrix(0.4104 -0.9119 0.9119 0.4104 -587.5731 697.252)" width="7.7" height="7.7"/>
	<rect x="298.7" y="895.9" transform="matrix(-0.6139 -0.7894 0.7894 -0.6139 -221.969 1690.8243)" width="7.7" height="7.7"/>
	<rect x="432.2" y="778.9" transform="matrix(-0.9487 -0.3162 0.3162 -0.9487 602.1672 1663.1802)" width="7.7" height="7.7"/>
	
		<rect x="703" y="930.9" transform="matrix(-0.9986 -5.255883e-002 5.255883e-002 -0.9986 1363.4857 1905.2351)" width="7.7" height="7.7"/>
	<rect x="319.8" y="751.3" transform="matrix(-0.866 0.5 -0.5 -0.866 981.5368 1247.2023)" width="7.7" height="7.7"/>
	<rect x="106.5" y="818" transform="matrix(-0.7793 0.6267 -0.6267 -0.7793 711.3098 1393.1688)" width="7.7" height="7.7"/>
	
		<rect x="195" y="952.1" transform="matrix(-0.995 -9.961788e-002 9.961788e-002 -0.995 301.512 1926.925)" width="7.7" height="7.7"/>
	<rect x="143.6" y="699.7" transform="matrix(-0.3417 0.9398 -0.9398 -0.3417 859.0313 805.4131)" width="7.7" height="7.7"/>
	<rect x="441.6" y="982.7" transform="matrix(0.1104 0.9939 -0.9939 0.1104 1376.7744 434.8802)" width="7.7" height="7.7"/>
	<rect x="804.6" y="756.7" transform="matrix(0.6743 0.7385 -0.7385 0.6743 824.9925 -349.2931)" width="7.7" height="7.7"/>
	<rect x="44.2" y="953.5" transform="matrix(0.6743 0.7385 -0.7385 0.6743 722.6038 276.3474)" width="7.7" height="7.7"/>
</g>
</svg>
