<svg xmlns="http://www.w3.org/2000/svg" viewBox="0 0 189.2 189.2"><path d="M158.4 142.4l7.1-2.1L125.9 5.6 39.1 31.1l2 6.8L34 40l2 6.8-7 2.1 2 6.9c-4.7 2.5-8 5.7-7.1 8.8s5.4 4 10.7 3.6l2.7 9.2c-4.7 2.5-8 5.7-7.1 8.8s5.4 4 10.7 3.6l2.7 9.2c-4.7 2.5-8 5.7-7.1 8.8s5.4 4 10.7 3.6l2.7 9.2c-4.7 2.5-8 5.7-7.1 8.8s5.4 4 10.7 3.6l2.7 9.2c-4.7 2.5-8 5.7-7.1 8.8s5.4 4 10.7 3.6l8.5 28.8 86.8-25.5-2-6.8 7.1-2.1zM123.3 10.3l37.4 127.5-79.5 23.4-5.9-20.2H77c.5 0 1 0 1.4.1 0 .3.1.6.2.9.7 2.2 3 3.5 5.2 2.9 2.2-.7 3.5-3 2.9-5.2-.7-2.2-3-3.5-5.2-2.9-.5.2-1 .4-1.4.7-1.7-.3-3.6-.3-5.8-.1L69 119.5h1.7c.5 0 1 0 1.4.1 0 .3.1.6.2.9.7 2.2 3 3.5 5.2 2.9s3.5-3 2.9-5.2c-.7-2.2-3-3.5-5.2-2.9-.5.2-1 .4-1.4.7-1.7-.3-3.6-.3-5.8-.1L62.7 98h1.7c.5 0 1 0 1.4.1 0 .3.1.6.2.9.7 2.2 3 3.5 5.2 2.9 2.2-.7 3.5-3 2.9-5.2-.7-2.2-3-3.5-5.2-2.9-.5.2-1 .4-1.4.7-1.7-.3-3.6-.3-5.8-.1l-5.3-17.9h1.7c.5 0 1 0 1.4.1 0 .3.1.6.2.9.7 2.2 3 3.5 5.2 2.9 2.2-.7 3.5-3 2.9-5.2-.7-2.2-3-3.5-5.2-2.9-.5.2-1 .4-1.4.7-1.7-.3-3.6-.3-5.8-.1L50.1 55h1.7c.5 0 1 0 1.4.1 0 .3.1.6.2.9.7 2.2 3 3.5 5.2 2.9 2.2-.7 3.5-3 2.9-5.2-.7-2.2-3-3.5-5.2-2.9-.5.2-1 .4-1.4.7-1.7-.3-3.6-.3-5.8-.1l-5-16.9zM52.4 76.4l5.3 18c-1.2.2-2.3.5-3.5.8l-5.3-18c1.2-.4 2.3-.6 3.5-.8zm-4.6-2.9l-5.3-18c1.2-.3 2.4-.5 3.5-.7l5.3 18c-1.2.1-2.3.4-3.5.7zM58.7 98l5.3 18c-1.2.2-2.3.5-3.5.8l-5.3-18c1.2-.3 2.4-.6 3.5-.8zm6.4 21.7l5.3 18c-1.2.2-2.3.5-3.5.8l-5.3-18c1.2-.4 2.3-.6 3.5-.8zm-23-78.1l2.8 9.5c-1.2.2-2.3.5-3.5.8l-2.7-9.3zM31.9 64.5c-3.2 0-4.3-.8-4.4-1 0-.2.5-1.4 3.2-3.2.4-.3.9-.6 1.4-.8l1.5 4.9c-.6.1-1.2.1-1.7.1zm2.6-10.4l-.8-2.7 3.4-1 .7 2.5-3.3 1.2zm3.8 32.1c-3.2 0-4.3-.8-4.4-1 0-.2.5-1.4 3.2-3.2.4-.3.9-.6 1.4-.8l1.5 4.9c-.7 0-1.2.1-1.7.1zm2.5-10.4l-5.3-18c1.1-.5 2.2-.9 3.3-1.3l5.3 18c-1.1.4-2.2.8-3.3 1.3zm3.8 32c-3.2 0-4.3-.8-4.4-1 0-.2.5-1.4 3.2-3.2.4-.3.9-.6 1.4-.8l1.5 4.9c-.6.1-1.2.1-1.7.1zm2.6-10.4l-5.3-18c1.1-.5 2.2-.9 3.3-1.3l5.3 18c-1.1.5-2.2.9-3.3 1.3zm3.8 32c-3.2 0-4.3-.8-4.4-1 0-.2.5-1.4 3.2-3.2.4-.3.9-.6 1.4-.8l1.5 4.9c-.7.1-1.2.2-1.7.1zm2.5-10.3l-5.3-18c1.1-.5 2.2-.9 3.3-1.3l5.3 18c-1.1.4-2.2.8-3.3 1.3zm3.8 32c-3.2 0-4.3-.8-4.4-1 0-.2.5-1.4 3.2-3.2.4-.3.9-.6 1.4-.8L59 151c-.6.1-1.1.1-1.7.1zm2.6-10.4l-5.3-18c1.1-.5 2.2-.9 3.3-1.3l5.3 18c-1.1.5-2.2.9-3.3 1.3zm11.2 38.2L61 144.4c1.1-.5 2.2-.9 3.3-1.3l9.3 31.6 76.1-22.4.9 3.2zm5.1-8.9L68 142.1c1.2-.3 2.4-.5 3.5-.7l7.2 24.5 76.1-22.4.9 3.2z"/><path d="M105.2 110.9c13.5 0 24.5-11 24.5-24.5s-11-24.5-24.5-24.5-24.5 11-24.5 24.5 11 24.5 24.5 24.5zm0-45.3c11.4 0 20.7 9.3 20.7 20.7s-9.3 20.7-20.7 20.7-20.7-9.3-20.7-20.7 9.3-20.7 20.7-20.7z"/><path d="M108.9 94.1c6.6 0 12-5.4 12-12s-5.4-12-12-12-12 5.4-12 12c0 6.7 5.4 12 12 12zm1.9-18.6c.9 0 1.7.2 2.3.7-.1-.2-.1-.4-.1-.7 0-.8.7-1.5 1.5-1.5s1.5.7 1.5 1.5-.7 1.5-1.5 1.5h-.4c.7.8 1.2 1.9 1.2 3.1 0 2.5-2 4.6-4.6 4.6-2.5 0-4.6-2-4.6-4.6.1-2.5 2.2-4.6 4.7-4.6z"/></svg>