<svg enable-background="new 0 0 189.2 189.2" viewBox="0 0 189.2 189.2" xmlns="http://www.w3.org/2000/svg"><path d="m102.2 71.2c0-5-2.8-7-9.1-7-6.4 0-9.1 3.6-9.1 12.3h-25.4c0-21.6 10.7-30.8 36-30.8s36 7.6 36 25.4c0 24.1-26.9 17.3-26.9 35.6h-22.4c0-28.2 20.9-21.3 20.9-35.5zm4.7 58.9c0 9.4-4.4 13.4-14.6 13.4-10.3 0-14.6-4-14.6-13.4 0-9.2 4.3-13.3 14.6-13.3s14.6 4 14.6 13.3z"/><path d="m94.6 171.6c-42.5 0-77-34.5-77-77s34.5-77 77-77 77 34.5 77 77-34.5 77-77 77zm0-148c-39.1 0-71 31.9-71 71s31.9 71 71 71 71-31.9 71-71-31.9-71-71-71z"/></svg>