<svg xmlns="http://www.w3.org/2000/svg" viewBox="0 0 85 85"><path fill="transparent" d="M0 0h85v85H0z" opacity=".95"/><path d="M20.9 23.3c2.4-.4 5.8-.8 10.5-.8 5 0 8.7 1.1 11.1 3.1 2.2 1.8 3.7 4.8 3.7 8.3 0 3.6-1.1 6.5-3.2 8.5-2.7 2.7-7 4-11.9 4-1.3 0-2.4-.1-3.3-.2v14.1H21v-37zm6.8 17.4c.8.3 1.9.3 3.3.3 5.1 0 8.2-2.5 8.2-6.9 0-4.2-2.9-6.4-7.6-6.4-1.9 0-3.2.2-4 .3v12.7zM48.2 54c1.6.9 4.5 1.9 7 1.9 3 0 4.3-1.2 4.3-3s-1.1-2.8-4.5-4c-5.3-1.8-7.5-4.7-7.5-7.9 0-4.8 4-8.5 10.2-8.5 3 0 5.6.8 7.2 1.6L63.7 39c-1.2-.7-3.3-1.6-5.7-1.6-2.4 0-3.8 1.2-3.8 2.8 0 1.7 1.3 2.6 4.7 3.8 4.9 1.8 7.2 4.3 7.2 8.3 0 4.9-3.8 8.5-11 8.5-3.3 0-6.2-.8-8.2-1.9l1.3-4.9z"/></svg>