<?xml version="1.0" encoding="utf-8"?>
<!-- Generator: Adobe Illustrator 19.2.1, SVG Export Plug-In . SVG Version: 6.00 Build 0)  -->
<svg version="1.1" id="Calque_1" xmlns="http://www.w3.org/2000/svg" xmlns:xlink="http://www.w3.org/1999/xlink" x="0px" y="0px"
	 viewBox="0 0 85 85" style="enable-background:new 0 0 85 85;" xml:space="preserve">
<style type="text/css">
	.st0{opacity:0.95;fill:#FFFFFF;}
</style>
<g>
	<rect class="st0" width="85" height="85"/>
	<g>
		<g>
			<path d="M30.1,49.7l-3.2,10.6h-7.1l12-37.5h8.7l12.2,37.5h-7.3L42,49.7H30.1z M40.8,44.6l-2.9-9.2c-0.7-2.3-1.3-4.8-1.9-7h-0.1
				c-0.6,2.2-1.1,4.8-1.8,7l-2.9,9.2H40.8z"/>
		</g>
	</g>
	<g>
		<g>
			<path d="M62.7,25.7c0,2.1-1.5,3.7-3.9,3.7c-2.3,0-3.8-1.6-3.8-3.7c0-2.1,1.6-3.7,3.8-3.7C61.2,22,62.7,23.6,62.7,25.7z
				 M55.4,60.4V33.3h6.9v27.1H55.4z"/>
		</g>
	</g>
</g>
</svg>
