<?xml version="1.0" encoding="utf-8"?>
<!-- Generator: Adobe Illustrator 19.2.1, SVG Export Plug-In . SVG Version: 6.00 Build 0)  -->
<svg version="1.1" id="Calque_1" xmlns="http://www.w3.org/2000/svg" xmlns:xlink="http://www.w3.org/1999/xlink" x="0px" y="0px"
	 viewBox="0 0 85 85" style="enable-background:new 0 0 85 85;" xml:space="preserve">
<style type="text/css">
	.st0{opacity:0.95;fill:#FFFFFF;}
</style>
<g>
	<rect class="st0" width="85" height="85"/>
	<g>
		<g>
			<path d="M20.9,23.3c2.4-0.4,5.8-0.8,10.5-0.8c5,0,8.7,1.1,11.1,3.1c2.2,1.8,3.7,4.8,3.7,8.3c0,3.6-1.1,6.5-3.2,8.5
				c-2.7,2.7-7,4-11.9,4c-1.3,0-2.4-0.1-3.3-0.2v14.1h-6.8V23.3z M27.7,40.7C28.5,41,29.6,41,31,41c5.1,0,8.2-2.5,8.2-6.9
				c0-4.2-2.9-6.4-7.6-6.4c-1.9,0-3.2,0.2-4,0.3V40.7z"/>
		</g>
	</g>
	<g>
		<g>
			<path d="M48.2,54c1.6,0.9,4.5,1.9,7,1.9c3,0,4.3-1.2,4.3-3c0-1.8-1.1-2.8-4.5-4c-5.3-1.8-7.5-4.7-7.5-7.9c0-4.8,4-8.5,10.2-8.5
				c3,0,5.6,0.8,7.2,1.6L63.7,39c-1.2-0.7-3.3-1.6-5.7-1.6c-2.4,0-3.8,1.2-3.8,2.8c0,1.7,1.3,2.6,4.7,3.8c4.9,1.8,7.2,4.3,7.2,8.3
				c0,4.9-3.8,8.5-11,8.5c-3.3,0-6.2-0.8-8.2-1.9L48.2,54z"/>
		</g>
	</g>
</g>
</svg>
