<?xml version="1.0" encoding="utf-8"?>
<!-- Generator: Adobe Illustrator 19.2.1, SVG Export Plug-In . SVG Version: 6.00 Build 0)  -->
<svg version="1.1" id="Calque_1" xmlns="http://www.w3.org/2000/svg" xmlns:xlink="http://www.w3.org/1999/xlink" x="0px" y="0px"
	 viewBox="0 0 141.7 141.7" style="enable-background:new 0 0 141.7 141.7;" xml:space="preserve">
<style type="text/css">
	.st0{fill:transparent;}
</style>
<polygon class="st0" points="81.6,54.6 74.7,54.6 74.7,54.6 74.7,40.7 74.7,40.7 74.7,27.1 74.7,26.8 60.7,26.8 60.7,27.1
	60.7,40.7 60.7,40.7 60.7,40.8 60.7,40.8 60.7,40.7 46.8,40.7 46.8,40.8 46.8,54.6 46.8,54.6 32.8,54.6 32.8,68.5 18.9,68.5
	18.9,82.5 32.8,82.5 32.8,82.5 32.8,96.2 32.8,96.4 46.7,96.4 46.7,96.2 46.8,96.2 46.8,96.4 46.8,110.3 60.7,110.3 60.7,124.2
	74.7,124.2 74.7,110.3 74.7,96.4 74.7,96.4 74.7,96.2 81.6,96.2 130.6,96.2 130.6,54.6 "/>
<path d="M122.9,53.6v-8.3H75.7V25.8h-8.7v-8v-0.3H53v0.3v13.6v0v0.1h0v-0.1H39.1v0.1v13.9v0H25v13.9H11.1v13.9h6.7v10.3l7.2,0v3.4
	v0.2h6.7v10.3h7.3v3.6h6.7v10.3H53v3.6h6.7v10.3h15.9v-28h55.9V53.6L122.9,53.6z M73.7,27.8v17.6h-6.7v0V31.4v0v-3.6H73.7z
	 M19.9,81.5v-8.3H25v0v8.3H19.9z M33.8,95.4v-8.3H39v-0.2h0.1v0.2v8.3H33.8z M47.8,109.3V101H53v8.3H47.8z M129.6,95.2H73.7v28H61.7
	V115h5.2V101V87.1v0v-0.2h7h49V55.6h6.7V95.2z"/>
</svg>
