<svg enable-background="new 0 0 1600 1200" viewBox="0 0 1600 1200" xmlns="http://www.w3.org/2000/svg"><path d="m521.7 530.6h7.7v7.7h-7.7z" transform="matrix(.6156 -.788 .788 .6156 -219.1491 619.5063)"/><path d="m611.9 590.6h7.7v7.7h-7.7z" transform="matrix(.9983 .05872202 -.05872202 .9983 35.9675 -35.129)"/><path d="m415.4 629.9h7.7v7.7h-7.7z" transform="matrix(.3162 -.9487 .9487 .3162 -314.5353 831.0184)"/><path d="m439.3 600.4h7.7v7.7h-7.7z" transform="matrix(.7071 -.7071 .7071 .7071 -297.459 490.3419)"/><path d="m294.7 569.1h7.7v7.7h-7.7z" transform="matrix(.1104 -.9939 .9939 .1104 -303.8162 806.4029)"/><path d="m849.5 657.9h7.7v7.7h-7.7z" transform="matrix(.7071 -.7071 .7071 .7071 -217.9745 797.2083)"/><path d="m902.8 591.6h7.7v7.7h-7.7z" transform="matrix(.2747 -.9615 .9615 .2747 85.1014 1303.6002)"/><path d="m1092.9 590.2h7.7v7.7h-7.7z" transform="matrix(.5661 -.8243 .8243 .5661 -13.7963 1161.7665)"/><path d="m919.5 619.6h7.7v7.7h-7.7z" transform="matrix(0 -1 1 0 299.9412 1546.7378)"/><path d="m1135.7 499.1h7.7v7.7h-7.7z" transform="matrix(-.9289 -.3702 .3702 -.9289 2011.8298 1391.9371)"/><path d="m929.5 456.9h7.7v7.7h-7.7z" transform="matrix(-.9989 -.04756515 .04756515 -.9989 1843.6858 965.3178)"/><path d="m1055.6 755.5h7.7v7.7h-7.7z" transform="matrix(-.583 .8125 -.8125 -.583 2294.0955 341.3598)"/><path d="m1225.2 609.8h7.7v7.7h-7.7z" transform="matrix(-.8944 .4472 -.4472 -.8944 2602.7319 612.7487)"/><path d="m1210.2 635.8h7.7v7.7h-7.7z" transform="matrix(-.1644 .9864 -.9864 -.1644 2044.5109 -452.7901)"/><path d="m1336.5 541.9h7.7v7.7h-7.7z" transform="matrix(-.8838 .4679 -.4679 -.8838 2780.2312 400.9026)"/><path d="m1453.5 697.9h7.7v7.7h-7.7z" transform="matrix(-.8838 .4679 -.4679 -.8838 3073.6248 640.0307)"/><path d="m1561.3 595.3h7.7v7.7h-7.7z" transform="matrix(-.2467 .9691 -.9691 -.2467 2531.8176 -769.8904)"/><path d="m1397.5 488.9h7.7v7.7h-7.7z" transform="matrix(-.7071 .7071 -.7071 -.7071 2740.6245 -149.7585)"/><path d="m665.5 691.9h7.7v7.7h-7.7z" transform="matrix(-.09480909 .9955 -.9955 -.09480909 1425.3755 95.3703)"/><path d="m158.4 531.3h7.7v7.7h-7.7z" transform="matrix(.4104 -.9119 .9119 .4104 -392.3456 463.5314)"/><path d="m215.5 628h7.7v7.7h-7.7z" transform="matrix(-.6139 -.7894 .7894 -.6139 -144.7099 1192.9537)"/><path d="m349.1 511.1h7.7v7.7h-7.7z" transform="matrix(-.9487 -.3162 .3162 -.9487 524.8862 1114.9824)"/><path d="m619.8 663h7.7v7.7h-7.7z" transform="matrix(-.9986 -.05255883 .05255883 -.9986 1211.436 1365.5798)"/><path d="m236.7 483.4h7.7v7.7h-7.7z" transform="matrix(-.866 .5 -.5 -.866 692.5173 788.988)"/><path d="m23.4 550.2h7.7v7.7h-7.7z" transform="matrix(-.7793 .6267 -.6267 -.7793 395.5711 968.7202)"/><path d="m111.9 684.3h7.7v7.7h-7.7z" transform="matrix(-.995 -.09961788 .09961788 -.995 162.3645 1384.3203)"/><path d="m60.5 431.9h7.7v7.7h-7.7z" transform="matrix(-.3417 .9398 -.9398 -.3417 495.8013 524.1726)"/><path d="m358.5 714.9h7.7v7.7h-7.7z" transform="matrix(.1104 .9939 -.9939 .1104 1036.6426 279.2409)"/><path d="m721.5 488.9h7.7v7.7h-7.7z" transform="matrix(.6743 .7385 -.7385 .6743 600.1302 -375.1495)"/><path d="m-38.9 685.6h7.7v7.7h-7.7z" transform="matrix(.6743 .7385 -.7385 .6743 497.7415 250.4909)"/><path d="m427.2-81.6h7.7v7.7h-7.7z" transform="matrix(.6156 -.788 .788 .6156 226.9756 309.7166)"/><path d="m475.6 37.1h7.7v7.7h-7.7z" transform="matrix(.9983 .05872202 -.05872202 .9983 3.2321 -28.0808)"/><path d="m320.9 17.6h7.7v7.7h-7.7z" transform="matrix(.3162 -.9487 .9487 .3162 201.6513 322.7339)"/><path d="m397.2 21.8h7.7v7.7h-7.7z" transform="matrix(.7071 -.7071 .7071 .7071 99.3591 291.0434)"/><path d="m200.2-43.1h7.7v7.7h-7.7z" transform="matrix(.1104 -.9939 .9939 .1104 220.5935 167.8524)"/><path d="m730.6 83.2h7.7v7.7h-7.7z" transform="matrix(.7071 -.7071 .7071 .7071 153.587 544.7918)"/><path d="m683.2 31.2h7.7v7.7h-7.7z" transform="matrix(.2747 -.9615 .9615 .2747 464.6133 685.9517)"/><path d="m1014.5 48.2h7.7v7.7h-7.7z" transform="matrix(.5661 -.8243 .8243 .5661 398.9662 862.002)"/><path d="m861.2 57.2h7.7v7.7h-7.7z" transform="matrix(0 -1 1 0 804 926)"/><path d="m1041.2-113.2h7.7v7.7h-7.7z" transform="matrix(-.9289 -.3702 .3702 -.9289 2056.1965 175.9978)"/><path d="m835-155.3h7.7v7.7h-7.7z" transform="matrix(-.9989 -.04756515 .04756515 -.9989 1683.8931 -262.9398)"/><path d="m961.1 143.3h7.7v7.7h-7.7z" transform="matrix(-.583 .8125 -.8125 -.583 1647.0762 -551.0258)"/><path d="m1130.7-2.5h7.7v7.7h-7.7z" transform="matrix(-.8944 .4472 -.4472 -.8944 2149.8926 -504.8056)"/><path d="m1155.2 79.2h7.7v7.7h-7.7z" transform="matrix(-.1644 .9864 -.9864 -.1644 1431.4092 -1046.5854)"/><path d="m1242-70.3h7.7v7.7h-7.7z" transform="matrix(-.8838 .4679 -.4679 -.8838 2315.7402 -708.1841)"/><path d="m1359 85.7h7.7v7.7h-7.7z" transform="matrix(-.8838 .4679 -.4679 -.8838 2609.1338 -469.0561)"/><path d="m1466.8-16.9h7.7v7.7h-7.7z" transform="matrix(-.2467 .9691 -.9691 -.2467 1820.6838 -1441.5339)"/><path d="m1303-123.3h7.7v7.7h-7.7z" transform="matrix(-.7071 .7071 -.7071 -.7071 2146.3752 -1128.0675)"/><path d="m573.2 131.2h7.7v7.7h-7.7z" transform="matrix(-.09480909 .9955 -.9955 -.09480909 766.0967 -426.6017)"/><path d="m63.9-80.9h7.7v7.7h-7.7z" transform="matrix(.4104 -.9119 .9119 .4104 110.2314 16.3544)"/><path d="m121 15.8h7.7v7.7h-7.7z" transform="matrix(-.6139 -.7894 .7894 -.6139 186.0194 130.2529)"/><path d="m254.6-101.2h7.7v7.7h-7.7z" transform="matrix(-.9487 -.3162 .3162 -.9487 534.319 -107.942)"/><path d="m535.5 91.1h7.7v7.7h-7.7z" transform="matrix(-.9986 -.05255883 .05255883 -.9986 1073.0173 218.1673)"/><path d="m142.2-128.8h7.7v7.7h-7.7z" transform="matrix(-.866 .5 -.5 -.866 210.045 -306.1891)"/><path d="m-71.2-62h7.7v7.7h-7.7z" transform="matrix(-.7793 .6267 -.6267 -.7793 -156.2632 -61.3704)"/><path d="m17.4 72h7.7v7.7h-7.7z" transform="matrix(-.995 -.09961788 .09961788 -.995 34.803 153.4956)"/><path d="m-34-180.3h7.7v7.7h-7.7z" transform="matrix(-.3417 .9398 -.9398 -.3417 -206.3746 -208.4594)"/><path d="m264 102.7h7.7v7.7h-7.7z" transform="matrix(.1104 .9939 -.9939 .1104 344.0862 -171.4453)"/><path d="m627-123.3h7.7v7.7h-7.7z" transform="matrix(.6743 .7385 -.7385 .6743 117.2241 -504.7764)"/><path d="m-133.4 73.4h7.7v7.7h-7.7z" transform="matrix(.6743 .7385 -.7385 .6743 14.8354 120.8641)"/><path d="m427.2 1081.7h7.7v7.7h-7.7z" transform="matrix(.6156 -.788 .788 .6156 -689.7799 756.8607)"/><path d="m475.6 1200.5h7.7v7.7h-7.7z" transform="matrix(.9983 .05872202 -.05872202 .9983 71.5469 -26.0733)"/><path d="m320.9 1181h7.7v7.7h-7.7z" transform="matrix(.3162 -.9487 .9487 .3162 -902.0082 1118.2067)"/><path d="m397.2 1185.1h7.7v7.7h-7.7z" transform="matrix(.7071 -.7071 .7071 .7071 -723.2601 631.7834)"/><path d="m200.2 1120.2h7.7v7.7h-7.7z" transform="matrix(.1104 -.9939 .9939 .1104 -935.6503 1202.7401)"/><path d="m765.2 1156.6h7.7v7.7h-7.7z" transform="matrix(.7071 -.7071 .7071 .7071 -595.3027 883.6429)"/><path d="m717.8 1104.6h7.7v7.7h-7.7z" transform="matrix(.2747 -.9615 .9615 .2747 -542.4178 1497.7312)"/><path d="m1014.5 1211.5h7.7v7.7h-7.7z" transform="matrix(.5661 -.8243 .8243 .5661 -560.0253 1366.7717)"/><path d="m895.8 1130.6h7.7v7.7h-7.7z" transform="matrix(0 -1 1 0 -234.8308 2034)"/><path d="m1041.2 1050.2h7.7v7.7h-7.7z" transform="matrix(-.9289 -.3702 .3702 -.9289 1625.4747 2420.0437)"/><path d="m835 1008h7.7v7.7h-7.7z" transform="matrix(-.9989 -.04756515 .04756515 -.9989 1628.5576 2062.4619)"/><path d="m961.1 1306.7h7.7v7.7h-7.7z" transform="matrix(-.583 .8125 -.8125 -.583 2592.2532 1290.5997)"/><path d="m1130.7 1160.9h7.7v7.7h-7.7z" transform="matrix(-.8944 .4472 -.4472 -.8944 2670.1628 1699.0939)"/><path d="m1155.2 1242.5h7.7v7.7h-7.7z" transform="matrix(-.1644 .9864 -.9864 -.1644 2578.9397 308.0289)"/><path d="m1242 1093h7.7v7.7h-7.7z" transform="matrix(-.8838 .4679 -.4679 -.8838 2860.0618 1483.338)"/><path d="m1359 1249h7.7v7.7h-7.7z" transform="matrix(-.8838 .4679 -.4679 -.8838 3153.4553 1722.4661)"/><path d="m1466.8 1146.4h7.7v7.7h-7.7z" transform="matrix(-.2467 .9691 -.9691 -.2467 2948.1006 8.7685)"/><path d="m1303 1040h7.7v7.7h-7.7z" transform="matrix(-.7071 .7071 -.7071 -.7071 2968.9944 857.911)"/><path d="m609.2 1143.2h7.7v7.7h-7.7z" transform="matrix(-.09480909 .9955 -.9955 -.09480909 1812.9513 645.5073)"/><path d="m63.9 1082.5h7.7v7.7h-7.7z" transform="matrix(.4104 -.9119 .9119 .4104 -950.661 702.3121)"/><path d="m121 1179.2h7.7v7.7h-7.7z" transform="matrix(-.6139 -.7894 .7894 -.6139 -732.2808 2007.8457)"/><path d="m254.6 1062.2h7.7v7.7h-7.7z" transform="matrix(-.9487 -.3162 .3162 -.9487 166.4325 2159.0769)"/><path d="m535.5 1254.5h7.7v7.7h-7.7z" transform="matrix(-.9986 -.05255883 .05255883 -.9986 1011.8725 2543.2778)"/><path d="m142.2 1034.6h7.7v7.7h-7.7z" transform="matrix(-.866 .5 -.5 -.866 791.7247 1864.6689)"/><path d="m-71.2 1101.3h7.7v7.7h-7.7z" transform="matrix(-.7793 .6267 -.6267 -.7793 572.7988 2008.5612)"/><path d="m17.4 1235.4h7.7v7.7h-7.7z" transform="matrix(-.995 -.09961788 .09961788 -.995 -81.0884 2474.4272)"/><path d="m-34 983h7.7v7.7h-7.7z" transform="matrix(-.3417 .9398 -.9398 -.3417 886.9428 1352.4698)"/><path d="m264 1266h7.7v7.7h-7.7z" transform="matrix(.1104 .9939 -.9939 .1104 1500.3301 863.4424)"/><path d="m627 1040h7.7v7.7h-7.7z" transform="matrix(.6743 .7385 -.7385 .6743 976.3481 -125.8346)"/><path d="m-133.4 1236.8h7.7v7.7h-7.7z" transform="matrix(.6743 .7385 -.7385 .6743 873.9594 499.8058)"/><path d="m604.8 228.3h7.7v7.7h-7.7z" transform="matrix(.6156 -.788 .788 .6156 51.0289 568.8115)"/><path d="m695 288.3h7.7v7.7h-7.7z" transform="matrix(.9983 .05872202 -.05872202 .9983 18.3585 -40.5316)"/><path d="m498.5 327.6h7.7v7.7h-7.7z" transform="matrix(.3162 -.9487 .9487 .3162 29.0997 703.1603)"/><path d="m522.5 298.1h7.7v7.7h-7.7z" transform="matrix(.7071 -.7071 .7071 .7071 -59.3458 460.5716)"/><path d="m377.9 266.8h7.7v7.7h-7.7z" transform="matrix(.1104 -.9939 .9939 .1104 70.5895 620.087)"/><path d="m932.6 355.6h7.7v7.7h-7.7z" transform="matrix(.7071 -.7071 .7071 .7071 20.1386 767.438)"/><path d="m986 289.2h7.7v7.7h-7.7z" transform="matrix(.2747 -.9615 .9615 .2747 436.0684 1164.2614)"/><path d="m1176 287.8h7.7v7.7h-7.7z" transform="matrix(.5661 -.8243 .8243 .5661 271.4746 1099.1147)"/><path d="m1002.6 317.3h7.7v7.7h-7.7z" transform="matrix(0 -1 1 0 685.375 1327.5454)"/><path d="m1218.8 196.8h7.7v7.7h-7.7z" transform="matrix(-.9289 -.3702 .3702 -.9289 2284.0928 839.569)"/><path d="m1012.6 154.6h7.7v7.7h-7.7z" transform="matrix(-.9989 -.04756515 .04756515 -.9989 2024.2126 364.9873)"/><path d="m1138.7 453.2h7.7v7.7h-7.7z" transform="matrix(-.583 .8125 -.8125 -.583 2180.0618 -204.7409)"/><path d="m1308.3 307.4h7.7v7.7h-7.7z" transform="matrix(-.8944 .4472 -.4472 -.8944 2624.9995 2.8658)"/><path d="m1293.3 333.4h7.7v7.7h-7.7z" transform="matrix(-.1644 .9864 -.9864 -.1644 1843.0966 -886.7929)"/><path d="m1419.6 239.6h7.7v7.7h-7.7z" transform="matrix(-.8838 .4679 -.4679 -.8838 2795.3643 -207.4823)"/><path d="m1536.6 395.6h7.7v7.7h-7.7z" transform="matrix(-.8838 .4679 -.4679 -.8838 3088.7581 31.6457)"/><path d="m1644.4 293h7.7v7.7h-7.7z" transform="matrix(-.2467 .9691 -.9691 -.2467 2342.467 -1227.3218)"/><path d="m1480.6 186.6h7.7v7.7h-7.7z" transform="matrix(-.7071 .7071 -.7071 -.7071 2668.7527 -724.6145)"/><path d="m748.6 389.6h7.7v7.7h-7.7z" transform="matrix(-.09480909 .9955 -.9955 -.09480909 1215.4254 -318.3512)"/><path d="m241.6 229h7.7v7.7h-7.7z" transform="matrix(.4104 -.9119 .9119 .4104 -67.6488 361.0764)"/><path d="m298.7 325.7h7.7v7.7h-7.7z" transform="matrix(-.6139 -.7894 .7894 -.6139 228.0735 770.6498)"/><path d="m432.2 208.8h7.7v7.7h-7.7z" transform="matrix(-.9487 -.3162 .3162 -.9487 782.4619 552.1549)"/><path d="m703 360.7h7.7v7.7h-7.7z" transform="matrix(-.9986 -.05255883 .05255883 -.9986 1393.4517 765.7401)"/><path d="m319.8 181.1h7.7v7.7h-7.7z" transform="matrix(-.866 .5 -.5 -.866 696.4661 183.3037)"/><path d="m106.5 247.9h7.7v7.7h-7.7z" transform="matrix(-.7793 .6267 -.6267 -.7793 354.0097 378.7325)"/><path d="m195 382h7.7v7.7h-7.7z" transform="matrix(-.995 -.09961788 .09961788 -.995 358.3082 789.4781)"/><path d="m143.6 129.6h7.7v7.7h-7.7z" transform="matrix(-.3417 .9398 -.9398 -.3417 323.216 40.4298)"/><path d="m441.6 412.6h7.7v7.7h-7.7z" transform="matrix(.1104 .9939 -.9939 .1104 810.1201 -72.2997)"/><path d="m804.6 186.6h7.7v7.7h-7.7z" transform="matrix(.6743 .7385 -.7385 .6743 403.9513 -535.0056)"/><path d="m44.2 383.3h7.7v7.7h-7.7z" transform="matrix(.6743 .7385 -.7385 .6743 301.5626 90.6348)"/><path d="m604.8 798.4h7.7v7.7h-7.7z" transform="matrix(.6156 -.788 .788 .6156 -398.2565 787.9489)"/><path d="m695 858.4h7.7v7.7h-7.7z" transform="matrix(.9983 .05872202 -.05872202 .9983 51.8384 -39.5478)"/><path d="m498.5 897.7h7.7v7.7h-7.7z" transform="matrix(.3162 -.9487 .9487 .3162 -511.784 1093.0072)"/><path d="m522.5 868.2h7.7v7.7h-7.7z" transform="matrix(.7071 -.7071 .7071 .7071 -462.4967 627.5622)"/><path d="m377.9 836.9h7.7v7.7h-7.7z" transform="matrix(.1104 -.9939 .9939 .1104 -496.0649 1127.2668)"/><path d="m932.6 925.7h7.7v7.7h-7.7z" transform="matrix(.7071 -.7071 .7071 .7071 -383.0123 934.4286)"/><path d="m986 859.4h7.7v7.7h-7.7z" transform="matrix(.2747 -.9615 .9615 .2747 -112.1363 1577.7729)"/><path d="m1176 858h7.7v7.7h-7.7z" transform="matrix(.5661 -.8243 .8243 .5661 -198.5099 1346.4934)"/><path d="m1002.6 887.4h7.7v7.7h-7.7z" transform="matrix(0 -1 1 0 115.2335 1897.6869)"/><path d="m1218.8 766.9h7.7v7.7h-7.7z" transform="matrix(-.9289 -.3702 .3702 -.9289 2073.0037 1939.3356)"/><path d="m1012.6 724.7h7.7v7.7h-7.7z" transform="matrix(-.9989 -.04756515 .04756515 -.9989 1997.0938 1504.625)"/><path d="m1138.7 1023.4h7.7v7.7h-7.7z" transform="matrix(-.583 .8125 -.8125 -.583 2643.2761 697.8066)"/><path d="m1308.3 877.6h7.7v7.7h-7.7z" transform="matrix(-.8944 .4472 -.4472 -.8944 2879.9744 1082.9574)"/><path d="m1293.3 903.6h7.7v7.7h-7.7z" transform="matrix(-.1644 .9864 -.9864 -.1644 2405.4807 -222.9208)"/><path d="m1419.6 809.7h7.7v7.7h-7.7z" transform="matrix(-.8838 .4679 -.4679 -.8838 3062.1265 866.5433)"/><path d="m1536.6 965.7h7.7v7.7h-7.7z" transform="matrix(-.8838 .4679 -.4679 -.8838 3355.5203 1105.6714)"/><path d="m1644.4 863.1h7.7v7.7h-7.7z" transform="matrix(-.2467 .9691 -.9691 -.2467 2894.9937 -516.5546)"/><path d="m1480.6 756.7h7.7v7.7h-7.7z" transform="matrix(-.7071 .7071 -.7071 -.7071 3071.9036 248.6779)"/><path d="m748.6 959.7h7.7v7.7h-7.7z" transform="matrix(-.09480909 .9955 -.9955 -.09480909 1782.9987 305.8449)"/><path d="m241.6 799.2h7.7v7.7h-7.7z" transform="matrix(.4104 -.9119 .9119 .4104 -587.5731 697.252)"/><path d="m298.7 895.9h7.7v7.7h-7.7z" transform="matrix(-.6139 -.7894 .7894 -.6139 -221.969 1690.8243)"/><path d="m432.2 778.9h7.7v7.7h-7.7z" transform="matrix(-.9487 -.3162 .3162 -.9487 602.1672 1663.1802)"/><path d="m703 930.9h7.7v7.7h-7.7z" transform="matrix(-.9986 -.05255883 .05255883 -.9986 1363.4857 1905.2351)"/><path d="m319.8 751.3h7.7v7.7h-7.7z" transform="matrix(-.866 .5 -.5 -.866 981.5368 1247.2023)"/><path d="m106.5 818h7.7v7.7h-7.7z" transform="matrix(-.7793 .6267 -.6267 -.7793 711.3098 1393.1688)"/><path d="m195 952.1h7.7v7.7h-7.7z" transform="matrix(-.995 -.09961788 .09961788 -.995 301.512 1926.925)"/><path d="m143.6 699.7h7.7v7.7h-7.7z" transform="matrix(-.3417 .9398 -.9398 -.3417 859.0313 805.4131)"/><path d="m441.6 982.7h7.7v7.7h-7.7z" transform="matrix(.1104 .9939 -.9939 .1104 1376.7744 434.8802)"/><path d="m804.6 756.7h7.7v7.7h-7.7z" transform="matrix(.6743 .7385 -.7385 .6743 824.9925 -349.2931)"/><path d="m44.2 953.5h7.7v7.7h-7.7z" transform="matrix(.6743 .7385 -.7385 .6743 722.6038 276.3474)"/></svg>