<svg enable-background="new 0 0 1600 1200" viewBox="0 0 1600 1200" xmlns="http://www.w3.org/2000/svg"><path d="m207.4 579-15.1-9.5 15.8-8.3zm-11.1-9.4 9.3 5.8.4-10.9z"/><path d="m341.5 644.1 2.9-17.6 13.8 11.3zm4.3-13.9-1.8 10.8 10.2-3.9z"/><path d="m248.8 674-16.2-7.6 14.7-10.2zm-12.2-7.9 9.9 4.6-.9-10.9z"/><path d="m61.5 630.9 4.3-17.4 12.9 12.5zm5.4-13.5-2.6 10.6 10.5-3.1z"/><path d="m484.5 709.9-15.1-9.5 15.8-8.4zm-11.1-9.4 9.3 5.8.4-10.9z"/><path d="m-7.6 576.9 3.8-17.5 13.2 12zm5-13.6-2.3 10.7 10.4-3.3z"/><path d="m491.3 593.3-7.4-16.3 17.8 1.8zm-4.1-14 4.5 10 6.4-8.9z"/><path d="m646.4 530-16.5-6.9 14.2-10.9zm-12.6-7.4 10.1 4.2-1.4-10.9z"/><path d="m532.5 617 4.9-17.2 12.5 12.8zm5.8-13.4-3 10.5 10.6-2.7z"/><path d="m506.4 505.5-14.4-10.5 16.4-7.2zm-10.5-10.1 8.8 6.5 1.3-10.9z"/><path d="m651.3 694.7 1.8-17.8 14.5 10.5zm3.4-14.2-1.1 10.9 10-4.5z"/><path d="m774.2 610.5-17.1-5.1 13-12.3zm-13.3-6.1 10.5 3.1-2.5-10.7z"/><path d="m922 536.2-13.5-11.8 16.9-5.8zm-9.5-11 8.2 7.2 2.1-10.7z"/><path d="m826.7 495.7 4.1-17.4 13 12.3zm5.3-13.5-2.5 10.7 10.5-3.1z"/><path d="m937.4 680-12.3-13 17.4-4.2zm-8.5-11.8 7.5 7.9 3.1-10.5z"/><path d="m780.6 693.2 4.7-17.2 12.6 12.7zm5.7-13.3-2.9 10.6 10.6-2.8z"/><path d="m1131.4 577.6-17.2-4.7 12.7-12.6zm-13.4-5.7 10.6 2.9-2.8-10.6z"/><path d="m1074.2 717.7-2.8-17.7 16.7 6.4zm-.3-14.5 1.7 10.8 8.5-6.9z"/><path d="m1066.2 655.7-17.1-5.1 13-12.3zm-13.3-6.1 10.5 3.1-2.6-10.6z"/><path d="m1174.1 485.8-15.3-9.2 15.7-8.6zm-11.3-9.2 9.4 5.7.2-10.9z"/><path d="m860.3 771-5.1-17.1 17.4 4.1zm-2.2-14.4 3.1 10.5 7.5-8z"/><path d="m1014.8 476.8-17.6-3 11.4-13.8zm-13.9-4.4 10.8 1.8-3.8-10.3z"/><path d="m1275.5 589.1-6.1-16.8 17.6 3.1zm-3-14.3 3.7 10.3 7-8.4z"/><path d="m1320 552.6-16.1-7.7 14.8-10.1zm-12.1-8 9.9 4.7-.8-10.9z"/><path d="m1190.6 670.6 5.4-17 12.1 13.2zm6.2-13.2-3.3 10.4 10.7-2.4z"/><path d="m1402.4 655-15.3-9.2 15.6-8.7zm-11.4-9.1 9.4 5.6.2-10.9z"/><path d="m1527.7 525.8-16-7.9 14.9-9.9zm-12-8.2 9.8 4.9-.7-10.9z"/><path d="m1374.1 471.9 6.2-16.8 11.4 13.8zm6.9-12.8-3.8 10.3 10.8-1.8z"/><path d="m1305.7 748.5-14.8-10.1 16.1-7.8zm-10.8-9.8 9.1 6.2.8-10.9z"/><path d="m1482.8 690.1-13.5-11.7 16.9-5.9zm-9.6-11 8.3 7.2 2.1-10.8z"/><path d="m1590.1 627.9 8.6-15.7 9.2 15.3zm8.7-11.6-5.3 9.6 10.9-.2z"/><path d="m271.2 445.3 7.3-16.3 10.5 14.5zm7.7-12.3-4.5 10 10.9-1.1z"/><path d="m86.5 745-4.5-17.3 17.2 4.8zm-1.6-14.4 2.7 10.6 7.8-7.7z"/><path d="m339.7 525.1-15.4-9.1 15.6-8.8zm-11.4-9.1 9.4 5.6.1-10.9z"/><path d="m255.3 553.2.3-17.9 15.3 9.2zm2.3-14.4-.2 10.9 9.6-5.3z"/><path d="m117.5 512.5-13.6-11.6 16.9-5.9zm-9.7-10.9 8.3 7.1 2-10.8z"/><path d="m207.4 891.4-15.1-9.5 15.8-8.3zm-11.1-9.4 9.3 5.8.4-10.9z"/><path d="m341.5 956.5 2.9-17.6 13.8 11.3zm4.3-13.9-1.8 10.8 10.2-3.9z"/><path d="m248.8 986.4-16.2-7.6 14.7-10.2zm-12.2-7.9 9.9 4.6-.9-10.9z"/><path d="m61.5 943.3 4.3-17.4 12.9 12.4zm5.4-13.5-2.6 10.6 10.5-3.1z"/><path d="m484.5 1022.3-15.1-9.5 15.8-8.4zm-11.1-9.4 9.3 5.8.4-10.9z"/><path d="m-7.6 889.4 3.8-17.5 13.2 12zm5-13.7-2.3 10.7 10.4-3.4z"/><path d="m491.3 905.7-7.4-16.3 17.8 1.8zm-4.1-14 4.5 10 6.4-8.9z"/><path d="m646.4 842.4-16.5-6.9 14.2-10.9zm-12.6-7.4 10.1 4.2-1.4-10.9z"/><path d="m532.5 929.4 4.9-17.2 12.5 12.8zm5.8-13.4-3 10.5 10.6-2.7z"/><path d="m506.4 817.9-14.4-10.5 16.4-7.2zm-10.5-10.1 8.8 6.5 1.2-10.9z"/><path d="m651.3 1007.1 1.8-17.8 14.5 10.5zm3.4-14.2-1.1 10.9 10-4.5z"/><path d="m774.2 922.9-17.1-5.1 13-12.3zm-13.3-6 10.5 3.1-2.5-10.7z"/><path d="m922 848.6-13.5-11.8 16.9-5.8zm-9.5-11 8.2 7.2 2.1-10.7z"/><path d="m826.7 808.1 4.1-17.4 13 12.3zm5.3-13.5-2.5 10.7 10.5-3.1z"/><path d="m937.4 992.4-12.3-13 17.4-4.2zm-8.5-11.8 7.5 7.9 3.1-10.5z"/><path d="m780.6 1005.6 4.7-17.2 12.6 12.7zm5.7-13.3-2.9 10.6 10.6-2.8z"/><path d="m1131.4 890-17.2-4.7 12.7-12.6zm-13.4-5.7 10.6 2.9-2.8-10.6z"/><path d="m1074.2 1030.2-2.8-17.7 16.7 6.4zm-.3-14.6 1.7 10.8 8.5-6.9z"/><path d="m1066.2 968.1-17.2-5.1 13-12.3zm-13.3-6 10.5 3.1-2.6-10.6z"/><path d="m1174.1 798.2-15.3-9.2 15.7-8.6zm-11.3-9.2 9.4 5.7.2-10.9z"/><path d="m860.3 1083.4-5.1-17.1 17.4 4.1zm-2.2-14.4 3.1 10.5 7.5-8z"/><path d="m1014.8 789.2-17.6-3 11.4-13.8zm-13.9-4.4 10.8 1.8-3.8-10.3z"/><path d="m1275.5 901.5-6.1-16.8 17.6 3.1zm-3-14.2 3.7 10.3 7-8.4z"/><path d="m1320 865-16.1-7.7 14.8-10.1zm-12.1-8 9.9 4.7-.8-10.9z"/><path d="m1190.6 983 5.4-17 12.1 13.2zm6.2-13.2-3.3 10.4 10.7-2.4z"/><path d="m1402.4 967.5-15.3-9.2 15.6-8.7zm-11.4-9.2 9.4 5.6.2-10.9z"/><path d="m1527.7 838.3-16-7.9 14.9-9.9zm-12-8.2 9.8 4.9-.7-10.9z"/><path d="m1374.1 784.3 6.2-16.8 11.4 13.8zm6.9-12.8-3.8 10.3 10.8-1.8z"/><path d="m1305.7 1060.9-14.8-10.1 16.1-7.8zm-10.8-9.8 9.1 6.2.8-10.9z"/><path d="m1482.8 1002.5-13.5-11.7 16.9-5.9zm-9.6-10.9 8.3 7.2 2.1-10.8z"/><path d="m1590.1 940.3 8.6-15.7 9.2 15.3zm8.7-11.6-5.3 9.6 10.9-.2z"/><path d="m271.2 757.7 7.3-16.3 10.5 14.5zm7.7-12.3-4.5 10 10.9-1.1z"/><path d="m86.5 1057.4-4.5-17.3 17.2 4.8zm-1.6-14.4 2.7 10.6 7.8-7.7z"/><path d="m339.7 837.5-15.4-9.1 15.6-8.8zm-11.4-9.1 9.4 5.6.1-10.9z"/><path d="m255.3 865.6.3-17.9 15.4 9.3zm2.3-14.4-.2 10.9 9.6-5.3z"/><path d="m117.5 824.9-13.6-11.6 16.9-5.9zm-9.7-10.9 8.3 7.1 2-10.8z"/><path d="m35.7 270.9-15.1-9.5 15.8-8.3zm-11.2-9.4 9.3 5.8.4-10.9z"/><path d="m169.7 335.9 2.9-17.6 13.8 11.3zm4.3-13.9-1.8 10.8 10.2-3.9z"/><path d="m77 365.9-16.2-7.6 14.7-10.2zm-12.2-7.9 9.9 4.6-.9-10.9z"/><path d="m1540.8 322.8 4.3-17.4 12.9 12.4zm5.4-13.5-2.6 10.6 10.5-3.1z"/><path d="m312.8 401.8-15.1-9.5 15.8-8.4zm-11.2-9.4 9.3 5.8.4-10.9z"/><path d="m1471.7 268.8 3.8-17.5 13.2 12zm5-13.6-2.3 10.7 10.4-3.3z"/><path d="m319.5 285.2-7.4-16.3 17.8 1.8zm-4.1-14 4.5 10 6.4-8.9z"/><path d="m474.6 221.9-16.5-6.9 14.2-10.9zm-12.5-7.4 10.1 4.2-1.4-10.9z"/><path d="m360.7 308.8 4.9-17.2 12.5 12.8zm5.9-13.3-3 10.5 10.6-2.7z"/><path d="m334.7 197.4-14.4-10.6 16.4-7.2zm-10.5-10.1 8.8 6.5 1.2-10.9z"/><path d="m479.5 386.5 1.8-17.8 14.5 10.5zm3.5-14.1-1.1 10.9 10-4.5z"/><path d="m602.4 302.3-17.1-5.1 13-12.3zm-13.2-6 10.5 3.1-2.5-10.7z"/><path d="m750.3 228-13.5-11.8 16.9-5.8zm-9.5-11 8.2 7.2 2.1-10.7z"/><path d="m655 187.6 4.1-17.4 13 12.3zm5.3-13.6-2.5 10.7 10.5-3.1z"/><path d="m765.6 371.9-12.3-13 17.4-4.2zm-8.4-11.9 7.5 7.9 3.1-10.5z"/><path d="m608.8 385.1 4.7-17.2 12.6 12.7zm5.8-13.4-2.9 10.6 10.6-2.8z"/><path d="m959.6 269.5-17.2-4.7 12.7-12.6zm-13.4-5.8 10.6 2.9-2.8-10.6z"/><path d="m902.5 409.6-2.8-17.7 16.7 6.4zm-.3-14.5 1.7 10.8 8.5-6.9z"/><path d="m894.4 347.5-17.1-5.1 13-12.3zm-13.2-6 10.5 3.1-2.6-10.6z"/><path d="m1002.4 177.7-15.3-9.2 15.7-8.6zm-11.3-9.2 9.4 5.7.2-10.9z"/><path d="m688.5 462.8-5.1-17.1 17.4 4.1zm-2.1-14.3 3.1 10.5 7.5-8z"/><path d="m843 168.7-17.6-3 11.4-13.8zm-13.8-4.4 10.8 1.8-3.8-10.3z"/><path d="m1103.8 280.9-6.1-16.8 17.6 3.1zm-3.1-14.2 3.7 10.3 7-8.4z"/><path d="m1148.3 244.5-16.1-7.7 14.8-10.1zm-12.2-8 9.9 4.7-.8-10.9z"/><path d="m1018.8 362.4 5.4-17 12.1 13.2zm6.3-13.1-3.3 10.4 10.7-2.4z"/><path d="m1230.6 346.9-15.3-9.2 15.6-8.7zm-11.3-9.1 9.4 5.6.2-10.9z"/><path d="m1356 217.7-16-7.9 14.9-9.9zm-12-8.2 9.8 4.9-.7-10.9z"/><path d="m1202.4 163.8 6.2-16.8 11.4 13.8zm6.9-12.9-3.8 10.3 10.8-1.8z"/><path d="m1134 440.3-14.8-10.1 16.1-7.8zm-10.8-9.7 9.1 6.2.8-10.9z"/><path d="m1311.1 382-13.5-11.7 16.9-5.9zm-9.6-11 8.3 7.2 2.1-10.8z"/><path d="m1418.4 319.8 8.6-15.7 9.2 15.3zm8.7-11.7-5.3 9.6 10.9-.2z"/><path d="m99.4 137.2 7.3-16.3 10.5 14.5zm7.7-12.4-4.5 10 10.9-1.1z"/><path d="m1565.8 436.9-4.5-17.3 17.2 4.8zm-1.7-14.5 2.7 10.6 7.8-7.7z"/><path d="m167.9 216.9-15.4-9.1 15.6-8.8zm-11.4-9 9.4 5.6.1-10.9z"/><path d="m83.6 245.1.3-17.9 15.3 9.2zm2.2-14.4-.2 10.9 9.6-5.3z"/><path d="m1596.7 204.4-13.6-11.6 16.9-5.9zm-9.6-10.9 8.3 7.1 2-10.8z"/></svg>