<svg enable-background="new 0 0 1600 1200" viewBox="0 0 1600 1200" xmlns="http://www.w3.org/2000/svg"><circle cx="299.6" cy="453" r="5.3"/><circle cx="396.3" cy="511.4" r="5.3"/><circle cx="516.1" cy="461.7" r="5.3"/><circle cx="164.9" cy="545.7" r="5.3"/><circle cx="496.9" cy="554" r="5.3"/><circle cx="1019.4" cy="539" r="5.3"/><circle cx="47.3" cy="545" r="5.3"/><circle cx="294.2" cy="697.8" r="5.3"/><circle cx="443.3" cy="746.2" r="5.3"/><circle cx="353.3" cy="434.1" r="5.3"/><circle cx="185.2" cy="668.6" r="5.3"/><circle cx="181" cy="742.5" r="5.3"/><circle cx="828.8" cy="668" r="5.3"/><circle cx="185.2" cy="377.3" r="5.3"/><circle cx="621.3" cy="657.4" r="5.3"/><circle cx="670.2" cy="751.6" r="5.3"/><circle cx="797.1" cy="584.9" r="5.3"/><circle cx="863.8" cy="495" r="5.3"/><circle cx="632.1" cy="478.1" r="5.3"/><circle cx="969.7" cy="676.2" r="5.3"/><circle cx="1153.5" cy="502.8" r="5.3"/><circle cx="949.5" cy="397.4" r="5.3"/><circle cx="1140" cy="587.9" r="5.3"/><circle cx="1364.2" cy="511.7" r="5.3"/><circle cx="1469.5" cy="416.2" r="5.3"/><circle cx="1166.5" cy="662" r="5.3"/><circle cx="1497.2" cy="536.7" r="5.3"/><circle cx="1227.1" cy="449" r="5.3"/><circle cx="1447.1" cy="655.2" r="5.3"/><circle cx="1252.1" cy="724.7" r="5.3"/><circle cx="1465" cy="821.1" r="5.3"/><circle cx="1386.6" cy="713.5" r="5.3"/><circle cx="1565.9" cy="481.3" r="5.3"/><circle cx="1156.2" cy="766" r="5.3"/><circle cx="916.1" cy="733.6" r="5.3"/><circle cx="-26.4" cy="680.8" r="5.3"/><circle cx="548.3" cy="342.8" r="5.3"/><circle cx="281.6" cy="823.3" r="5.3"/><circle cx="1400" cy="402" r="5.3"/><circle cx="1626.4" cy="711.3" r="5.3"/><circle cx="65.9" cy="436.8" r="5.3"/><circle cx="186.5" cy="61.8" r="5.3"/><circle cx="283.1" cy="120.2" r="5.3"/><circle cx="402.9" cy="70.4" r="5.3"/><circle cx="51.7" cy="154.5" r="5.3"/><circle cx="383.8" cy="162.8" r="5.3"/><circle cx="906.3" cy="147.8" r="5.3"/><circle cx="-65.8" cy="153.8" r="5.3"/><circle cx="181.1" cy="306.5" r="5.3"/><circle cx="330.1" cy="354.9" r="5.3"/><circle cx="240.2" cy="42.9" r="5.3"/><circle cx="72.1" cy="277.4" r="5.3"/><circle cx="67.9" cy="351.3" r="5.3"/><circle cx="715.7" cy="276.8" r="5.3"/><circle cx="72.1" cy="-14" r="5.3"/><circle cx="508.2" cy="266.2" r="5.3"/><circle cx="573" cy="405" r="5.3"/><circle cx="684" cy="193.6" r="5.3"/><circle cx="750.7" cy="103.7" r="5.3"/><circle cx="518.9" cy="86.9" r="5.3"/><circle cx="856.5" cy="285" r="5.3"/><circle cx="1040.3" cy="111.5" r="5.3"/><circle cx="836.4" cy="6.2" r="5.3"/><circle cx="1026.9" cy="196.7" r="5.3"/><circle cx="1251" cy="120.5" r="5.3"/><circle cx="1356.4" cy="25" r="5.3"/><circle cx="1053.3" cy="270.8" r="5.3"/><circle cx="1384" cy="145.4" r="5.3"/><circle cx="1114" cy="57.8" r="5.3"/><circle cx="1334" cy="263.9" r="5.3"/><circle cx="1139" cy="333.4" r="5.3"/><circle cx="1351.9" cy="429.9" r="5.3"/><circle cx="1273.4" cy="322.3" r="5.3"/><circle cx="1452.8" cy="90" r="5.3"/><circle cx="1043.1" cy="374.8" r="5.3"/><circle cx="803" cy="342.3" r="5.3"/><circle cx="-139.5" cy="289.5" r="5.3"/><circle cx="435.2" cy="-48.5" r="5.3"/><circle cx="168.4" cy="432" r="5.3"/><circle cx="1286.9" cy="10.7" r="5.3"/><circle cx="1513.3" cy="320" r="5.3"/><circle cx="-47.2" cy="45.6" r="5.3"/><circle cx="609.4" cy="849.3" r="5.3"/><circle cx="706" cy="907.7" r="5.3"/><circle cx="825.8" cy="857.9" r="5.3"/><circle cx="474.6" cy="942" r="5.3"/><circle cx="806.6" cy="950.3" r="5.3"/><circle cx="1329.2" cy="935.3" r="5.3"/><circle cx="357.1" cy="941.3" r="5.3"/><circle cx="603.9" cy="1094" r="5.3"/><circle cx="753" cy="1142.4" r="5.3"/><circle cx="663" cy="830.4" r="5.3"/><circle cx="494.9" cy="1064.9" r="5.3"/><circle cx="490.7" cy="1138.8" r="5.3"/><circle cx="1138.5" cy="1064.3" r="5.3"/><circle cx="494.9" cy="773.5" r="5.3"/><circle cx="931" cy="1053.7" r="5.3"/><circle cx="995.8" cy="1192.5" r="5.3"/><circle cx="1106.8" cy="981.1" r="5.3"/><circle cx="1173.5" cy="891.2" r="5.3"/><circle cx="941.8" cy="874.4" r="5.3"/><circle cx="1279.4" cy="1072.5" r="5.3"/><circle cx="1463.2" cy="899" r="5.3"/><circle cx="1259.2" cy="793.7" r="5.3"/><circle cx="1449.7" cy="984.2" r="5.3"/><circle cx="-13" cy="908" r="5.3"/><circle cx="92.3" cy="812.5" r="5.3"/><circle cx="1476.2" cy="1058.3" r="5.3"/><circle cx="120" cy="932.9" r="5.3"/><circle cx="1536.9" cy="845.3" r="5.3"/><circle cx="69.9" cy="1051.4" r="5.3"/><circle cx="1561.8" cy="1120.9" r="5.3"/><circle cx="87.9" cy="1217.4" r="5.3"/><circle cx="9.4" cy="1109.8" r="5.3"/><circle cx="188.7" cy="877.5" r="5.3"/><circle cx="1465.9" cy="1162.3" r="5.3"/><circle cx="1225.8" cy="1129.8" r="5.3"/><circle cx="283.3" cy="1077.1" r="5.3"/><circle cx="858" cy="739.1" r="5.3"/><circle cx="591.3" cy="1219.5" r="5.3"/><circle cx="22.9" cy="798.2" r="5.3"/><circle cx="219" cy="1141.7" r="5.3"/><circle cx="375.6" cy="833.1" r="5.3"/></svg>