<?xml version="1.0" encoding="utf-8"?>
<!-- Generator: Adobe Illustrator 19.2.1, SVG Export Plug-In . SVG Version: 6.00 Build 0)  -->
<svg version="1.1" id="Calque_1" xmlns="http://www.w3.org/2000/svg" xmlns:xlink="http://www.w3.org/1999/xlink" x="0px" y="0px"
	 viewBox="0 0 1600 1200" style="enable-background:new 0 0 1600 1200;" xml:space="preserve">
<g>
	<polygon points="144.7,476.6 148.2,480.2 150.3,478.1 146.7,474.6 150.3,471 148.2,469 144.7,472.6 141.1,469 139.1,471 
		142.7,474.6 139.1,478.1 141.1,480.2 	"/>
	<polygon points="189.7,528.3 193.2,531.9 195.3,529.8 191.7,526.3 195.3,522.7 193.2,520.7 189.7,524.3 186.1,520.7 184.1,522.7 
		187.7,526.3 184.1,529.8 186.1,531.9 	"/>
	<polygon points="374.4,474 378,477.6 380,475.6 376.4,472 380,468.5 378,466.4 374.4,470 370.9,466.4 368.8,468.5 372.4,472 
		368.8,475.6 370.9,477.6 	"/>
	<polygon points="307.4,571 311,574.6 313,572.6 309.4,569 313,565.5 311,563.4 307.4,567 303.9,563.4 301.8,565.5 305.4,569 
		301.8,572.6 303.9,574.6 	"/>
	<polygon points="280.4,501 284,504.6 286,502.6 282.4,499 286,495.5 284,493.4 280.4,497 276.9,493.4 274.8,495.5 278.4,499 
		274.8,502.6 276.9,504.6 	"/>
	<polygon points="147.7,620.3 151.2,623.9 153.3,621.8 149.7,618.3 153.3,614.7 151.2,612.7 147.7,616.3 144.1,612.7 142.1,614.7 
		145.7,618.3 142.1,621.8 144.1,623.9 	"/>
	<polygon points="385.1,672.3 388.7,675.9 390.7,673.8 387.2,670.3 390.7,666.7 388.7,664.7 385.1,668.3 381.6,664.7 379.6,666.7 
		383.1,670.3 379.6,673.8 381.6,675.9 	"/>
	<polygon points="286.7,658.3 290.2,661.9 292.3,659.8 288.7,656.3 292.3,652.7 290.2,650.7 286.7,654.3 283.1,650.7 281.1,652.7 
		284.7,656.3 281.1,659.8 283.1,661.9 	"/>
	<polygon points="216.7,711.3 220.2,714.9 222.3,712.8 218.7,709.3 222.3,705.7 220.2,703.7 216.7,707.3 213.1,703.7 211.1,705.7 
		214.7,709.3 211.1,712.8 213.1,714.9 	"/>
	<polygon points="23.1,588.3 26.7,591.9 28.7,589.8 25.2,586.3 28.7,582.7 26.7,580.7 23.1,584.3 19.6,580.7 17.6,582.7 21.1,586.3 
		17.6,589.8 19.6,591.9 	"/>
	<polygon points="85.4,745.6 89,749.1 91,747.1 87.4,743.6 91,740 89,738 85.4,741.5 81.9,738 79.8,740 83.4,743.6 79.8,747.1 
		81.9,749.1 	"/>
	<polygon points="506.4,521 510,524.6 512,522.6 508.4,519 512,515.5 510,513.4 506.4,517 502.9,513.4 500.8,515.5 504.4,519 
		500.8,522.6 502.9,524.6 	"/>
	<polygon points="475.4,592 473.4,590 469.9,593.6 466.3,590 464.3,592 467.8,595.6 464.3,599.1 466.3,601.2 469.9,597.6 
		473.4,601.2 475.4,599.1 471.9,595.6 	"/>
	<polygon points="679.7,564.3 683.2,567.9 685.3,565.8 681.7,562.3 685.3,558.7 683.2,556.7 679.7,560.3 676.1,556.7 674.1,558.7 
		677.7,562.3 674.1,565.8 676.1,567.9 	"/>
	<polygon points="837.4,487 841,490.6 843,488.6 839.4,485 843,481.5 841,479.4 837.4,483 833.9,479.4 831.8,481.5 835.4,485 
		831.8,488.6 833.9,490.6 	"/>
	<polygon points="855.7,623.3 859.2,626.9 861.3,624.8 857.7,621.3 861.3,617.7 859.2,615.7 855.7,619.3 852.1,615.7 850.1,617.7 
		853.7,621.3 850.1,624.8 852.1,626.9 	"/>
	<polygon points="1002.7,514.3 1006.2,517.9 1008.3,515.8 1004.7,512.3 1008.3,508.7 1006.2,506.7 1002.7,510.3 999.1,506.7 
		997.1,508.7 1000.7,512.3 997.1,515.8 999.1,517.9 	"/>
	<polygon points="959.4,594.6 963,598.1 965,596.1 961.4,592.6 965,589 963,587 959.4,590.5 955.9,587 953.8,589 957.4,592.6 
		953.8,596.1 955.9,598.1 	"/>
	<polygon points="1161.7,499.3 1165.2,502.9 1167.3,500.8 1163.7,497.3 1167.3,493.7 1165.2,491.7 1161.7,495.3 1158.1,491.7 
		1156.1,493.7 1159.7,497.3 1156.1,500.8 1158.1,502.9 	"/>
	<polygon points="1144.4,596 1148,599.6 1150,597.6 1146.4,594 1150,590.5 1148,588.4 1144.4,592 1140.9,588.4 1138.8,590.5 
		1142.4,594 1138.8,597.6 1140.9,599.6 	"/>
	<polygon points="1195.4,574 1199,577.6 1201,575.6 1197.4,572 1201,568.5 1199,566.4 1195.4,570 1191.9,566.4 1189.8,568.5 
		1193.4,572 1189.8,575.6 1191.9,577.6 	"/>
	<polygon points="1267.4,688.6 1271,692.1 1273,690.1 1269.4,686.6 1273,683 1271,681 1267.4,684.5 1263.9,681 1261.8,683 
		1265.4,686.6 1261.8,690.1 1263.9,692.1 	"/>
	<polygon points="1377.7,561.3 1381.2,564.9 1383.3,562.8 1379.7,559.3 1383.3,555.7 1381.2,553.7 1377.7,557.3 1374.1,553.7 
		1372.1,555.7 1375.7,559.3 1372.1,562.8 1374.1,564.9 	"/>
	<polygon points="1037.1,686.3 1040.7,689.9 1042.7,687.8 1039.2,684.3 1042.7,680.7 1040.7,678.7 1037.1,682.3 1033.6,678.7 
		1031.6,680.7 1035.1,684.3 1031.6,687.8 1033.6,689.9 	"/>
	<polygon points="933.7,742.3 937.2,745.9 939.3,743.8 935.7,740.3 939.3,736.7 937.2,734.7 933.7,738.3 930.1,734.7 928.1,736.7 
		931.7,740.3 928.1,743.8 930.1,745.9 	"/>
	<polygon points="1393.1,447.3 1396.7,450.9 1398.7,448.8 1395.2,445.3 1398.7,441.7 1396.7,439.7 1393.1,443.3 1389.6,439.7 
		1387.6,441.7 1391.1,445.3 1387.6,448.8 1389.6,450.9 	"/>
	<polygon points="1216.1,422.3 1219.7,425.9 1221.7,423.8 1218.2,420.3 1221.7,416.7 1219.7,414.7 1216.1,418.3 1212.6,414.7 
		1210.6,416.7 1214.1,420.3 1210.6,423.8 1212.6,425.9 	"/>
	<polygon points="1482.1,583.3 1485.7,586.9 1487.7,584.8 1484.2,581.3 1487.7,577.7 1485.7,575.7 1482.1,579.3 1478.6,575.7 
		1476.6,577.7 1480.1,581.3 1476.6,584.8 1478.6,586.9 	"/>
	<polygon points="1567.4,505.6 1571,509.1 1573,507.1 1569.4,503.6 1573,500 1571,498 1567.4,501.5 1563.9,498 1561.8,500 
		1565.4,503.6 1561.8,507.1 1563.9,509.1 	"/>
	<polygon points="1444.4,684.6 1448,688.1 1450,686.1 1446.4,682.6 1450,679 1448,677 1444.4,680.5 1440.9,677 1438.8,679 
		1442.4,682.6 1438.8,686.1 1440.9,688.1 	"/>
	<polygon points="607.7,617.3 611.2,620.9 613.3,618.8 609.7,615.3 613.3,611.7 611.2,609.7 607.7,613.3 604.1,609.7 602.1,611.7 
		605.7,615.3 602.1,618.8 604.1,620.9 	"/>
	<polygon points="597.7,457.3 601.2,460.9 603.3,458.8 599.7,455.3 603.3,451.7 601.2,449.7 597.7,453.3 594.1,449.7 592.1,451.7 
		595.7,455.3 592.1,458.8 594.1,460.9 	"/>
	<polygon points="715.4,605 719,608.6 721,606.6 717.4,603 721,599.5 719,597.4 715.4,601 711.9,597.4 709.8,599.5 713.4,603 
		709.8,606.6 711.9,608.6 	"/>
	<polygon points="673.4,683.4 671.4,681.4 667.9,685 664.3,681.4 662.3,683.4 665.8,687 662.3,690.6 664.3,692.6 667.9,689 
		671.4,692.6 673.4,690.6 669.9,687 	"/>
	<polygon points="547.7,713.3 551.2,716.9 553.3,714.8 549.7,711.3 553.3,707.7 551.2,705.7 547.7,709.3 544.1,705.7 542.1,707.7 
		545.7,711.3 542.1,714.8 544.1,716.9 	"/>
	<polygon points="352.1,422.3 355.7,425.9 357.7,423.8 354.2,420.3 357.7,416.7 355.7,414.7 352.1,418.3 348.6,414.7 346.6,416.7 
		350.1,420.3 346.6,423.8 348.6,425.9 	"/>
</g>
<g>
	<polygon points="-44.4,184.9 -40.9,188.5 -38.9,186.4 -42.4,182.9 -38.9,179.3 -40.9,177.3 -44.4,180.9 -48,177.3 -50,179.3 
		-46.5,182.9 -50,186.4 -48,188.5 	"/>
	<polygon points="0.6,236.6 4.1,240.2 6.1,238.1 2.6,234.6 6.1,231 4.1,229 0.6,232.6 -3,229 -5,231 -1.5,234.6 -5,238.1 -3,240.2 	
		"/>
	<polygon points="185.3,182.3 188.8,185.9 190.9,183.9 187.3,180.3 190.9,176.8 188.8,174.7 185.3,178.3 181.7,174.7 179.7,176.8 
		183.3,180.3 179.7,183.9 181.7,185.9 	"/>
	<polygon points="118.3,279.3 121.8,282.9 123.9,280.9 120.3,277.3 123.9,273.8 121.8,271.7 118.3,275.3 114.7,271.7 112.7,273.8 
		116.3,277.3 112.7,280.9 114.7,282.9 	"/>
	<polygon points="91.3,209.3 94.8,212.9 96.9,210.9 93.3,207.3 96.9,203.8 94.8,201.7 91.3,205.3 87.7,201.7 85.7,203.8 89.3,207.3 
		85.7,210.9 87.7,212.9 	"/>
	<polygon points="-41.4,328.6 -37.9,332.2 -35.9,330.1 -39.4,326.6 -35.9,323 -37.9,321 -41.4,324.6 -45,321 -47,323 -43.5,326.6 
		-47,330.1 -45,332.2 	"/>
	<polygon points="196,380.6 199.6,384.2 201.6,382.1 198,378.6 201.6,375 199.6,373 196,376.6 192.5,373 190.4,375 194,378.6 
		190.4,382.1 192.5,384.2 	"/>
	<polygon points="97.6,366.6 101.1,370.2 103.1,368.1 99.6,364.6 103.1,361 101.1,359 97.6,362.6 94,359 92,361 95.5,364.6 
		92,368.1 94,370.2 	"/>
	<polygon points="27.6,419.6 31.1,423.2 33.1,421.1 29.6,417.6 33.1,414 31.1,412 27.6,415.6 24,412 22,414 25.5,417.6 22,421.1 
		24,423.2 	"/>
	<polygon points="-166,296.6 -162.4,300.2 -160.4,298.1 -164,294.6 -160.4,291 -162.4,289 -166,292.6 -169.5,289 -171.6,291 
		-168,294.6 -171.6,298.1 -169.5,300.2 	"/>
	<polygon points="-103.7,453.9 -100.2,457.4 -98.1,455.4 -101.7,451.9 -98.1,448.3 -100.2,446.3 -103.7,449.8 -107.3,446.3 
		-109.3,448.3 -105.7,451.9 -109.3,455.4 -107.3,457.4 	"/>
	<polygon points="1543,184.9 1546.5,188.5 1548.5,186.4 1545,182.9 1548.5,179.3 1546.5,177.3 1543,180.9 1539.4,177.3 
		1537.4,179.3 1540.9,182.9 1537.4,186.4 1539.4,188.5 	"/>
	<polygon points="1546,328.6 1549.5,332.2 1551.5,330.1 1548,326.6 1551.5,323 1549.5,321 1546,324.6 1542.4,321 1540.4,323 
		1543.9,326.6 1540.4,330.1 1542.4,332.2 	"/>
	<polygon points="1421.4,296.6 1425,300.2 1427,298.1 1423.4,294.6 1427,291 1425,289 1421.4,292.6 1417.9,289 1415.8,291 
		1419.4,294.6 1415.8,298.1 1417.9,300.2 	"/>
	<polygon points="1483.7,453.9 1487.2,457.4 1489.3,455.4 1485.7,451.9 1489.3,448.3 1487.2,446.3 1483.7,449.8 1480.1,446.3 
		1478.1,448.3 1481.7,451.9 1478.1,455.4 1480.1,457.4 	"/>
	<polygon points="317.3,229.3 320.8,232.9 322.9,230.9 319.3,227.3 322.9,223.8 320.8,221.7 317.3,225.3 313.7,221.7 311.7,223.8 
		315.3,227.3 311.7,230.9 313.7,232.9 	"/>
	<polygon points="286.3,300.3 284.3,298.3 280.7,301.8 277.2,298.3 275.1,300.3 278.7,303.9 275.1,307.4 277.2,309.4 280.7,305.9 
		284.3,309.4 286.3,307.4 282.8,303.9 	"/>
	<polygon points="490.6,272.6 494.1,276.2 496.1,274.1 492.6,270.6 496.1,267 494.1,265 490.6,268.6 487,265 485,267 488.5,270.6 
		485,274.1 487,276.2 	"/>
	<polygon points="648.3,195.3 651.8,198.9 653.9,196.9 650.3,193.3 653.9,189.8 651.8,187.7 648.3,191.3 644.7,187.7 642.7,189.8 
		646.3,193.3 642.7,196.9 644.7,198.9 	"/>
	<polygon points="666.6,331.6 670.1,335.2 672.1,333.1 668.6,329.6 672.1,326 670.1,324 666.6,327.6 663,324 661,326 664.5,329.6 
		661,333.1 663,335.2 	"/>
	<polygon points="813.6,222.6 817.1,226.2 819.1,224.1 815.6,220.6 819.1,217 817.1,215 813.6,218.6 810,215 808,217 811.5,220.6 
		808,224.1 810,226.2 	"/>
	<polygon points="770.3,302.9 773.8,306.4 775.9,304.4 772.3,300.9 775.9,297.3 773.8,295.3 770.3,298.8 766.7,295.3 764.7,297.3 
		768.3,300.9 764.7,304.4 766.7,306.4 	"/>
	<polygon points="972.6,207.6 976.1,211.2 978.1,209.1 974.6,205.6 978.1,202 976.1,200 972.6,203.6 969,200 967,202 970.5,205.6 
		967,209.1 969,211.2 	"/>
	<polygon points="955.3,304.3 958.8,307.9 960.9,305.9 957.3,302.3 960.9,298.8 958.8,296.7 955.3,300.3 951.7,296.7 949.7,298.8 
		953.3,302.3 949.7,305.9 951.7,307.9 	"/>
	<polygon points="1006.3,282.3 1009.8,285.9 1011.9,283.9 1008.3,280.3 1011.9,276.8 1009.8,274.7 1006.3,278.3 1002.7,274.7 
		1000.7,276.8 1004.3,280.3 1000.7,283.9 1002.7,285.9 	"/>
	<polygon points="1078.3,396.9 1081.8,400.4 1083.9,398.4 1080.3,394.9 1083.9,391.3 1081.8,389.3 1078.3,392.8 1074.7,389.3 
		1072.7,391.3 1076.3,394.9 1072.7,398.4 1074.7,400.4 	"/>
	<polygon points="1188.6,269.6 1192.1,273.2 1194.1,271.1 1190.6,267.6 1194.1,264 1192.1,262 1188.6,265.6 1185,262 1183,264 
		1186.5,267.6 1183,271.1 1185,273.2 	"/>
	<polygon points="848,394.6 851.6,398.2 853.6,396.1 850,392.6 853.6,389 851.6,387 848,390.6 844.5,387 842.4,389 846,392.6 
		842.4,396.1 844.5,398.2 	"/>
	<polygon points="744.6,450.6 748.1,454.2 750.1,452.1 746.6,448.6 750.1,445 748.1,443 744.6,446.6 741,443 739,445 742.5,448.6 
		739,452.1 741,454.2 	"/>
	<polygon points="1204,155.6 1207.6,159.2 1209.6,157.1 1206,153.6 1209.6,150 1207.6,148 1204,151.6 1200.5,148 1198.4,150 
		1202,153.6 1198.4,157.1 1200.5,159.2 	"/>
	<polygon points="1027,130.6 1030.6,134.2 1032.6,132.1 1029,128.6 1032.6,125 1030.6,123 1027,126.6 1023.5,123 1021.4,125 
		1025,128.6 1021.4,132.1 1023.5,134.2 	"/>
	<polygon points="1293,291.6 1296.6,295.2 1298.6,293.1 1295,289.6 1298.6,286 1296.6,284 1293,287.6 1289.5,284 1287.4,286 
		1291,289.6 1287.4,293.1 1289.5,295.2 	"/>
	<polygon points="1378.3,213.9 1381.8,217.4 1383.9,215.4 1380.3,211.9 1383.9,208.3 1381.8,206.3 1378.3,209.8 1374.7,206.3 
		1372.7,208.3 1376.3,211.9 1372.7,215.4 1374.7,217.4 	"/>
	<polygon points="1255.3,392.9 1258.8,396.4 1260.9,394.4 1257.3,390.9 1260.9,387.3 1258.8,385.3 1255.3,388.8 1251.7,385.3 
		1249.7,387.3 1253.3,390.9 1249.7,394.4 1251.7,396.4 	"/>
	<polygon points="418.6,325.6 422.1,329.2 424.1,327.1 420.6,323.6 424.1,320 422.1,318 418.6,321.6 415,318 413,320 416.5,323.6 
		413,327.1 415,329.2 	"/>
	<polygon points="408.6,165.6 412.1,169.2 414.1,167.1 410.6,163.6 414.1,160 412.1,158 408.6,161.6 405,158 403,160 406.5,163.6 
		403,167.1 405,169.2 	"/>
	<polygon points="526.3,313.3 529.8,316.9 531.9,314.9 528.3,311.3 531.9,307.8 529.8,305.7 526.3,309.3 522.7,305.7 520.7,307.8 
		524.3,311.3 520.7,314.9 522.7,316.9 	"/>
	<polygon points="484.3,391.7 482.3,389.7 478.7,393.3 475.2,389.7 473.1,391.7 476.7,395.3 473.1,398.9 475.2,400.9 478.7,397.3 
		482.3,400.9 484.3,398.9 480.8,395.3 	"/>
	<polygon points="163,130.6 166.6,134.2 168.6,132.1 165,128.6 168.6,125 166.6,123 163,126.6 159.5,123 157.4,125 161,128.6 
		157.4,132.1 159.5,134.2 	"/>
</g>
<g>
	<polygon points="28.5,-120.7 32.1,-117.1 34.1,-119.1 30.5,-122.7 34.1,-126.3 32.1,-128.3 28.5,-124.7 25,-128.3 22.9,-126.3 
		26.5,-122.7 22.9,-119.1 25,-117.1 	"/>
	<polygon points="73.5,-69 77.1,-65.4 79.1,-67.4 75.5,-71 79.1,-74.6 77.1,-76.6 73.5,-73 70,-76.6 67.9,-74.6 71.5,-71 
		67.9,-67.4 70,-65.4 	"/>
	<polygon points="258.2,-123.2 261.8,-119.7 263.8,-121.7 260.3,-125.3 263.8,-128.8 261.8,-130.9 258.2,-127.3 254.7,-130.9 
		252.7,-128.8 256.2,-125.3 252.7,-121.7 254.7,-119.7 	"/>
	<polygon points="191.2,-26.2 194.8,-22.7 196.8,-24.7 193.3,-28.3 196.8,-31.8 194.8,-33.9 191.2,-30.3 187.7,-33.9 185.7,-31.8 
		189.2,-28.3 185.7,-24.7 187.7,-22.7 	"/>
	<polygon points="164.2,-96.2 167.8,-92.7 169.8,-94.7 166.3,-98.3 169.8,-101.8 167.8,-103.9 164.2,-100.3 160.7,-103.9 
		158.7,-101.8 162.2,-98.3 158.7,-94.7 160.7,-92.7 	"/>
	<polygon points="31.5,23 35.1,26.6 37.1,24.6 33.5,21 37.1,17.4 35.1,15.4 31.5,19 28,15.4 25.9,17.4 29.5,21 25.9,24.6 28,26.6 	
		"/>
	<polygon points="269,75 272.5,78.6 274.6,76.6 271,73 274.6,69.4 272.5,67.4 269,71 265.4,67.4 263.4,69.4 267,73 263.4,76.6 
		265.4,78.6 	"/>
	<polygon points="170.5,61 174.1,64.6 176.1,62.6 172.5,59 176.1,55.4 174.1,53.4 170.5,57 167,53.4 164.9,55.4 168.5,59 
		164.9,62.6 167,64.6 	"/>
	<polygon points="100.5,114 104.1,117.6 106.1,115.6 102.5,112 106.1,108.4 104.1,106.4 100.5,110 97,106.4 94.9,108.4 98.5,112 
		94.9,115.6 97,117.6 	"/>
	<polygon points="-93,-9 -89.5,-5.4 -87.4,-7.4 -91,-11 -87.4,-14.6 -89.5,-16.6 -93,-13 -96.6,-16.6 -98.6,-14.6 -95,-11 
		-98.6,-7.4 -96.6,-5.4 	"/>
	<polygon points="-30.8,148.3 -27.2,151.9 -25.2,149.8 -28.7,146.3 -25.2,142.7 -27.2,140.7 -30.8,144.2 -34.3,140.7 -36.3,142.7 
		-32.8,146.3 -36.3,149.8 -34.3,151.9 	"/>
	<polygon points="1615.9,-120.7 1619.5,-117.1 1621.5,-119.1 1617.9,-122.7 1621.5,-126.3 1619.5,-128.3 1615.9,-124.7 
		1612.4,-128.3 1610.3,-126.3 1613.9,-122.7 1610.3,-119.1 1612.4,-117.1 	"/>
	<polygon points="1618.9,23 1622.5,26.6 1624.5,24.6 1620.9,21 1624.5,17.4 1622.5,15.4 1618.9,19 1615.4,15.4 1613.3,17.4 
		1616.9,21 1613.3,24.6 1615.4,26.6 	"/>
	<polygon points="1494.4,-9 1497.9,-5.4 1500,-7.4 1496.4,-11 1500,-14.6 1497.9,-16.6 1494.4,-13 1490.8,-16.6 1488.8,-14.6 
		1492.4,-11 1488.8,-7.4 1490.8,-5.4 	"/>
	<polygon points="1556.7,148.3 1560.2,151.9 1562.2,149.8 1558.7,146.3 1562.2,142.7 1560.2,140.7 1556.7,144.2 1553.1,140.7 
		1551.1,142.7 1554.6,146.3 1551.1,149.8 1553.1,151.9 	"/>
	<polygon points="390.2,-76.2 393.8,-72.7 395.8,-74.7 392.3,-78.3 395.8,-81.8 393.8,-83.9 390.2,-80.3 386.7,-83.9 384.7,-81.8 
		388.2,-78.3 384.7,-74.7 386.7,-72.7 	"/>
	<polygon points="359.3,-5.3 357.2,-7.3 353.7,-3.7 350.1,-7.3 348.1,-5.3 351.7,-1.7 348.1,1.8 350.1,3.9 353.7,0.3 357.2,3.9 
		359.3,1.8 355.7,-1.7 	"/>
	<polygon points="563.5,-33 567.1,-29.4 569.1,-31.4 565.5,-35 569.1,-38.6 567.1,-40.6 563.5,-37 560,-40.6 557.9,-38.6 561.5,-35 
		557.9,-31.4 560,-29.4 	"/>
	<polygon points="721.2,-110.2 724.8,-106.7 726.8,-108.7 723.3,-112.3 726.8,-115.8 724.8,-117.9 721.2,-114.3 717.7,-117.9 
		715.7,-115.8 719.2,-112.3 715.7,-108.7 717.7,-106.7 	"/>
	<polygon points="699,77 702.6,80.6 704.6,78.6 701,75 704.6,71.5 702.6,69.4 699,73 695.4,69.4 693.4,71.5 697,75 693.4,78.6 
		695.4,80.6 	"/>
	<polygon points="886.5,-83 890.1,-79.4 892.1,-81.4 888.5,-85 892.1,-88.6 890.1,-90.6 886.5,-87 883,-90.6 880.9,-88.6 884.5,-85 
		880.9,-81.4 883,-79.4 	"/>
	<polygon points="843.2,-2.7 846.8,0.9 848.8,-1.2 845.3,-4.7 848.8,-8.3 846.8,-10.3 843.2,-6.8 839.7,-10.3 837.7,-8.3 
		841.2,-4.7 837.7,-1.2 839.7,0.9 	"/>
	<polygon points="1045.5,-98 1049.1,-94.4 1051.1,-96.4 1047.5,-100 1051.1,-103.6 1049.1,-105.6 1045.5,-102 1042,-105.6 
		1039.9,-103.6 1043.5,-100 1039.9,-96.4 1042,-94.4 	"/>
	<polygon points="1028.2,-1.2 1031.8,2.3 1033.8,0.3 1030.3,-3.3 1033.8,-6.8 1031.8,-8.9 1028.2,-5.3 1024.7,-8.9 1022.7,-6.8 
		1026.2,-3.3 1022.7,0.3 1024.7,2.3 	"/>
	<polygon points="1079.2,-23.2 1082.8,-19.7 1084.8,-21.7 1081.3,-25.3 1084.8,-28.8 1082.8,-30.9 1079.2,-27.3 1075.7,-30.9 
		1073.7,-28.8 1077.2,-25.3 1073.7,-21.7 1075.7,-19.7 	"/>
	<polygon points="1151.2,91.3 1154.8,94.9 1156.8,92.8 1153.3,89.3 1156.8,85.7 1154.8,83.7 1151.2,87.2 1147.7,83.7 1145.7,85.7 
		1149.2,89.3 1145.7,92.8 1147.7,94.9 	"/>
	<polygon points="1261.5,-36 1265.1,-32.4 1267.1,-34.4 1263.5,-38 1267.1,-41.6 1265.1,-43.6 1261.5,-40 1258,-43.6 1255.9,-41.6 
		1259.5,-38 1255.9,-34.4 1258,-32.4 	"/>
	<polygon points="921,89 924.5,92.6 926.6,90.6 923,87 926.6,83.4 924.5,81.4 921,85 917.4,81.4 915.4,83.4 919,87 915.4,90.6 
		917.4,92.6 	"/>
	<polygon points="817.5,145 821.1,148.6 823.1,146.6 819.5,143 823.1,139.4 821.1,137.4 817.5,141 814,137.4 811.9,139.4 815.5,143 
		811.9,146.6 814,148.6 	"/>
	<polygon points="1277,-150 1280.5,-146.4 1282.6,-148.4 1279,-152 1282.6,-155.6 1280.5,-157.6 1277,-154 1273.4,-157.6 
		1271.4,-155.6 1275,-152 1271.4,-148.4 1273.4,-146.4 	"/>
	<polygon points="1100,-175 1103.5,-171.4 1105.6,-173.4 1102,-177 1105.6,-180.6 1103.5,-182.6 1100,-179 1096.4,-182.6 
		1094.4,-180.6 1098,-177 1094.4,-173.4 1096.4,-171.4 	"/>
	<polygon points="1366,-14 1369.5,-10.4 1371.6,-12.4 1368,-16 1371.6,-19.6 1369.5,-21.6 1366,-18 1362.4,-21.6 1360.4,-19.6 
		1364,-16 1360.4,-12.4 1362.4,-10.4 	"/>
	<polygon points="1451.2,-91.7 1454.8,-88.1 1456.8,-90.2 1453.3,-93.7 1456.8,-97.3 1454.8,-99.3 1451.2,-95.8 1447.7,-99.3 
		1445.7,-97.3 1449.2,-93.7 1445.7,-90.2 1447.7,-88.1 	"/>
	<polygon points="1328.2,87.3 1331.8,90.9 1333.8,88.8 1330.3,85.3 1333.8,81.7 1331.8,79.7 1328.2,83.2 1324.7,79.7 1322.7,81.7 
		1326.2,85.3 1322.7,88.8 1324.7,90.9 	"/>
	<polygon points="491.5,20 495.1,23.6 497.1,21.6 493.5,18 497.1,14.4 495.1,12.4 491.5,16 488,12.4 485.9,14.4 489.5,18 
		485.9,21.6 488,23.6 	"/>
	<polygon points="481.5,-140 485.1,-136.4 487.1,-138.4 483.5,-142 487.1,-145.6 485.1,-147.6 481.5,-144 478,-147.6 475.9,-145.6 
		479.5,-142 475.9,-138.4 478,-136.4 	"/>
	<polygon points="599.2,7.8 602.8,11.3 604.8,9.3 601.3,5.7 604.8,2.2 602.8,0.1 599.2,3.7 595.7,0.1 593.7,2.2 597.2,5.7 
		593.7,9.3 595.7,11.3 	"/>
	<polygon points="557.3,86.2 555.2,84.1 551.7,87.7 548.1,84.1 546.1,86.2 549.7,89.7 546.1,93.3 548.1,95.3 551.7,91.7 555.2,95.3 
		557.3,93.3 553.7,89.7 	"/>
	<polygon points="431.5,116 435.1,119.6 437.1,117.6 433.5,114 437.1,110.4 435.1,108.4 431.5,112 428,108.4 425.9,110.4 429.5,114 
		425.9,117.6 428,119.6 	"/>
	<polygon points="236,-175 239.5,-171.4 241.6,-173.4 238,-177 241.6,-180.6 239.5,-182.6 236,-179 232.4,-182.6 230.4,-180.6 
		234,-177 230.4,-173.4 232.4,-171.4 	"/>
</g>
<g>
	<polygon points="28.5,794.8 32.1,798.3 34.1,796.3 30.5,792.7 34.1,789.2 32.1,787.2 28.5,790.7 25,787.2 22.9,789.2 26.5,792.7 
		22.9,796.3 25,798.3 	"/>
	<polygon points="73.5,846.5 77.1,850 79.1,848 75.5,844.4 79.1,840.9 77.1,838.9 73.5,842.4 70,838.9 67.9,840.9 71.5,844.4 
		67.9,848 70,850 	"/>
	<polygon points="258.2,792.2 261.8,795.8 263.8,793.7 260.3,790.2 263.8,786.6 261.8,784.6 258.2,788.1 254.7,784.6 252.7,786.6 
		256.2,790.2 252.7,793.7 254.7,795.8 	"/>
	<polygon points="191.2,889.2 194.8,892.8 196.8,890.7 193.3,887.2 196.8,883.6 194.8,881.6 191.2,885.1 187.7,881.6 185.7,883.6 
		189.2,887.2 185.7,890.7 187.7,892.8 	"/>
	<polygon points="164.2,819.2 167.8,822.8 169.8,820.7 166.3,817.2 169.8,813.6 167.8,811.6 164.2,815.1 160.7,811.6 158.7,813.6 
		162.2,817.2 158.7,820.7 160.7,822.8 	"/>
	<polygon points="31.5,938.5 35.1,942 37.1,940 33.5,936.4 37.1,932.9 35.1,930.9 31.5,934.4 28,930.9 25.9,932.9 29.5,936.4 
		25.9,940 28,942 	"/>
	<polygon points="269,990.5 272.5,994 274.6,992 271,988.4 274.6,984.9 272.5,982.9 269,986.4 265.4,982.9 263.4,984.9 267,988.4 
		263.4,992 265.4,994 	"/>
	<polygon points="170.5,976.5 174.1,980 176.1,978 172.5,974.4 176.1,970.9 174.1,968.9 170.5,972.4 167,968.9 164.9,970.9 
		168.5,974.4 164.9,978 167,980 	"/>
	<polygon points="100.5,1029.5 104.1,1033 106.1,1031 102.5,1027.4 106.1,1023.9 104.1,1021.9 100.5,1025.4 97,1021.9 94.9,1023.9 
		98.5,1027.4 94.9,1031 97,1033 	"/>
	<polygon points="-93,906.5 -89.5,910 -87.4,908 -91,904.4 -87.4,900.9 -89.5,898.9 -93,902.4 -96.6,898.9 -98.6,900.9 -95,904.4 
		-98.6,908 -96.6,910 	"/>
	<polygon points="-30.8,1063.7 -27.2,1067.3 -25.2,1065.3 -28.7,1061.7 -25.2,1058.2 -27.2,1056.1 -30.8,1059.7 -34.3,1056.1 
		-36.3,1058.2 -32.8,1061.7 -36.3,1065.3 -34.3,1067.3 	"/>
	<polygon points="1615.9,794.8 1619.5,798.3 1621.5,796.3 1617.9,792.7 1621.5,789.2 1619.5,787.2 1615.9,790.7 1612.4,787.2 
		1610.3,789.2 1613.9,792.7 1610.3,796.3 1612.4,798.3 	"/>
	<polygon points="1618.9,938.5 1622.5,942 1624.5,940 1620.9,936.4 1624.5,932.9 1622.5,930.9 1618.9,934.4 1615.4,930.9 
		1613.3,932.9 1616.9,936.4 1613.3,940 1615.4,942 	"/>
	<polygon points="1494.4,906.5 1497.9,910 1500,908 1496.4,904.4 1500,900.9 1497.9,898.9 1494.4,902.4 1490.8,898.9 1488.8,900.9 
		1492.4,904.4 1488.8,908 1490.8,910 	"/>
	<polygon points="1556.7,1063.7 1560.2,1067.3 1562.2,1065.3 1558.7,1061.7 1562.2,1058.2 1560.2,1056.1 1556.7,1059.7 
		1553.1,1056.1 1551.1,1058.2 1554.6,1061.7 1551.1,1065.3 1553.1,1067.3 	"/>
	<polygon points="390.2,839.2 393.8,842.8 395.8,840.7 392.3,837.2 395.8,833.6 393.8,831.6 390.2,835.1 386.7,831.6 384.7,833.6 
		388.2,837.2 384.7,840.7 386.7,842.8 	"/>
	<polygon points="359.3,910.2 357.2,908.1 353.7,911.7 350.1,908.1 348.1,910.2 351.7,913.7 348.1,917.3 350.1,919.3 353.7,915.8 
		357.2,919.3 359.3,917.3 355.7,913.7 	"/>
	<polygon points="563.5,882.5 567.1,886 569.1,884 565.5,880.4 569.1,876.9 567.1,874.9 563.5,878.4 560,874.9 557.9,876.9 
		561.5,880.4 557.9,884 560,886 	"/>
	<polygon points="721.2,805.2 724.8,808.8 726.8,806.7 723.3,803.2 726.8,799.6 724.8,797.6 721.2,801.1 717.7,797.6 715.7,799.6 
		719.2,803.2 715.7,806.7 717.7,808.8 	"/>
	<polygon points="699,992.5 702.6,996 704.6,994 701,990.5 704.6,986.9 702.6,984.9 699,988.4 695.4,984.9 693.4,986.9 697,990.5 
		693.4,994 695.4,996 	"/>
	<polygon points="886.5,832.5 890.1,836 892.1,834 888.5,830.4 892.1,826.9 890.1,824.9 886.5,828.4 883,824.9 880.9,826.9 
		884.5,830.4 880.9,834 883,836 	"/>
	<polygon points="843.2,912.7 846.8,916.3 848.8,914.3 845.3,910.7 848.8,907.2 846.8,905.1 843.2,908.7 839.7,905.1 837.7,907.2 
		841.2,910.7 837.7,914.3 839.7,916.3 	"/>
	<polygon points="1045.5,817.5 1049.1,821 1051.1,819 1047.5,815.4 1051.1,811.9 1049.1,809.9 1045.5,813.4 1042,809.9 
		1039.9,811.9 1043.5,815.4 1039.9,819 1042,821 	"/>
	<polygon points="1028.2,914.2 1031.8,917.8 1033.8,915.7 1030.3,912.2 1033.8,908.6 1031.8,906.6 1028.2,910.1 1024.7,906.6 
		1022.7,908.6 1026.2,912.2 1022.7,915.7 1024.7,917.8 	"/>
	<polygon points="1079.2,892.2 1082.8,895.8 1084.8,893.7 1081.3,890.2 1084.8,886.6 1082.8,884.6 1079.2,888.1 1075.7,884.6 
		1073.7,886.6 1077.2,890.2 1073.7,893.7 1075.7,895.8 	"/>
	<polygon points="1151.2,1006.7 1154.8,1010.3 1156.8,1008.3 1153.3,1004.7 1156.8,1001.2 1154.8,999.1 1151.2,1002.7 1147.7,999.1 
		1145.7,1001.2 1149.2,1004.7 1145.7,1008.3 1147.7,1010.3 	"/>
	<polygon points="1261.5,879.5 1265.1,883 1267.1,881 1263.5,877.4 1267.1,873.9 1265.1,871.9 1261.5,875.4 1258,871.9 
		1255.9,873.9 1259.5,877.4 1255.9,881 1258,883 	"/>
	<polygon points="921,1004.5 924.5,1008 926.6,1006 923,1002.4 926.6,998.9 924.5,996.9 921,1000.4 917.4,996.9 915.4,998.9 
		919,1002.4 915.4,1006 917.4,1008 	"/>
	<polygon points="817.5,1060.5 821.1,1064 823.1,1062 819.5,1058.4 823.1,1054.9 821.1,1052.9 817.5,1056.4 814,1052.9 
		811.9,1054.9 815.5,1058.4 811.9,1062 814,1064 	"/>
	<polygon points="1277,765.5 1280.5,769 1282.6,767 1279,763.4 1282.6,759.9 1280.5,757.9 1277,761.4 1273.4,757.9 1271.4,759.9 
		1275,763.4 1271.4,767 1273.4,769 	"/>
	<polygon points="1100,740.5 1103.5,744 1105.6,742 1102,738.4 1105.6,734.9 1103.5,732.9 1100,736.4 1096.4,732.9 1094.4,734.9 
		1098,738.4 1094.4,742 1096.4,744 	"/>
	<polygon points="1366,901.5 1369.5,905 1371.6,903 1368,899.4 1371.6,895.9 1369.5,893.9 1366,897.4 1362.4,893.9 1360.4,895.9 
		1364,899.4 1360.4,903 1362.4,905 	"/>
	<polygon points="1451.2,823.7 1454.8,827.3 1456.8,825.3 1453.3,821.7 1456.8,818.2 1454.8,816.1 1451.2,819.7 1447.7,816.1 
		1445.7,818.2 1449.2,821.7 1445.7,825.3 1447.7,827.3 	"/>
	<polygon points="1328.2,1002.7 1331.8,1006.3 1333.8,1004.3 1330.3,1000.7 1333.8,997.2 1331.8,995.1 1328.2,998.7 1324.7,995.1 
		1322.7,997.2 1326.2,1000.7 1322.7,1004.3 1324.7,1006.3 	"/>
	<polygon points="491.5,935.5 495.1,939 497.1,937 493.5,933.4 497.1,929.9 495.1,927.9 491.5,931.4 488,927.9 485.9,929.9 
		489.5,933.4 485.9,937 488,939 	"/>
	<polygon points="481.5,775.5 485.1,779 487.1,777 483.5,773.4 487.1,769.9 485.1,767.9 481.5,771.4 478,767.9 475.9,769.9 
		479.5,773.4 475.9,777 478,779 	"/>
	<polygon points="599.2,923.2 602.8,926.8 604.8,924.7 601.3,921.2 604.8,917.6 602.8,915.6 599.2,919.1 595.7,915.6 593.7,917.6 
		597.2,921.2 593.7,924.7 595.7,926.8 	"/>
	<polygon points="557.3,1001.6 555.2,999.6 551.7,1003.1 548.1,999.6 546.1,1001.6 549.7,1005.2 546.1,1008.7 548.1,1010.7 
		551.7,1007.2 555.2,1010.7 557.3,1008.7 553.7,1005.2 	"/>
	<polygon points="431.5,1031.5 435.1,1035 437.1,1033 433.5,1029.4 437.1,1025.9 435.1,1023.9 431.5,1027.4 428,1023.9 
		425.9,1025.9 429.5,1029.4 425.9,1033 428,1035 	"/>
	<polygon points="319.4,750 323,753.6 325,751.6 321.4,748 325,744.4 323,742.4 319.4,746 315.9,742.4 313.8,744.4 317.4,748 
		313.8,751.6 315.9,753.6 	"/>
</g>
<g>
	<polygon points="-39.4,1076.3 -35.9,1079.9 -33.9,1077.9 -37.4,1074.3 -33.9,1070.7 -35.9,1068.7 -39.4,1072.3 -43,1068.7 
		-45,1070.7 -41.5,1074.3 -45,1077.9 -43,1079.9 	"/>
	<polygon points="5.6,1128 9.1,1131.6 11.1,1129.6 7.6,1126 11.1,1122.4 9.1,1120.4 5.6,1124 2,1120.4 0,1122.4 3.5,1126 0,1129.6 
		2,1131.6 	"/>
	<polygon points="190.3,1073.8 193.9,1077.3 195.9,1075.3 192.3,1071.7 195.9,1068.2 193.9,1066.1 190.3,1069.7 186.7,1066.1 
		184.7,1068.2 188.3,1071.7 184.7,1075.3 186.7,1077.3 	"/>
	<polygon points="123.3,1170.8 126.9,1174.3 128.9,1172.3 125.3,1168.7 128.9,1165.2 126.9,1163.1 123.3,1166.7 119.7,1163.1 
		117.7,1165.2 121.3,1168.7 117.7,1172.3 119.7,1174.3 	"/>
	<polygon points="96.3,1100.8 99.9,1104.3 101.9,1102.3 98.3,1098.7 101.9,1095.2 99.9,1093.1 96.3,1096.7 92.7,1093.1 90.7,1095.2 
		94.3,1098.7 90.7,1102.3 92.7,1104.3 	"/>
	<polygon points="-36.4,1220 -32.9,1223.6 -30.9,1221.6 -34.4,1218 -30.9,1214.4 -32.9,1212.4 -36.4,1216 -40,1212.4 -42,1214.4 
		-38.5,1218 -42,1221.6 -40,1223.6 	"/>
	<polygon points="201,1272 204.6,1275.6 206.6,1273.6 203,1270 206.6,1266.4 204.6,1264.4 201,1268 197.5,1264.4 195.4,1266.4 
		199,1270 195.4,1273.6 197.5,1275.6 	"/>
	<polygon points="102.6,1258 106.1,1261.6 108.1,1259.6 104.6,1256 108.1,1252.4 106.1,1250.4 102.6,1254 99,1250.4 97,1252.4 
		100.5,1256 97,1259.6 99,1261.6 	"/>
	<polygon points="32.6,1311 36.1,1314.6 38.1,1312.6 34.6,1309 38.1,1305.4 36.1,1303.4 32.6,1307 29,1303.4 27,1305.4 30.5,1309 
		27,1312.6 29,1314.6 	"/>
	<polygon points="-161,1188 -157.4,1191.6 -155.4,1189.6 -159,1186 -155.4,1182.4 -157.4,1180.4 -161,1184 -164.5,1180.4 
		-166.6,1182.4 -163,1186 -166.6,1189.6 -164.5,1191.6 	"/>
	<polygon points="-98.7,1345.3 -95.1,1348.9 -93.1,1346.8 -96.7,1343.3 -93.1,1339.7 -95.1,1337.7 -98.7,1341.2 -102.3,1337.7 
		-104.3,1339.7 -100.7,1343.3 -104.3,1346.8 -102.3,1348.9 	"/>
	<polygon points="1481,1023 1484.6,1026.6 1486.6,1024.6 1483,1021 1486.6,1017.4 1484.6,1015.4 1481,1019 1477.5,1015.4 
		1475.4,1017.4 1479,1021 1475.4,1024.6 1477.5,1026.6 	"/>
	<polygon points="1551,1220 1554.5,1223.6 1556.5,1221.6 1553,1218 1556.5,1214.4 1554.5,1212.4 1551,1216 1547.4,1212.4 
		1545.4,1214.4 1548.9,1218 1545.4,1221.6 1547.4,1223.6 	"/>
	<polygon points="1426.4,1188 1430,1191.6 1432,1189.6 1428.4,1186 1432,1182.4 1430,1180.4 1426.4,1184 1422.9,1180.4 
		1420.8,1182.4 1424.4,1186 1420.8,1189.6 1422.9,1191.6 	"/>
	<polygon points="1488.7,1345.3 1492.3,1348.9 1494.3,1346.8 1490.7,1343.3 1494.3,1339.7 1492.3,1337.7 1488.7,1341.2 
		1485.1,1337.7 1483.1,1339.7 1486.7,1343.3 1483.1,1346.8 1485.1,1348.9 	"/>
	<polygon points="322.3,1120.8 325.9,1124.3 327.9,1122.3 324.3,1118.7 327.9,1115.2 325.9,1113.1 322.3,1116.7 318.7,1113.1 
		316.7,1115.2 320.3,1118.7 316.7,1122.3 318.7,1124.3 	"/>
	<polygon points="291.3,1191.7 289.3,1189.7 285.7,1193.3 282.2,1189.7 280.2,1191.7 283.7,1195.3 280.2,1198.8 282.2,1200.9 
		285.7,1197.3 289.3,1200.9 291.3,1198.8 287.8,1195.3 	"/>
	<polygon points="495.6,1164 499.1,1167.6 501.1,1165.6 497.6,1162 501.1,1158.4 499.1,1156.4 495.6,1160 492,1156.4 490,1158.4 
		493.5,1162 490,1165.6 492,1167.6 	"/>
	<polygon points="653.3,1086.8 656.9,1090.3 658.9,1088.3 655.3,1084.7 658.9,1081.2 656.9,1079.1 653.3,1082.7 649.7,1079.1 
		647.7,1081.2 651.3,1084.7 647.7,1088.3 649.7,1090.3 	"/>
	<polygon points="631,1274 634.6,1277.6 636.6,1275.6 633.1,1272 636.6,1268.5 634.6,1266.4 631,1270 627.5,1266.4 625.5,1268.5 
		629,1272 625.5,1275.6 627.5,1277.6 	"/>
	<polygon points="740.6,1116.6 744.1,1120.1 746.2,1118.1 742.6,1114.6 746.2,1111 744.1,1109 740.6,1112.5 737,1109 735,1111 
		738.6,1114.6 735,1118.1 737,1120.1 	"/>
	<polygon points="775.3,1194.3 778.9,1197.9 780.9,1195.8 777.3,1192.3 780.9,1188.7 778.9,1186.7 775.3,1190.2 771.7,1186.7 
		769.7,1188.7 773.3,1192.3 769.7,1195.8 771.7,1197.9 	"/>
	<polygon points="977.6,1099 981.1,1102.6 983.1,1100.6 979.6,1097 983.1,1093.4 981.1,1091.4 977.6,1095 974,1091.4 972,1093.4 
		975.5,1097 972,1100.6 974,1102.6 	"/>
	<polygon points="960.3,1195.8 963.9,1199.3 965.9,1197.3 962.3,1193.7 965.9,1190.2 963.9,1188.1 960.3,1191.7 956.7,1188.1 
		954.7,1190.2 958.3,1193.7 954.7,1197.3 956.7,1199.3 	"/>
	<polygon points="1011.3,1173.8 1014.9,1177.3 1016.9,1175.3 1013.3,1171.7 1016.9,1168.2 1014.9,1166.1 1011.3,1169.7 
		1007.7,1166.1 1005.7,1168.2 1009.3,1171.7 1005.7,1175.3 1007.7,1177.3 	"/>
	<polygon points="1083.3,1288.3 1086.9,1291.9 1088.9,1289.8 1085.3,1286.3 1088.9,1282.7 1086.9,1280.7 1083.3,1284.2 
		1079.7,1280.7 1077.7,1282.7 1081.3,1286.3 1077.7,1289.8 1079.7,1291.9 	"/>
	<polygon points="1193.6,1161 1197.1,1164.6 1199.1,1162.6 1195.6,1159 1199.1,1155.4 1197.1,1153.4 1193.6,1157 1190,1153.4 
		1188,1155.4 1191.5,1159 1188,1162.6 1190,1164.6 	"/>
	<polygon points="853,1286 856.6,1289.6 858.6,1287.6 855,1284 858.6,1280.4 856.6,1278.4 853,1282 849.5,1278.4 847.4,1280.4 
		851,1284 847.4,1287.6 849.5,1289.6 	"/>
	<polygon points="749.6,1342 753.1,1345.6 755.1,1343.6 751.6,1340 755.1,1336.4 753.1,1334.4 749.6,1338 746,1334.4 744,1336.4 
		747.5,1340 744,1343.6 746,1345.6 	"/>
	<polygon points="1209,1047 1212.6,1050.6 1214.6,1048.6 1211,1045 1214.6,1041.4 1212.6,1039.4 1209,1043 1205.5,1039.4 
		1203.4,1041.4 1207,1045 1203.4,1048.6 1205.5,1050.6 	"/>
	<polygon points="1032,1022 1035.6,1025.6 1037.6,1023.6 1034,1020 1037.6,1016.4 1035.6,1014.4 1032,1018 1028.5,1014.4 
		1026.4,1016.4 1030,1020 1026.4,1023.6 1028.5,1025.6 	"/>
	<polygon points="1298,1183 1301.6,1186.6 1303.6,1184.6 1300,1181 1303.6,1177.4 1301.6,1175.4 1298,1179 1294.5,1175.4 
		1292.4,1177.4 1296,1181 1292.4,1184.6 1294.5,1186.6 	"/>
	<polygon points="1383.3,1105.3 1386.9,1108.9 1388.9,1106.8 1385.3,1103.3 1388.9,1099.7 1386.9,1097.7 1383.3,1101.2 
		1379.7,1097.7 1377.7,1099.7 1381.3,1103.3 1377.7,1106.8 1379.7,1108.9 	"/>
	<polygon points="1260.3,1284.3 1263.9,1287.9 1265.9,1285.8 1262.3,1282.3 1265.9,1278.7 1263.9,1276.7 1260.3,1280.2 
		1256.7,1276.7 1254.7,1278.7 1258.3,1282.3 1254.7,1285.8 1256.7,1287.9 	"/>
	<polygon points="423.6,1217 427.1,1220.6 429.1,1218.6 425.6,1215 429.1,1211.4 427.1,1209.4 423.6,1213 420,1209.4 418,1211.4 
		421.5,1215 418,1218.6 420,1220.6 	"/>
	<polygon points="357,1077 360.6,1080.6 362.6,1078.6 359,1075 362.6,1071.4 360.6,1069.4 357,1073 353.5,1069.4 351.4,1071.4 
		355,1075 351.4,1078.6 353.5,1080.6 	"/>
	<polygon points="531.3,1204.8 534.9,1208.3 536.9,1206.3 533.3,1202.7 536.9,1199.2 534.9,1197.1 531.3,1200.7 527.7,1197.1 
		525.7,1199.2 529.3,1202.7 525.7,1206.3 527.7,1208.3 	"/>
	<polygon points="489.3,1283.2 487.3,1281.1 483.7,1284.7 480.2,1281.1 478.2,1283.2 481.7,1286.7 478.2,1290.3 480.2,1292.3 
		483.7,1288.7 487.3,1292.3 489.3,1290.3 485.8,1286.7 	"/>
	<polygon points="363.6,1313 367.1,1316.6 369.1,1314.6 365.6,1311 369.1,1307.4 367.1,1305.4 363.6,1309 360,1305.4 358,1307.4 
		361.5,1311 358,1314.6 360,1316.6 	"/>
	<polygon points="335,989 338.6,992.6 340.6,990.5 337,987 340.6,983.4 338.6,981.4 335,985 331.4,981.4 329.4,983.4 333,987 
		329.4,990.5 331.4,992.6 	"/>
</g>
</svg>
