<?xml version="1.0" encoding="utf-8"?>
<!-- Generator: Adobe Illustrator 19.2.1, SVG Export Plug-In . SVG Version: 6.00 Build 0)  -->
<svg version="1.1" id="Calque_1" xmlns="http://www.w3.org/2000/svg" xmlns:xlink="http://www.w3.org/1999/xlink" x="0px" y="0px"
	 viewBox="0 0 1600 1200" style="enable-background:new 0 0 1600 1200;" xml:space="preserve">
<style type="text/css">
	.st0{fill:none;stroke:#000000;stroke-width:2;stroke-miterlimit:10;}
</style>
<g>
	<line class="st0" x1="224.7" y1="501.9" x2="239.7" y2="516.9"/>
	<line class="st0" x1="365.9" y1="605.2" x2="381.9" y2="591.2"/>
	<line class="st0" x1="328" y1="537.8" x2="348.9" y2="541.7"/>
	<line class="st0" x1="206.4" y1="610.9" x2="218.9" y2="593.8"/>
	<line class="st0" x1="598.1" y1="556.5" x2="589.1" y2="537.3"/>
	<line class="st0" x1="545.6" y1="446.4" x2="560.6" y2="431.4"/>
	<line class="st0" x1="505.1" y1="592.6" x2="526.2" y2="591.1"/>
	<line class="st0" x1="-7.9" y1="470.4" x2="13.3" y2="470.4"/>
	<line class="st0" x1="265" y1="663.1" x2="283.3" y2="673.7"/>
	<line class="st0" x1="60" y1="703" x2="77.3" y2="690.7"/>
	<line class="st0" x1="441" y1="512" x2="455.3" y2="527.7"/>
	<line class="st0" x1="146.6" y1="563.3" x2="167.7" y2="560.5"/>
	<line class="st0" x1="70.2" y1="504.9" x2="85.2" y2="519.9"/>
	<line class="st0" x1="346.1" y1="751.1" x2="334.2" y2="768.6"/>
	<line class="st0" x1="456.7" y1="690.7" x2="475.1" y2="701.3"/>
	<line class="st0" x1="669.4" y1="598" x2="655.4" y2="613.9"/>
	<line class="st0" x1="743.5" y1="644.1" x2="722.3" y2="645.9"/>
	<line class="st0" x1="637.6" y1="722.4" x2="630.2" y2="702.5"/>
	<line class="st0" x1="926.1" y1="486.7" x2="917.7" y2="506.2"/>
	<line class="st0" x1="884.4" y1="578" x2="863.3" y2="580"/>
	<line class="st0" x1="934.1" y1="649.2" x2="918.7" y2="634.7"/>
	<line class="st0" x1="1109.6" y1="602.7" x2="1091.2" y2="613.3"/>
	<line class="st0" x1="1040" y1="729.3" x2="1019.8" y2="735.6"/>
	<line class="st0" x1="834.5" y1="708.6" x2="834.5" y2="729.8"/>
	<line class="st0" x1="1032.8" y1="532.7" x2="1047.8" y2="547.7"/>
	<line class="st0" x1="1080" y1="529.1" x2="1087.7" y2="509.3"/>
	<line class="st0" x1="1165" y1="685.3" x2="1184.8" y2="692.9"/>
	<line class="st0" x1="1471.9" y1="550.5" x2="1491.9" y2="543.3"/>
	<line class="st0" x1="1028.1" y1="471.8" x2="1049.1" y2="468.7"/>
	<line class="st0" x1="1410.4" y1="497.2" x2="1415.4" y2="476.6"/>
	<line class="st0" x1="1513.6" y1="679.7" x2="1495.2" y2="669.1"/>
	<line class="st0" x1="1526.5" y1="629.8" x2="1536.3" y2="611"/>
	<line class="st0" x1="1586.9" y1="536.1" x2="1607.9" y2="533.7"/>
	<line class="st0" x1="1271.8" y1="496.4" x2="1285" y2="479.8"/>
	<line class="st0" x1="1270.9" y1="588.7" x2="1291.9" y2="585.5"/>
	<line class="st0" x1="1345.5" y1="655" x2="1361.3" y2="669.1"/>
	<line class="st0" x1="1308.8" y1="748.1" x2="1316.3" y2="768"/>
	<line class="st0" x1="794.4" y1="515.9" x2="773.4" y2="513.1"/>
</g>
<g>
	<line class="st0" x1="224.7" y1="171.9" x2="239.7" y2="186.9"/>
	<line class="st0" x1="365.9" y1="275.2" x2="381.9" y2="261.2"/>
	<line class="st0" x1="328" y1="207.8" x2="348.9" y2="211.7"/>
	<line class="st0" x1="206.4" y1="280.9" x2="218.9" y2="263.8"/>
	<line class="st0" x1="598.1" y1="226.5" x2="589.1" y2="207.3"/>
	<line class="st0" x1="545.6" y1="116.4" x2="560.6" y2="101.4"/>
	<line class="st0" x1="505.1" y1="262.6" x2="526.2" y2="261.1"/>
	<line class="st0" x1="-7.9" y1="140.4" x2="13.3" y2="140.4"/>
	<line class="st0" x1="265" y1="333.1" x2="283.3" y2="343.7"/>
	<line class="st0" x1="60" y1="373" x2="77.3" y2="360.7"/>
	<line class="st0" x1="441" y1="182" x2="455.3" y2="197.7"/>
	<line class="st0" x1="146.6" y1="233.3" x2="167.7" y2="230.5"/>
	<line class="st0" x1="70.2" y1="174.9" x2="85.2" y2="189.9"/>
	<line class="st0" x1="346.1" y1="421.1" x2="334.2" y2="438.6"/>
	<line class="st0" x1="456.7" y1="360.7" x2="475.1" y2="371.3"/>
	<line class="st0" x1="669.4" y1="268" x2="655.4" y2="283.9"/>
	<line class="st0" x1="743.5" y1="314.1" x2="722.3" y2="315.9"/>
	<line class="st0" x1="637.6" y1="392.4" x2="630.2" y2="372.5"/>
	<line class="st0" x1="926.1" y1="156.7" x2="917.7" y2="176.2"/>
	<line class="st0" x1="884.4" y1="248" x2="863.3" y2="250"/>
	<line class="st0" x1="934.1" y1="319.2" x2="918.7" y2="304.7"/>
	<line class="st0" x1="1109.6" y1="272.7" x2="1091.2" y2="283.3"/>
	<line class="st0" x1="1040" y1="399.3" x2="1019.8" y2="405.6"/>
	<line class="st0" x1="834.5" y1="378.6" x2="834.5" y2="399.8"/>
	<line class="st0" x1="1032.8" y1="202.7" x2="1047.8" y2="217.7"/>
	<line class="st0" x1="1080" y1="199.1" x2="1087.7" y2="179.3"/>
	<line class="st0" x1="1165" y1="355.3" x2="1184.8" y2="362.9"/>
	<line class="st0" x1="1471.9" y1="220.5" x2="1491.9" y2="213.3"/>
	<line class="st0" x1="1028.1" y1="141.8" x2="1049.1" y2="138.7"/>
	<line class="st0" x1="1410.4" y1="167.2" x2="1415.4" y2="146.6"/>
	<line class="st0" x1="1513.6" y1="349.7" x2="1495.2" y2="339.1"/>
	<line class="st0" x1="1526.5" y1="299.8" x2="1536.3" y2="281"/>
	<line class="st0" x1="1586.9" y1="206.1" x2="1607.9" y2="203.7"/>
	<line class="st0" x1="1271.8" y1="166.4" x2="1285" y2="149.8"/>
	<line class="st0" x1="1270.9" y1="258.7" x2="1291.9" y2="255.5"/>
	<line class="st0" x1="1345.5" y1="325" x2="1361.3" y2="339.1"/>
	<line class="st0" x1="1308.8" y1="418.1" x2="1316.3" y2="438"/>
	<line class="st0" x1="794.4" y1="185.9" x2="773.4" y2="183.1"/>
</g>
<g>
	<line class="st0" x1="224.7" y1="-158.1" x2="239.7" y2="-143.1"/>
	<line class="st0" x1="365.9" y1="-54.8" x2="381.9" y2="-68.8"/>
	<line class="st0" x1="328" y1="-122.2" x2="348.9" y2="-118.3"/>
	<line class="st0" x1="206.4" y1="-49.1" x2="218.9" y2="-66.2"/>
	<line class="st0" x1="598.1" y1="-103.5" x2="589.1" y2="-122.7"/>
	<line class="st0" x1="545.6" y1="-213.6" x2="560.6" y2="-228.6"/>
	<line class="st0" x1="505.1" y1="-67.4" x2="526.2" y2="-68.9"/>
	<line class="st0" x1="-7.9" y1="-189.6" x2="13.3" y2="-189.6"/>
	<line class="st0" x1="265" y1="3.1" x2="283.3" y2="13.7"/>
	<line class="st0" x1="60" y1="43" x2="77.3" y2="30.7"/>
	<line class="st0" x1="441" y1="-148" x2="455.3" y2="-132.3"/>
	<line class="st0" x1="146.6" y1="-96.7" x2="167.7" y2="-99.5"/>
	<line class="st0" x1="70.2" y1="-155.1" x2="85.2" y2="-140.1"/>
	<line class="st0" x1="346.1" y1="91.1" x2="334.2" y2="108.6"/>
	<line class="st0" x1="456.7" y1="30.7" x2="475.1" y2="41.3"/>
	<line class="st0" x1="669.4" y1="-62" x2="655.4" y2="-46.1"/>
	<line class="st0" x1="743.5" y1="-15.9" x2="722.3" y2="-14.1"/>
	<line class="st0" x1="637.6" y1="62.4" x2="630.2" y2="42.5"/>
	<line class="st0" x1="926.1" y1="-173.3" x2="917.7" y2="-153.8"/>
	<line class="st0" x1="884.4" y1="-82" x2="863.3" y2="-80"/>
	<line class="st0" x1="934.1" y1="-10.8" x2="918.7" y2="-25.3"/>
	<line class="st0" x1="1109.6" y1="-57.3" x2="1091.2" y2="-46.7"/>
	<line class="st0" x1="1040" y1="69.3" x2="1019.8" y2="75.6"/>
	<line class="st0" x1="834.5" y1="48.6" x2="834.5" y2="69.8"/>
	<line class="st0" x1="1032.8" y1="-127.3" x2="1047.8" y2="-112.3"/>
	<line class="st0" x1="1080" y1="-130.9" x2="1087.7" y2="-150.7"/>
	<line class="st0" x1="1165" y1="25.3" x2="1184.8" y2="32.9"/>
	<line class="st0" x1="1471.9" y1="-109.5" x2="1491.9" y2="-116.7"/>
	<line class="st0" x1="1028.1" y1="-188.2" x2="1049.1" y2="-191.3"/>
	<line class="st0" x1="1410.4" y1="-162.8" x2="1415.4" y2="-183.4"/>
	<line class="st0" x1="1513.6" y1="19.7" x2="1495.2" y2="9.1"/>
	<line class="st0" x1="1526.5" y1="-30.2" x2="1536.3" y2="-49"/>
	<line class="st0" x1="1586.9" y1="-123.9" x2="1607.9" y2="-126.3"/>
	<line class="st0" x1="1271.8" y1="-163.6" x2="1285" y2="-180.2"/>
	<line class="st0" x1="1270.9" y1="-71.3" x2="1291.9" y2="-74.5"/>
	<line class="st0" x1="1345.5" y1="-5" x2="1361.3" y2="9.1"/>
	<line class="st0" x1="1308.8" y1="88.1" x2="1316.3" y2="108"/>
	<line class="st0" x1="794.4" y1="-144.1" x2="773.4" y2="-146.9"/>
</g>
<g>
	<line class="st0" x1="224.7" y1="788" x2="239.7" y2="803"/>
	<line class="st0" x1="365.9" y1="891.3" x2="381.9" y2="877.3"/>
	<line class="st0" x1="328" y1="823.9" x2="348.9" y2="827.8"/>
	<line class="st0" x1="206.4" y1="897" x2="218.9" y2="879.9"/>
	<line class="st0" x1="598.1" y1="842.6" x2="589.1" y2="823.4"/>
	<line class="st0" x1="545.6" y1="732.5" x2="560.6" y2="717.5"/>
	<line class="st0" x1="505.1" y1="878.7" x2="526.2" y2="877.2"/>
	<line class="st0" x1="-7.9" y1="756.5" x2="13.3" y2="756.5"/>
	<line class="st0" x1="265" y1="949.2" x2="283.3" y2="959.8"/>
	<line class="st0" x1="60" y1="989.1" x2="77.3" y2="976.8"/>
	<line class="st0" x1="441" y1="798.1" x2="455.3" y2="813.8"/>
	<line class="st0" x1="146.6" y1="849.4" x2="167.7" y2="846.6"/>
	<line class="st0" x1="70.2" y1="791" x2="85.2" y2="806"/>
	<line class="st0" x1="346.1" y1="1037.2" x2="334.2" y2="1054.7"/>
	<line class="st0" x1="456.7" y1="976.8" x2="475.1" y2="987.4"/>
	<line class="st0" x1="669.4" y1="884.1" x2="655.4" y2="900"/>
	<line class="st0" x1="743.5" y1="930.2" x2="722.3" y2="932"/>
	<line class="st0" x1="637.6" y1="1008.5" x2="630.2" y2="988.6"/>
	<line class="st0" x1="926.1" y1="772.8" x2="917.7" y2="792.3"/>
	<line class="st0" x1="884.4" y1="864.1" x2="863.3" y2="866.1"/>
	<line class="st0" x1="934.1" y1="935.3" x2="918.7" y2="920.8"/>
	<line class="st0" x1="1109.6" y1="888.8" x2="1091.2" y2="899.4"/>
	<line class="st0" x1="1040" y1="1015.4" x2="1019.8" y2="1021.7"/>
	<line class="st0" x1="834.5" y1="994.7" x2="834.5" y2="1015.9"/>
	<line class="st0" x1="1032.8" y1="818.8" x2="1047.8" y2="833.8"/>
	<line class="st0" x1="1080" y1="815.2" x2="1087.7" y2="795.4"/>
	<line class="st0" x1="1165" y1="971.4" x2="1184.8" y2="979"/>
	<line class="st0" x1="1471.9" y1="836.6" x2="1491.9" y2="829.4"/>
	<line class="st0" x1="1410.4" y1="783.3" x2="1415.4" y2="762.7"/>
	<line class="st0" x1="1513.6" y1="965.8" x2="1495.2" y2="955.2"/>
	<line class="st0" x1="1526.5" y1="915.9" x2="1536.3" y2="897.1"/>
	<line class="st0" x1="1586.9" y1="822.2" x2="1607.9" y2="819.8"/>
	<line class="st0" x1="1271.8" y1="782.5" x2="1285" y2="765.9"/>
	<line class="st0" x1="1270.9" y1="874.8" x2="1291.9" y2="871.6"/>
	<line class="st0" x1="1345.5" y1="941.1" x2="1361.3" y2="955.2"/>
	<line class="st0" x1="1308.8" y1="1034.2" x2="1316.3" y2="1054.1"/>
	<line class="st0" x1="794.4" y1="802" x2="773.4" y2="799.2"/>
</g>
<g>
	<line class="st0" x1="224.7" y1="1068" x2="239.7" y2="1083"/>
	<line class="st0" x1="365.9" y1="1171.3" x2="381.9" y2="1157.3"/>
	<line class="st0" x1="328" y1="1103.9" x2="348.9" y2="1107.8"/>
	<line class="st0" x1="206.4" y1="1177" x2="218.9" y2="1159.9"/>
	<line class="st0" x1="598.1" y1="1122.6" x2="589.1" y2="1103.4"/>
	<line class="st0" x1="545.6" y1="1012.5" x2="560.6" y2="997.5"/>
	<line class="st0" x1="505.1" y1="1158.7" x2="526.2" y2="1157.2"/>
	<line class="st0" x1="-7.9" y1="1036.5" x2="13.3" y2="1036.5"/>
	<line class="st0" x1="265" y1="1229.2" x2="283.3" y2="1239.8"/>
	<line class="st0" x1="60" y1="1269.1" x2="77.3" y2="1256.8"/>
	<line class="st0" x1="441" y1="1078.1" x2="455.3" y2="1093.8"/>
	<line class="st0" x1="146.6" y1="1129.4" x2="167.7" y2="1126.6"/>
	<line class="st0" x1="70.2" y1="1071" x2="85.2" y2="1086"/>
	<line class="st0" x1="346.1" y1="1317.2" x2="334.2" y2="1334.7"/>
	<line class="st0" x1="456.7" y1="1256.8" x2="475.1" y2="1267.4"/>
	<line class="st0" x1="669.4" y1="1164.1" x2="655.4" y2="1180"/>
	<line class="st0" x1="743.5" y1="1210.2" x2="722.3" y2="1212"/>
	<line class="st0" x1="637.6" y1="1288.5" x2="630.2" y2="1268.6"/>
	<line class="st0" x1="926.1" y1="1052.8" x2="917.7" y2="1072.3"/>
	<line class="st0" x1="884.4" y1="1144.1" x2="863.3" y2="1146.1"/>
	<line class="st0" x1="934.1" y1="1215.3" x2="918.7" y2="1200.8"/>
	<line class="st0" x1="1109.6" y1="1168.8" x2="1091.2" y2="1179.4"/>
	<line class="st0" x1="1040" y1="1295.4" x2="1019.8" y2="1301.7"/>
	<line class="st0" x1="834.5" y1="1274.7" x2="834.5" y2="1295.9"/>
	<line class="st0" x1="1032.8" y1="1098.8" x2="1047.8" y2="1113.8"/>
	<line class="st0" x1="1080" y1="1095.2" x2="1087.7" y2="1075.4"/>
	<line class="st0" x1="1165" y1="1251.4" x2="1184.8" y2="1259"/>
	<line class="st0" x1="1471.9" y1="1116.6" x2="1491.9" y2="1109.4"/>
	<line class="st0" x1="1410.4" y1="1063.3" x2="1415.4" y2="1042.7"/>
	<line class="st0" x1="1513.6" y1="1245.8" x2="1495.2" y2="1235.2"/>
	<line class="st0" x1="1526.5" y1="1195.9" x2="1536.3" y2="1177.1"/>
	<line class="st0" x1="1586.9" y1="1102.2" x2="1607.9" y2="1099.8"/>
	<line class="st0" x1="1271.8" y1="1062.5" x2="1285" y2="1045.9"/>
	<line class="st0" x1="1270.9" y1="1154.8" x2="1291.9" y2="1151.6"/>
	<line class="st0" x1="1345.5" y1="1221.1" x2="1361.3" y2="1235.2"/>
	<line class="st0" x1="1308.8" y1="1314.2" x2="1316.3" y2="1334.1"/>
	<line class="st0" x1="794.4" y1="1082" x2="773.4" y2="1079.2"/>
</g>
</svg>
