<svg enable-background="new 0 0 1600 1200" viewBox="0 0 1600 1200" xmlns="http://www.w3.org/2000/svg"><path d="m144.7 476.6 3.5 3.6 2.1-2.1-3.6-3.5 3.6-3.6-2.1-2-3.5 3.6-3.6-3.6-2 2 3.6 3.6-3.6 3.5 2 2.1z"/><path d="m189.7 528.3 3.5 3.6 2.1-2.1-3.6-3.5 3.6-3.6-2.1-2-3.5 3.6-3.6-3.6-2 2 3.6 3.6-3.6 3.5 2 2.1z"/><path d="m374.4 474 3.6 3.6 2-2-3.6-3.6 3.6-3.5-2-2.1-3.6 3.6-3.5-3.6-2.1 2.1 3.6 3.5-3.6 3.6 2.1 2z"/><path d="m307.4 571 3.6 3.6 2-2-3.6-3.6 3.6-3.5-2-2.1-3.6 3.6-3.5-3.6-2.1 2.1 3.6 3.5-3.6 3.6 2.1 2z"/><path d="m280.4 501 3.6 3.6 2-2-3.6-3.6 3.6-3.5-2-2.1-3.6 3.6-3.5-3.6-2.1 2.1 3.6 3.5-3.6 3.6 2.1 2z"/><path d="m147.7 620.3 3.5 3.6 2.1-2.1-3.6-3.5 3.6-3.6-2.1-2-3.5 3.6-3.6-3.6-2 2 3.6 3.6-3.6 3.5 2 2.1z"/><path d="m385.1 672.3 3.6 3.6 2-2.1-3.5-3.5 3.5-3.6-2-2-3.6 3.6-3.5-3.6-2 2 3.5 3.6-3.5 3.5 2 2.1z"/><path d="m286.7 658.3 3.5 3.6 2.1-2.1-3.6-3.5 3.6-3.6-2.1-2-3.5 3.6-3.6-3.6-2 2 3.6 3.6-3.6 3.5 2 2.1z"/><path d="m216.7 711.3 3.5 3.6 2.1-2.1-3.6-3.5 3.6-3.6-2.1-2-3.5 3.6-3.6-3.6-2 2 3.6 3.6-3.6 3.5 2 2.1z"/><path d="m23.1 588.3 3.6 3.6 2-2.1-3.5-3.5 3.5-3.6-2-2-3.6 3.6-3.5-3.6-2 2 3.5 3.6-3.5 3.5 2 2.1z"/><path d="m85.4 745.6 3.6 3.5 2-2-3.6-3.5 3.6-3.6-2-2-3.6 3.5-3.5-3.5-2.1 2 3.6 3.6-3.6 3.5 2.1 2z"/><path d="m506.4 521 3.6 3.6 2-2-3.6-3.6 3.6-3.5-2-2.1-3.6 3.6-3.5-3.6-2.1 2.1 3.6 3.5-3.6 3.6 2.1 2z"/><path d="m475.4 592-2-2-3.5 3.6-3.6-3.6-2 2 3.5 3.6-3.5 3.5 2 2.1 3.6-3.6 3.5 3.6 2-2.1-3.5-3.5z"/><path d="m679.7 564.3 3.5 3.6 2.1-2.1-3.6-3.5 3.6-3.6-2.1-2-3.5 3.6-3.6-3.6-2 2 3.6 3.6-3.6 3.5 2 2.1z"/><path d="m837.4 487 3.6 3.6 2-2-3.6-3.6 3.6-3.5-2-2.1-3.6 3.6-3.5-3.6-2.1 2.1 3.6 3.5-3.6 3.6 2.1 2z"/><path d="m855.7 623.3 3.5 3.6 2.1-2.1-3.6-3.5 3.6-3.6-2.1-2-3.5 3.6-3.6-3.6-2 2 3.6 3.6-3.6 3.5 2 2.1z"/><path d="m1002.7 514.3 3.5 3.6 2.1-2.1-3.6-3.5 3.6-3.6-2.1-2-3.5 3.6-3.6-3.6-2 2 3.6 3.6-3.6 3.5 2 2.1z"/><path d="m959.4 594.6 3.6 3.5 2-2-3.6-3.5 3.6-3.6-2-2-3.6 3.5-3.5-3.5-2.1 2 3.6 3.6-3.6 3.5 2.1 2z"/><path d="m1161.7 499.3 3.5 3.6 2.1-2.1-3.6-3.5 3.6-3.6-2.1-2-3.5 3.6-3.6-3.6-2 2 3.6 3.6-3.6 3.5 2 2.1z"/><path d="m1144.4 596 3.6 3.6 2-2-3.6-3.6 3.6-3.5-2-2.1-3.6 3.6-3.5-3.6-2.1 2.1 3.6 3.5-3.6 3.6 2.1 2z"/><path d="m1195.4 574 3.6 3.6 2-2-3.6-3.6 3.6-3.5-2-2.1-3.6 3.6-3.5-3.6-2.1 2.1 3.6 3.5-3.6 3.6 2.1 2z"/><path d="m1267.4 688.6 3.6 3.5 2-2-3.6-3.5 3.6-3.6-2-2-3.6 3.5-3.5-3.5-2.1 2 3.6 3.6-3.6 3.5 2.1 2z"/><path d="m1377.7 561.3 3.5 3.6 2.1-2.1-3.6-3.5 3.6-3.6-2.1-2-3.5 3.6-3.6-3.6-2 2 3.6 3.6-3.6 3.5 2 2.1z"/><path d="m1037.1 686.3 3.6 3.6 2-2.1-3.5-3.5 3.5-3.6-2-2-3.6 3.6-3.5-3.6-2 2 3.5 3.6-3.5 3.5 2 2.1z"/><path d="m933.7 742.3 3.5 3.6 2.1-2.1-3.6-3.5 3.6-3.6-2.1-2-3.5 3.6-3.6-3.6-2 2 3.6 3.6-3.6 3.5 2 2.1z"/><path d="m1393.1 447.3 3.6 3.6 2-2.1-3.5-3.5 3.5-3.6-2-2-3.6 3.6-3.5-3.6-2 2 3.5 3.6-3.5 3.5 2 2.1z"/><path d="m1216.1 422.3 3.6 3.6 2-2.1-3.5-3.5 3.5-3.6-2-2-3.6 3.6-3.5-3.6-2 2 3.5 3.6-3.5 3.5 2 2.1z"/><path d="m1482.1 583.3 3.6 3.6 2-2.1-3.5-3.5 3.5-3.6-2-2-3.6 3.6-3.5-3.6-2 2 3.5 3.6-3.5 3.5 2 2.1z"/><path d="m1567.4 505.6 3.6 3.5 2-2-3.6-3.5 3.6-3.6-2-2-3.6 3.5-3.5-3.5-2.1 2 3.6 3.6-3.6 3.5 2.1 2z"/><path d="m1444.4 684.6 3.6 3.5 2-2-3.6-3.5 3.6-3.6-2-2-3.6 3.5-3.5-3.5-2.1 2 3.6 3.6-3.6 3.5 2.1 2z"/><path d="m607.7 617.3 3.5 3.6 2.1-2.1-3.6-3.5 3.6-3.6-2.1-2-3.5 3.6-3.6-3.6-2 2 3.6 3.6-3.6 3.5 2 2.1z"/><path d="m597.7 457.3 3.5 3.6 2.1-2.1-3.6-3.5 3.6-3.6-2.1-2-3.5 3.6-3.6-3.6-2 2 3.6 3.6-3.6 3.5 2 2.1z"/><path d="m715.4 605 3.6 3.6 2-2-3.6-3.6 3.6-3.5-2-2.1-3.6 3.6-3.5-3.6-2.1 2.1 3.6 3.5-3.6 3.6 2.1 2z"/><path d="m673.4 683.4-2-2-3.5 3.6-3.6-3.6-2 2 3.5 3.6-3.5 3.6 2 2 3.6-3.6 3.5 3.6 2-2-3.5-3.6z"/><path d="m547.7 713.3 3.5 3.6 2.1-2.1-3.6-3.5 3.6-3.6-2.1-2-3.5 3.6-3.6-3.6-2 2 3.6 3.6-3.6 3.5 2 2.1z"/><path d="m352.1 422.3 3.6 3.6 2-2.1-3.5-3.5 3.5-3.6-2-2-3.6 3.6-3.5-3.6-2 2 3.5 3.6-3.5 3.5 2 2.1z"/><path d="m-44.4 184.9 3.5 3.6 2-2.1-3.5-3.5 3.5-3.6-2-2-3.5 3.6-3.6-3.6-2 2 3.5 3.6-3.5 3.5 2 2.1z"/><path d="m.6 236.6 3.5 3.6 2-2.1-3.5-3.5 3.5-3.6-2-2-3.5 3.6-3.6-3.6-2 2 3.5 3.6-3.5 3.5 2 2.1z"/><path d="m185.3 182.3 3.5 3.6 2.1-2-3.6-3.6 3.6-3.5-2.1-2.1-3.5 3.6-3.6-3.6-2 2.1 3.6 3.5-3.6 3.6 2 2z"/><path d="m118.3 279.3 3.5 3.6 2.1-2-3.6-3.6 3.6-3.5-2.1-2.1-3.5 3.6-3.6-3.6-2 2.1 3.6 3.5-3.6 3.6 2 2z"/><path d="m91.3 209.3 3.5 3.6 2.1-2-3.6-3.6 3.6-3.5-2.1-2.1-3.5 3.6-3.6-3.6-2 2.1 3.6 3.5-3.6 3.6 2 2z"/><path d="m-41.4 328.6 3.5 3.6 2-2.1-3.5-3.5 3.5-3.6-2-2-3.5 3.6-3.6-3.6-2 2 3.5 3.6-3.5 3.5 2 2.1z"/><path d="m196 380.6 3.6 3.6 2-2.1-3.6-3.5 3.6-3.6-2-2-3.6 3.6-3.5-3.6-2.1 2 3.6 3.6-3.6 3.5 2.1 2.1z"/><path d="m97.6 366.6 3.5 3.6 2-2.1-3.5-3.5 3.5-3.6-2-2-3.5 3.6-3.6-3.6-2 2 3.5 3.6-3.5 3.5 2 2.1z"/><path d="m27.6 419.6 3.5 3.6 2-2.1-3.5-3.5 3.5-3.6-2-2-3.5 3.6-3.6-3.6-2 2 3.5 3.6-3.5 3.5 2 2.1z"/><path d="m-166 296.6 3.6 3.6 2-2.1-3.6-3.5 3.6-3.6-2-2-3.6 3.6-3.5-3.6-2.1 2 3.6 3.6-3.6 3.5 2.1 2.1z"/><path d="m-103.7 453.9 3.5 3.5 2.1-2-3.6-3.5 3.6-3.6-2.1-2-3.5 3.5-3.6-3.5-2 2 3.6 3.6-3.6 3.5 2 2z"/><path d="m1543 184.9 3.5 3.6 2-2.1-3.5-3.5 3.5-3.6-2-2-3.5 3.6-3.6-3.6-2 2 3.5 3.6-3.5 3.5 2 2.1z"/><path d="m1546 328.6 3.5 3.6 2-2.1-3.5-3.5 3.5-3.6-2-2-3.5 3.6-3.6-3.6-2 2 3.5 3.6-3.5 3.5 2 2.1z"/><path d="m1421.4 296.6 3.6 3.6 2-2.1-3.6-3.5 3.6-3.6-2-2-3.6 3.6-3.5-3.6-2.1 2 3.6 3.6-3.6 3.5 2.1 2.1z"/><path d="m1483.7 453.9 3.5 3.5 2.1-2-3.6-3.5 3.6-3.6-2.1-2-3.5 3.5-3.6-3.5-2 2 3.6 3.6-3.6 3.5 2 2z"/><path d="m317.3 229.3 3.5 3.6 2.1-2-3.6-3.6 3.6-3.5-2.1-2.1-3.5 3.6-3.6-3.6-2 2.1 3.6 3.5-3.6 3.6 2 2z"/><path d="m286.3 300.3-2-2-3.6 3.5-3.5-3.5-2.1 2 3.6 3.6-3.6 3.5 2.1 2 3.5-3.5 3.6 3.5 2-2-3.5-3.5z"/><path d="m490.6 272.6 3.5 3.6 2-2.1-3.5-3.5 3.5-3.6-2-2-3.5 3.6-3.6-3.6-2 2 3.5 3.6-3.5 3.5 2 2.1z"/><path d="m648.3 195.3 3.5 3.6 2.1-2-3.6-3.6 3.6-3.5-2.1-2.1-3.5 3.6-3.6-3.6-2 2.1 3.6 3.5-3.6 3.6 2 2z"/><path d="m666.6 331.6 3.5 3.6 2-2.1-3.5-3.5 3.5-3.6-2-2-3.5 3.6-3.6-3.6-2 2 3.5 3.6-3.5 3.5 2 2.1z"/><path d="m813.6 222.6 3.5 3.6 2-2.1-3.5-3.5 3.5-3.6-2-2-3.5 3.6-3.6-3.6-2 2 3.5 3.6-3.5 3.5 2 2.1z"/><path d="m770.3 302.9 3.5 3.5 2.1-2-3.6-3.5 3.6-3.6-2.1-2-3.5 3.5-3.6-3.5-2 2 3.6 3.6-3.6 3.5 2 2z"/><path d="m972.6 207.6 3.5 3.6 2-2.1-3.5-3.5 3.5-3.6-2-2-3.5 3.6-3.6-3.6-2 2 3.5 3.6-3.5 3.5 2 2.1z"/><path d="m955.3 304.3 3.5 3.6 2.1-2-3.6-3.6 3.6-3.5-2.1-2.1-3.5 3.6-3.6-3.6-2 2.1 3.6 3.5-3.6 3.6 2 2z"/><path d="m1006.3 282.3 3.5 3.6 2.1-2-3.6-3.6 3.6-3.5-2.1-2.1-3.5 3.6-3.6-3.6-2 2.1 3.6 3.5-3.6 3.6 2 2z"/><path d="m1078.3 396.9 3.5 3.5 2.1-2-3.6-3.5 3.6-3.6-2.1-2-3.5 3.5-3.6-3.5-2 2 3.6 3.6-3.6 3.5 2 2z"/><path d="m1188.6 269.6 3.5 3.6 2-2.1-3.5-3.5 3.5-3.6-2-2-3.5 3.6-3.6-3.6-2 2 3.5 3.6-3.5 3.5 2 2.1z"/><path d="m848 394.6 3.6 3.6 2-2.1-3.6-3.5 3.6-3.6-2-2-3.6 3.6-3.5-3.6-2.1 2 3.6 3.6-3.6 3.5 2.1 2.1z"/><path d="m744.6 450.6 3.5 3.6 2-2.1-3.5-3.5 3.5-3.6-2-2-3.5 3.6-3.6-3.6-2 2 3.5 3.6-3.5 3.5 2 2.1z"/><path d="m1204 155.6 3.6 3.6 2-2.1-3.6-3.5 3.6-3.6-2-2-3.6 3.6-3.5-3.6-2.1 2 3.6 3.6-3.6 3.5 2.1 2.1z"/><path d="m1027 130.6 3.6 3.6 2-2.1-3.6-3.5 3.6-3.6-2-2-3.6 3.6-3.5-3.6-2.1 2 3.6 3.6-3.6 3.5 2.1 2.1z"/><path d="m1293 291.6 3.6 3.6 2-2.1-3.6-3.5 3.6-3.6-2-2-3.6 3.6-3.5-3.6-2.1 2 3.6 3.6-3.6 3.5 2.1 2.1z"/><path d="m1378.3 213.9 3.5 3.5 2.1-2-3.6-3.5 3.6-3.6-2.1-2-3.5 3.5-3.6-3.5-2 2 3.6 3.6-3.6 3.5 2 2z"/><path d="m1255.3 392.9 3.5 3.5 2.1-2-3.6-3.5 3.6-3.6-2.1-2-3.5 3.5-3.6-3.5-2 2 3.6 3.6-3.6 3.5 2 2z"/><path d="m418.6 325.6 3.5 3.6 2-2.1-3.5-3.5 3.5-3.6-2-2-3.5 3.6-3.6-3.6-2 2 3.5 3.6-3.5 3.5 2 2.1z"/><path d="m408.6 165.6 3.5 3.6 2-2.1-3.5-3.5 3.5-3.6-2-2-3.5 3.6-3.6-3.6-2 2 3.5 3.6-3.5 3.5 2 2.1z"/><path d="m526.3 313.3 3.5 3.6 2.1-2-3.6-3.6 3.6-3.5-2.1-2.1-3.5 3.6-3.6-3.6-2 2.1 3.6 3.5-3.6 3.6 2 2z"/><path d="m484.3 391.7-2-2-3.6 3.6-3.5-3.6-2.1 2 3.6 3.6-3.6 3.6 2.1 2 3.5-3.6 3.6 3.6 2-2-3.5-3.6z"/><path d="m163 130.6 3.6 3.6 2-2.1-3.6-3.5 3.6-3.6-2-2-3.6 3.6-3.5-3.6-2.1 2 3.6 3.6-3.6 3.5 2.1 2.1z"/><path d="m28.5-120.7 3.6 3.6 2-2-3.6-3.6 3.6-3.6-2-2-3.6 3.6-3.5-3.6-2.1 2 3.6 3.6-3.6 3.6 2.1 2z"/><path d="m73.5-69 3.6 3.6 2-2-3.6-3.6 3.6-3.6-2-2-3.6 3.6-3.5-3.6-2.1 2 3.6 3.6-3.6 3.6 2.1 2z"/><path d="m258.2-123.2 3.6 3.5 2-2-3.5-3.6 3.5-3.5-2-2.1-3.6 3.6-3.5-3.6-2 2.1 3.5 3.5-3.5 3.6 2 2z"/><path d="m191.2-26.2 3.6 3.5 2-2-3.5-3.6 3.5-3.5-2-2.1-3.6 3.6-3.5-3.6-2 2.1 3.5 3.5-3.5 3.6 2 2z"/><path d="m164.2-96.2 3.6 3.5 2-2-3.5-3.6 3.5-3.5-2-2.1-3.6 3.6-3.5-3.6-2 2.1 3.5 3.5-3.5 3.6 2 2z"/><path d="m31.5 23 3.6 3.6 2-2-3.6-3.6 3.6-3.6-2-2-3.6 3.6-3.5-3.6-2.1 2 3.6 3.6-3.6 3.6 2.1 2z"/><path d="m269 75 3.5 3.6 2.1-2-3.6-3.6 3.6-3.6-2.1-2-3.5 3.6-3.6-3.6-2 2 3.6 3.6-3.6 3.6 2 2z"/><path d="m170.5 61 3.6 3.6 2-2-3.6-3.6 3.6-3.6-2-2-3.6 3.6-3.5-3.6-2.1 2 3.6 3.6-3.6 3.6 2.1 2z"/><path d="m100.5 114 3.6 3.6 2-2-3.6-3.6 3.6-3.6-2-2-3.6 3.6-3.5-3.6-2.1 2 3.6 3.6-3.6 3.6 2.1 2z"/><path d="m-93-9 3.5 3.6 2.1-2-3.6-3.6 3.6-3.6-2.1-2-3.5 3.6-3.6-3.6-2 2 3.6 3.6-3.6 3.6 2 2z"/><path d="m-30.8 148.3 3.6 3.6 2-2.1-3.5-3.5 3.5-3.6-2-2-3.6 3.5-3.5-3.5-2 2 3.5 3.6-3.5 3.5 2 2.1z"/><path d="m1615.9-120.7 3.6 3.6 2-2-3.6-3.6 3.6-3.6-2-2-3.6 3.6-3.5-3.6-2.1 2 3.6 3.6-3.6 3.6 2.1 2z"/><path d="m1618.9 23 3.6 3.6 2-2-3.6-3.6 3.6-3.6-2-2-3.6 3.6-3.5-3.6-2.1 2 3.6 3.6-3.6 3.6 2.1 2z"/><path d="m1494.4-9 3.5 3.6 2.1-2-3.6-3.6 3.6-3.6-2.1-2-3.5 3.6-3.6-3.6-2 2 3.6 3.6-3.6 3.6 2 2z"/><path d="m1556.7 148.3 3.5 3.6 2-2.1-3.5-3.5 3.5-3.6-2-2-3.5 3.5-3.6-3.5-2 2 3.5 3.6-3.5 3.5 2 2.1z"/><path d="m390.2-76.2 3.6 3.5 2-2-3.5-3.6 3.5-3.5-2-2.1-3.6 3.6-3.5-3.6-2 2.1 3.5 3.5-3.5 3.6 2 2z"/><path d="m359.3-5.3-2.1-2-3.5 3.6-3.6-3.6-2 2 3.6 3.6-3.6 3.5 2 2.1 3.6-3.6 3.5 3.6 2.1-2.1-3.6-3.5z"/><path d="m563.5-33 3.6 3.6 2-2-3.6-3.6 3.6-3.6-2-2-3.6 3.6-3.5-3.6-2.1 2 3.6 3.6-3.6 3.6 2.1 2z"/><path d="m721.2-110.2 3.6 3.5 2-2-3.5-3.6 3.5-3.5-2-2.1-3.6 3.6-3.5-3.6-2 2.1 3.5 3.5-3.5 3.6 2 2z"/><path d="m699 77 3.6 3.6 2-2-3.6-3.6 3.6-3.5-2-2.1-3.6 3.6-3.6-3.6-2 2.1 3.6 3.5-3.6 3.6 2 2z"/><path d="m886.5-83 3.6 3.6 2-2-3.6-3.6 3.6-3.6-2-2-3.6 3.6-3.5-3.6-2.1 2 3.6 3.6-3.6 3.6 2.1 2z"/><path d="m843.2-2.7 3.6 3.6 2-2.1-3.5-3.5 3.5-3.6-2-2-3.6 3.5-3.5-3.5-2 2 3.5 3.6-3.5 3.5 2 2.1z"/><path d="m1045.5-98 3.6 3.6 2-2-3.6-3.6 3.6-3.6-2-2-3.6 3.6-3.5-3.6-2.1 2 3.6 3.6-3.6 3.6 2.1 2z"/><path d="m1028.2-1.2 3.6 3.5 2-2-3.5-3.6 3.5-3.5-2-2.1-3.6 3.6-3.5-3.6-2 2.1 3.5 3.5-3.5 3.6 2 2z"/><path d="m1079.2-23.2 3.6 3.5 2-2-3.5-3.6 3.5-3.5-2-2.1-3.6 3.6-3.5-3.6-2 2.1 3.5 3.5-3.5 3.6 2 2z"/><path d="m1151.2 91.3 3.6 3.6 2-2.1-3.5-3.5 3.5-3.6-2-2-3.6 3.5-3.5-3.5-2 2 3.5 3.6-3.5 3.5 2 2.1z"/><path d="m1261.5-36 3.6 3.6 2-2-3.6-3.6 3.6-3.6-2-2-3.6 3.6-3.5-3.6-2.1 2 3.6 3.6-3.6 3.6 2.1 2z"/><path d="m921 89 3.5 3.6 2.1-2-3.6-3.6 3.6-3.6-2.1-2-3.5 3.6-3.6-3.6-2 2 3.6 3.6-3.6 3.6 2 2z"/><path d="m817.5 145 3.6 3.6 2-2-3.6-3.6 3.6-3.6-2-2-3.6 3.6-3.5-3.6-2.1 2 3.6 3.6-3.6 3.6 2.1 2z"/><path d="m1277-150 3.5 3.6 2.1-2-3.6-3.6 3.6-3.6-2.1-2-3.5 3.6-3.6-3.6-2 2 3.6 3.6-3.6 3.6 2 2z"/><path d="m1100-175 3.5 3.6 2.1-2-3.6-3.6 3.6-3.6-2.1-2-3.5 3.6-3.6-3.6-2 2 3.6 3.6-3.6 3.6 2 2z"/><path d="m1366-14 3.5 3.6 2.1-2-3.6-3.6 3.6-3.6-2.1-2-3.5 3.6-3.6-3.6-2 2 3.6 3.6-3.6 3.6 2 2z"/><path d="m1451.2-91.7 3.6 3.6 2-2.1-3.5-3.5 3.5-3.6-2-2-3.6 3.5-3.5-3.5-2 2 3.5 3.6-3.5 3.5 2 2.1z"/><path d="m1328.2 87.3 3.6 3.6 2-2.1-3.5-3.5 3.5-3.6-2-2-3.6 3.5-3.5-3.5-2 2 3.5 3.6-3.5 3.5 2 2.1z"/><path d="m491.5 20 3.6 3.6 2-2-3.6-3.6 3.6-3.6-2-2-3.6 3.6-3.5-3.6-2.1 2 3.6 3.6-3.6 3.6 2.1 2z"/><path d="m481.5-140 3.6 3.6 2-2-3.6-3.6 3.6-3.6-2-2-3.6 3.6-3.5-3.6-2.1 2 3.6 3.6-3.6 3.6 2.1 2z"/><path d="m599.2 7.8 3.6 3.5 2-2-3.5-3.6 3.5-3.5-2-2.1-3.6 3.6-3.5-3.6-2 2.1 3.5 3.5-3.5 3.6 2 2z"/><path d="m557.3 86.2-2.1-2.1-3.5 3.6-3.6-3.6-2 2.1 3.6 3.5-3.6 3.6 2 2 3.6-3.6 3.5 3.6 2.1-2-3.6-3.6z"/><path d="m431.5 116 3.6 3.6 2-2-3.6-3.6 3.6-3.6-2-2-3.6 3.6-3.5-3.6-2.1 2 3.6 3.6-3.6 3.6 2.1 2z"/><path d="m236-175 3.5 3.6 2.1-2-3.6-3.6 3.6-3.6-2.1-2-3.5 3.6-3.6-3.6-2 2 3.6 3.6-3.6 3.6 2 2z"/><path d="m28.5 794.8 3.6 3.5 2-2-3.6-3.6 3.6-3.5-2-2-3.6 3.5-3.5-3.5-2.1 2 3.6 3.5-3.6 3.6 2.1 2z"/><path d="m73.5 846.5 3.6 3.5 2-2-3.6-3.6 3.6-3.5-2-2-3.6 3.5-3.5-3.5-2.1 2 3.6 3.5-3.6 3.6 2.1 2z"/><path d="m258.2 792.2 3.6 3.6 2-2.1-3.5-3.5 3.5-3.6-2-2-3.6 3.5-3.5-3.5-2 2 3.5 3.6-3.5 3.5 2 2.1z"/><path d="m191.2 889.2 3.6 3.6 2-2.1-3.5-3.5 3.5-3.6-2-2-3.6 3.5-3.5-3.5-2 2 3.5 3.6-3.5 3.5 2 2.1z"/><path d="m164.2 819.2 3.6 3.6 2-2.1-3.5-3.5 3.5-3.6-2-2-3.6 3.5-3.5-3.5-2 2 3.5 3.6-3.5 3.5 2 2.1z"/><path d="m31.5 938.5 3.6 3.5 2-2-3.6-3.6 3.6-3.5-2-2-3.6 3.5-3.5-3.5-2.1 2 3.6 3.5-3.6 3.6 2.1 2z"/><path d="m269 990.5 3.5 3.5 2.1-2-3.6-3.6 3.6-3.5-2.1-2-3.5 3.5-3.6-3.5-2 2 3.6 3.5-3.6 3.6 2 2z"/><path d="m170.5 976.5 3.6 3.5 2-2-3.6-3.6 3.6-3.5-2-2-3.6 3.5-3.5-3.5-2.1 2 3.6 3.5-3.6 3.6 2.1 2z"/><path d="m100.5 1029.5 3.6 3.5 2-2-3.6-3.6 3.6-3.5-2-2-3.6 3.5-3.5-3.5-2.1 2 3.6 3.5-3.6 3.6 2.1 2z"/><path d="m-93 906.5 3.5 3.5 2.1-2-3.6-3.6 3.6-3.5-2.1-2-3.5 3.5-3.6-3.5-2 2 3.6 3.5-3.6 3.6 2 2z"/><path d="m-30.8 1063.7 3.6 3.6 2-2-3.5-3.6 3.5-3.5-2-2.1-3.6 3.6-3.5-3.6-2 2.1 3.5 3.5-3.5 3.6 2 2z"/><path d="m1615.9 794.8 3.6 3.5 2-2-3.6-3.6 3.6-3.5-2-2-3.6 3.5-3.5-3.5-2.1 2 3.6 3.5-3.6 3.6 2.1 2z"/><path d="m1618.9 938.5 3.6 3.5 2-2-3.6-3.6 3.6-3.5-2-2-3.6 3.5-3.5-3.5-2.1 2 3.6 3.5-3.6 3.6 2.1 2z"/><path d="m1494.4 906.5 3.5 3.5 2.1-2-3.6-3.6 3.6-3.5-2.1-2-3.5 3.5-3.6-3.5-2 2 3.6 3.5-3.6 3.6 2 2z"/><path d="m1556.7 1063.7 3.5 3.6 2-2-3.5-3.6 3.5-3.5-2-2.1-3.5 3.6-3.6-3.6-2 2.1 3.5 3.5-3.5 3.6 2 2z"/><path d="m390.2 839.2 3.6 3.6 2-2.1-3.5-3.5 3.5-3.6-2-2-3.6 3.5-3.5-3.5-2 2 3.5 3.6-3.5 3.5 2 2.1z"/><path d="m359.3 910.2-2.1-2.1-3.5 3.6-3.6-3.6-2 2.1 3.6 3.5-3.6 3.6 2 2 3.6-3.5 3.5 3.5 2.1-2-3.6-3.6z"/><path d="m563.5 882.5 3.6 3.5 2-2-3.6-3.6 3.6-3.5-2-2-3.6 3.5-3.5-3.5-2.1 2 3.6 3.5-3.6 3.6 2.1 2z"/><path d="m721.2 805.2 3.6 3.6 2-2.1-3.5-3.5 3.5-3.6-2-2-3.6 3.5-3.5-3.5-2 2 3.5 3.6-3.5 3.5 2 2.1z"/><path d="m699 992.5 3.6 3.5 2-2-3.6-3.5 3.6-3.6-2-2-3.6 3.5-3.6-3.5-2 2 3.6 3.6-3.6 3.5 2 2z"/><path d="m886.5 832.5 3.6 3.5 2-2-3.6-3.6 3.6-3.5-2-2-3.6 3.5-3.5-3.5-2.1 2 3.6 3.5-3.6 3.6 2.1 2z"/><path d="m843.2 912.7 3.6 3.6 2-2-3.5-3.6 3.5-3.5-2-2.1-3.6 3.6-3.5-3.6-2 2.1 3.5 3.5-3.5 3.6 2 2z"/><path d="m1045.5 817.5 3.6 3.5 2-2-3.6-3.6 3.6-3.5-2-2-3.6 3.5-3.5-3.5-2.1 2 3.6 3.5-3.6 3.6 2.1 2z"/><path d="m1028.2 914.2 3.6 3.6 2-2.1-3.5-3.5 3.5-3.6-2-2-3.6 3.5-3.5-3.5-2 2 3.5 3.6-3.5 3.5 2 2.1z"/><path d="m1079.2 892.2 3.6 3.6 2-2.1-3.5-3.5 3.5-3.6-2-2-3.6 3.5-3.5-3.5-2 2 3.5 3.6-3.5 3.5 2 2.1z"/><path d="m1151.2 1006.7 3.6 3.6 2-2-3.5-3.6 3.5-3.5-2-2.1-3.6 3.6-3.5-3.6-2 2.1 3.5 3.5-3.5 3.6 2 2z"/><path d="m1261.5 879.5 3.6 3.5 2-2-3.6-3.6 3.6-3.5-2-2-3.6 3.5-3.5-3.5-2.1 2 3.6 3.5-3.6 3.6 2.1 2z"/><path d="m921 1004.5 3.5 3.5 2.1-2-3.6-3.6 3.6-3.5-2.1-2-3.5 3.5-3.6-3.5-2 2 3.6 3.5-3.6 3.6 2 2z"/><path d="m817.5 1060.5 3.6 3.5 2-2-3.6-3.6 3.6-3.5-2-2-3.6 3.5-3.5-3.5-2.1 2 3.6 3.5-3.6 3.6 2.1 2z"/><path d="m1277 765.5 3.5 3.5 2.1-2-3.6-3.6 3.6-3.5-2.1-2-3.5 3.5-3.6-3.5-2 2 3.6 3.5-3.6 3.6 2 2z"/><path d="m1100 740.5 3.5 3.5 2.1-2-3.6-3.6 3.6-3.5-2.1-2-3.5 3.5-3.6-3.5-2 2 3.6 3.5-3.6 3.6 2 2z"/><path d="m1366 901.5 3.5 3.5 2.1-2-3.6-3.6 3.6-3.5-2.1-2-3.5 3.5-3.6-3.5-2 2 3.6 3.5-3.6 3.6 2 2z"/><path d="m1451.2 823.7 3.6 3.6 2-2-3.5-3.6 3.5-3.5-2-2.1-3.6 3.6-3.5-3.6-2 2.1 3.5 3.5-3.5 3.6 2 2z"/><path d="m1328.2 1002.7 3.6 3.6 2-2-3.5-3.6 3.5-3.5-2-2.1-3.6 3.6-3.5-3.6-2 2.1 3.5 3.5-3.5 3.6 2 2z"/><path d="m491.5 935.5 3.6 3.5 2-2-3.6-3.6 3.6-3.5-2-2-3.6 3.5-3.5-3.5-2.1 2 3.6 3.5-3.6 3.6 2.1 2z"/><path d="m481.5 775.5 3.6 3.5 2-2-3.6-3.6 3.6-3.5-2-2-3.6 3.5-3.5-3.5-2.1 2 3.6 3.5-3.6 3.6 2.1 2z"/><path d="m599.2 923.2 3.6 3.6 2-2.1-3.5-3.5 3.5-3.6-2-2-3.6 3.5-3.5-3.5-2 2 3.5 3.6-3.5 3.5 2 2.1z"/><path d="m557.3 1001.6-2.1-2-3.5 3.5-3.6-3.5-2 2 3.6 3.6-3.6 3.5 2 2 3.6-3.5 3.5 3.5 2.1-2-3.6-3.5z"/><path d="m431.5 1031.5 3.6 3.5 2-2-3.6-3.6 3.6-3.5-2-2-3.6 3.5-3.5-3.5-2.1 2 3.6 3.5-3.6 3.6 2.1 2z"/><path d="m319.4 750 3.6 3.6 2-2-3.6-3.6 3.6-3.6-2-2-3.6 3.6-3.5-3.6-2.1 2 3.6 3.6-3.6 3.6 2.1 2z"/><path d="m-39.4 1076.3 3.5 3.6 2-2-3.5-3.6 3.5-3.6-2-2-3.5 3.6-3.6-3.6-2 2 3.5 3.6-3.5 3.6 2 2z"/><path d="m5.6 1128 3.5 3.6 2-2-3.5-3.6 3.5-3.6-2-2-3.5 3.6-3.6-3.6-2 2 3.5 3.6-3.5 3.6 2 2z"/><path d="m190.3 1073.8 3.6 3.5 2-2-3.6-3.6 3.6-3.5-2-2.1-3.6 3.6-3.6-3.6-2 2.1 3.6 3.5-3.6 3.6 2 2z"/><path d="m123.3 1170.8 3.6 3.5 2-2-3.6-3.6 3.6-3.5-2-2.1-3.6 3.6-3.6-3.6-2 2.1 3.6 3.5-3.6 3.6 2 2z"/><path d="m96.3 1100.8 3.6 3.5 2-2-3.6-3.6 3.6-3.5-2-2.1-3.6 3.6-3.6-3.6-2 2.1 3.6 3.5-3.6 3.6 2 2z"/><path d="m-36.4 1220 3.5 3.6 2-2-3.5-3.6 3.5-3.6-2-2-3.5 3.6-3.6-3.6-2 2 3.5 3.6-3.5 3.6 2 2z"/><path d="m201 1272 3.6 3.6 2-2-3.6-3.6 3.6-3.6-2-2-3.6 3.6-3.5-3.6-2.1 2 3.6 3.6-3.6 3.6 2.1 2z"/><path d="m102.6 1258 3.5 3.6 2-2-3.5-3.6 3.5-3.6-2-2-3.5 3.6-3.6-3.6-2 2 3.5 3.6-3.5 3.6 2 2z"/><path d="m32.6 1311 3.5 3.6 2-2-3.5-3.6 3.5-3.6-2-2-3.5 3.6-3.6-3.6-2 2 3.5 3.6-3.5 3.6 2 2z"/><path d="m-161 1188 3.6 3.6 2-2-3.6-3.6 3.6-3.6-2-2-3.6 3.6-3.5-3.6-2.1 2 3.6 3.6-3.6 3.6 2.1 2z"/><path d="m-98.7 1345.3 3.6 3.6 2-2.1-3.6-3.5 3.6-3.6-2-2-3.6 3.5-3.6-3.5-2 2 3.6 3.6-3.6 3.5 2 2.1z"/><path d="m1481 1023 3.6 3.6 2-2-3.6-3.6 3.6-3.6-2-2-3.6 3.6-3.5-3.6-2.1 2 3.6 3.6-3.6 3.6 2.1 2z"/><path d="m1551 1220 3.5 3.6 2-2-3.5-3.6 3.5-3.6-2-2-3.5 3.6-3.6-3.6-2 2 3.5 3.6-3.5 3.6 2 2z"/><path d="m1426.4 1188 3.6 3.6 2-2-3.6-3.6 3.6-3.6-2-2-3.6 3.6-3.5-3.6-2.1 2 3.6 3.6-3.6 3.6 2.1 2z"/><path d="m1488.7 1345.3 3.6 3.6 2-2.1-3.6-3.5 3.6-3.6-2-2-3.6 3.5-3.6-3.5-2 2 3.6 3.6-3.6 3.5 2 2.1z"/><path d="m322.3 1120.8 3.6 3.5 2-2-3.6-3.6 3.6-3.5-2-2.1-3.6 3.6-3.6-3.6-2 2.1 3.6 3.5-3.6 3.6 2 2z"/><path d="m291.3 1191.7-2-2-3.6 3.6-3.5-3.6-2 2 3.5 3.6-3.5 3.5 2 2.1 3.5-3.6 3.6 3.6 2-2.1-3.5-3.5z"/><path d="m495.6 1164 3.5 3.6 2-2-3.5-3.6 3.5-3.6-2-2-3.5 3.6-3.6-3.6-2 2 3.5 3.6-3.5 3.6 2 2z"/><path d="m653.3 1086.8 3.6 3.5 2-2-3.6-3.6 3.6-3.5-2-2.1-3.6 3.6-3.6-3.6-2 2.1 3.6 3.5-3.6 3.6 2 2z"/><path d="m631 1274 3.6 3.6 2-2-3.5-3.6 3.5-3.5-2-2.1-3.6 3.6-3.5-3.6-2 2.1 3.5 3.5-3.5 3.6 2 2z"/><path d="m740.6 1116.6 3.5 3.5 2.1-2-3.6-3.5 3.6-3.6-2.1-2-3.5 3.5-3.6-3.5-2 2 3.6 3.6-3.6 3.5 2 2z"/><path d="m775.3 1194.3 3.6 3.6 2-2.1-3.6-3.5 3.6-3.6-2-2-3.6 3.5-3.6-3.5-2 2 3.6 3.6-3.6 3.5 2 2.1z"/><path d="m977.6 1099 3.5 3.6 2-2-3.5-3.6 3.5-3.6-2-2-3.5 3.6-3.6-3.6-2 2 3.5 3.6-3.5 3.6 2 2z"/><path d="m960.3 1195.8 3.6 3.5 2-2-3.6-3.6 3.6-3.5-2-2.1-3.6 3.6-3.6-3.6-2 2.1 3.6 3.5-3.6 3.6 2 2z"/><path d="m1011.3 1173.8 3.6 3.5 2-2-3.6-3.6 3.6-3.5-2-2.1-3.6 3.6-3.6-3.6-2 2.1 3.6 3.5-3.6 3.6 2 2z"/><path d="m1083.3 1288.3 3.6 3.6 2-2.1-3.6-3.5 3.6-3.6-2-2-3.6 3.5-3.6-3.5-2 2 3.6 3.6-3.6 3.5 2 2.1z"/><path d="m1193.6 1161 3.5 3.6 2-2-3.5-3.6 3.5-3.6-2-2-3.5 3.6-3.6-3.6-2 2 3.5 3.6-3.5 3.6 2 2z"/><path d="m853 1286 3.6 3.6 2-2-3.6-3.6 3.6-3.6-2-2-3.6 3.6-3.5-3.6-2.1 2 3.6 3.6-3.6 3.6 2.1 2z"/><path d="m749.6 1342 3.5 3.6 2-2-3.5-3.6 3.5-3.6-2-2-3.5 3.6-3.6-3.6-2 2 3.5 3.6-3.5 3.6 2 2z"/><path d="m1209 1047 3.6 3.6 2-2-3.6-3.6 3.6-3.6-2-2-3.6 3.6-3.5-3.6-2.1 2 3.6 3.6-3.6 3.6 2.1 2z"/><path d="m1032 1022 3.6 3.6 2-2-3.6-3.6 3.6-3.6-2-2-3.6 3.6-3.5-3.6-2.1 2 3.6 3.6-3.6 3.6 2.1 2z"/><path d="m1298 1183 3.6 3.6 2-2-3.6-3.6 3.6-3.6-2-2-3.6 3.6-3.5-3.6-2.1 2 3.6 3.6-3.6 3.6 2.1 2z"/><path d="m1383.3 1105.3 3.6 3.6 2-2.1-3.6-3.5 3.6-3.6-2-2-3.6 3.5-3.6-3.5-2 2 3.6 3.6-3.6 3.5 2 2.1z"/><path d="m1260.3 1284.3 3.6 3.6 2-2.1-3.6-3.5 3.6-3.6-2-2-3.6 3.5-3.6-3.5-2 2 3.6 3.6-3.6 3.5 2 2.1z"/><path d="m423.6 1217 3.5 3.6 2-2-3.5-3.6 3.5-3.6-2-2-3.5 3.6-3.6-3.6-2 2 3.5 3.6-3.5 3.6 2 2z"/><path d="m357 1077 3.6 3.6 2-2-3.6-3.6 3.6-3.6-2-2-3.6 3.6-3.5-3.6-2.1 2 3.6 3.6-3.6 3.6 2.1 2z"/><path d="m531.3 1204.8 3.6 3.5 2-2-3.6-3.6 3.6-3.5-2-2.1-3.6 3.6-3.6-3.6-2 2.1 3.6 3.5-3.6 3.6 2 2z"/><path d="m489.3 1283.2-2-2.1-3.6 3.6-3.5-3.6-2 2.1 3.5 3.5-3.5 3.6 2 2 3.5-3.6 3.6 3.6 2-2-3.5-3.6z"/><path d="m363.6 1313 3.5 3.6 2-2-3.5-3.6 3.5-3.6-2-2-3.5 3.6-3.6-3.6-2 2 3.5 3.6-3.5 3.6 2 2z"/><path d="m335 989 3.6 3.6 2-2.1-3.6-3.5 3.6-3.6-2-2-3.6 3.6-3.6-3.6-2 2 3.6 3.6-3.6 3.5 2 2.1z"/></svg>