<?xml version="1.0" encoding="utf-8"?>
<!-- Generator: Adobe Illustrator 19.2.1, SVG Export Plug-In . SVG Version: 6.00 Build 0)  -->
<svg version="1.1" id="Calque_1" xmlns="http://www.w3.org/2000/svg" xmlns:xlink="http://www.w3.org/1999/xlink" x="0px" y="0px"
	 viewBox="0 0 56.7 56.7" style="enable-background:new 0 0 56.7 56.7;" xml:space="preserve">
<path d="M49.1,1.8H7.6c-3.2,0-5.8,2.6-5.8,5.8v41.5c0,3.2,2.6,5.8,5.8,5.8h41.5c3.2,0,5.8-2.6,5.8-5.8V7.6
	C54.8,4.4,52.3,1.8,49.1,1.8z M46.2,43c0.6,0.6,0.6,1.5,0,2.1c-0.3,0.3-0.7,0.4-1.1,0.4s-0.8-0.1-1.1-0.4L28.6,29.6L13.1,45.1
	c-0.3,0.3-0.7,0.4-1.1,0.4s-0.8-0.1-1.1-0.4c-0.6-0.6-0.6-1.5,0-2.1l15.5-15.5L11,11.9c-0.6-0.6-0.6-1.5,0-2.1
	c0.6-0.6,1.5-0.6,2.1,0l15.5,15.5L44.1,9.8c0.6-0.6,1.5-0.6,2.1,0c0.6,0.6,0.6,1.5,0,2.1L30.7,27.4L46.2,43z"/>
</svg>
